<svg width="577" height="332" viewBox="0 0 577 332" fill="none" xmlns="http://www.w3.org/2000/svg">
<path d="M183.784 130.975C197.194 126.685 224.248 116.495 225.181 110.06C226.347 102.015 236.096 100.464 243.599 100.033C251.102 99.6017 252.509 89.2495 260.481 84.936C268.454 80.6225 280.646 71.9956 293.777 71.1329C304.282 70.4428 324.416 74.5837 333.169 76.7404C333.482 74.8712 335.608 71.1329 341.611 71.1329C349.114 71.1329 362.714 65.5255 365.996 71.1329C369.279 76.7404 364.589 65.9564 373.968 68.5447M183.784 130.975C189.751 135.651 203.787 147.095 212.195 155.459C222.705 165.916 215.385 179.795 218.415 188.603C220.934 195.927 215.385 196.536 215.385 199.692C215.385 202.849 214.125 220.366 212.195 222.339C210.265 224.312 206.19 235.023 206.19 245.026C206.19 251.474 194.5 262.003 183.784 264.791C176.261 269.782 168.394 274.473 162.863 277.578C168.226 296.518 196.752 318.022 204.473 322.362C211.196 326.141 224.586 328.594 235.723 327.194M183.784 130.975C172.932 126.508 151.836 114.701 154.275 103.207C157.323 88.8388 181.438 70.2388 192.552 66.8313C203.666 63.4238 233.303 60.0161 250.142 60.0161C263.613 60.0161 282.249 60.0161 289.882 60.0161M373.968 68.5447C381.472 70.6153 401.168 85.5113 410.078 92.7005C397.572 99.1707 371.905 113.578 369.279 119.444C365.996 126.777 362.714 139.286 359.9 142.306C357.086 145.325 344.893 156.54 347.238 168.187C349.583 179.833 350.367 194.723 355.133 197.134C359.9 199.545 359.9 209.589 359.9 212C359.9 214.411 362.02 230.081 369.279 230.884C376.537 231.688 380.032 244.143 387.021 243.741C394.01 243.34 399.689 252.581 406.241 248.161C411.483 244.625 415.996 241.331 417.598 240.125C420.105 243.473 423.614 251.295 417.598 255.795M373.968 68.5447C367.999 63.0583 344.237 57.2374 333.169 56.1877C324.315 55.3481 304.532 58.3901 295.747 60.0161M417.598 255.795C410.078 261.42 409.735 264.634 398.378 263.831C387.021 263.027 381.342 255.795 376.537 255.795C371.732 255.795 366.461 258.024 364.199 260.927C361.937 263.831 357.701 272.52 355.133 273.114C353.079 273.59 349.014 275.492 347.238 276.384C348.475 281.14 348.623 292.257 339.316 298.678C327.682 306.703 296.013 329.294 280.501 329.294M417.598 255.795C413.158 263.633 403.469 280.534 400.236 285.433C396.194 291.557 384.925 306.68 369.279 314.521C353.633 322.362 334.136 323.321 321.534 326.307C308.932 329.294 284.882 328.102 280.501 329.294M280.501 329.294C274.916 329.965 261.922 331.107 254.628 330.301C245.509 329.294 240.754 329.18 235.723 327.194M280.501 329.294C272.339 329.294 267.31 326.13 262.765 323.6C258.672 321.322 254.819 319.877 252.063 316.215C252.143 318.584 251.666 321.211 242.229 323.6C240.704 323.986 237.377 326.986 235.723 327.194M295.747 60.0161C299.653 53.3862 305.184 45.8851 307.867 42.9606C311.874 38.592 325.964 20.9337 328.021 17.8764C330.078 14.8192 329.392 13.4615 328.021 11.254C326.65 9.04655 330.592 6.68166 332.307 4.47419C334.021 2.26672 337.278 0.216869 333.169 0.532221C329.061 0.847573 319.621 9.04649 319.621 12.3577C319.621 15.6689 319.099 14.0591 313.494 20.9337C309.009 26.4333 293.407 54.9659 286.167 68.5447C287.805 69.1349 290.531 68.7906 291.689 68.5447C292.286 66.3516 293.818 63.2901 295.747 60.0161Z" stroke="white" stroke-opacity="0.5"/>
<g clip-path="url(#clip0_36_894)">
<path d="M96.4239 170.687C96.003 173.989 92.7043 177.36 87.51 180.451C88.0011 181.014 88.4228 181.575 88.7735 182.137C89.4758 183.121 87.9317 183.823 87.3697 183.05C87.019 182.488 86.5279 181.926 86.1062 181.364C74.4549 187.967 54.9426 193.516 37.6768 195.343C31.6407 202.648 26.7277 211.499 23.85 221.895C12.971 261.724 67.1552 256.807 81.4037 221.052C95.3007 186.07 61.8214 185.93 48.205 206.09C38.0977 220.912 45.0458 229.974 51.9947 229.904C56.3464 229.833 57.7495 226.883 57.7495 226.883C54.9419 228.709 51.5731 225.829 53.1873 222.738C54.1702 220.842 56.6271 220.912 58.1003 221.755C61.2586 223.652 60.0653 231.238 52.0641 231.449C45.1862 231.66 35.3595 223.652 45.3265 206.653C57.8197 185.298 96.0015 181.223 91.6498 210.516C85.1927 253.999 13.6718 269.874 16.9705 223.231C17.6019 214.17 21.7431 204.616 27.9196 195.905C13.9539 196.116 3.14515 193.026 2.09286 184.807C0.547992 172.373 18.5863 162.539 38.9411 162.539C48.6968 162.539 57.5406 164.084 65.1208 166.613C66.8754 166.051 68.5605 165.559 70.2442 165.208C87.7914 161.767 97.0561 166.192 96.4239 170.687ZM61.6818 167.877C55.2942 166.332 48.0647 165.489 40.3449 165.77C23.0081 166.543 3.56606 174.762 3.98773 184.455C4.33849 192.253 15.007 194.923 28.9741 194.36C37.5373 182.77 49.6095 172.865 61.6818 167.877ZM85.1241 180.241C81.9657 176.87 77.3334 173.709 71.648 171.25C61.6109 174.692 49.1879 182.067 39.1508 193.588C55.7151 191.48 74.175 186.211 85.1241 180.241ZM94.6694 170.828C94.9507 168.228 85.6152 167.104 74.2452 170.406C79.4387 173.005 83.6501 176.166 86.5981 179.398C91.3707 176.588 94.3888 173.638 94.6694 170.828Z" fill="white"/>
<path d="M128.92 223.934C122.321 233.417 115.303 234.12 112.005 230.256C109.899 232.925 107.232 236.016 104.003 238.826C98.1075 243.954 87.8599 244.095 89.6854 233.207C92.0012 219.298 106.53 209.463 114.391 209.815C119.936 210.096 122.604 213.96 116.778 223.373C115.304 225.761 113.409 228.29 112.918 229.062C113.479 230.046 114.252 230.818 115.445 231.1C120.288 232.293 124.429 228.149 127.938 223.373C128.569 222.529 129.481 223.161 128.92 223.934ZM118.111 216.066C118.111 216.066 118.672 214.1 117.971 213.046C117.058 211.922 115.163 211.5 112.355 213.256C105.547 217.541 96.3529 228.64 95.1596 236.578C94.4581 241.495 97.9672 241.917 103.933 237C106.109 235.173 108.846 231.801 111.093 228.851C110.039 226.673 109.268 222.951 111.163 219.087C112.425 216.559 116.005 213.467 118.111 216.066Z" fill="white"/>
<path d="M147.659 223.794C146.817 225.058 135.306 240.02 131.656 241.636C126.463 243.954 118.672 239.177 123.725 230.256C125.62 226.955 147.168 191.341 151.94 183.332H159.52C159.52 183.332 132.007 229.062 128.779 234.19C125.48 239.389 128.919 243.392 134.112 238.053C139.377 232.645 144.781 225.62 146.606 223.302C147.238 222.529 148.08 223.091 147.659 223.794Z" fill="white"/>
<path d="M180.014 223.934C173.416 233.417 166.398 234.12 163.099 230.256C160.994 232.925 158.326 236.016 155.098 238.826C149.202 243.954 138.954 244.095 140.78 233.207C143.096 219.298 157.625 209.463 165.486 209.815C171.031 210.096 173.698 213.96 167.872 223.373C166.398 225.761 164.504 228.29 164.012 229.062C164.574 230.046 165.346 230.818 166.539 231.1C171.382 232.293 175.524 228.149 179.033 223.373C179.663 222.529 180.575 223.161 180.014 223.934ZM169.205 216.066C169.205 216.066 169.767 214.1 169.065 213.046C168.152 211.922 166.257 211.5 163.45 213.256C156.642 217.541 147.447 228.64 146.254 236.578C145.553 241.495 149.062 241.917 155.028 237C157.203 235.173 159.941 231.801 162.187 228.851C161.134 226.673 160.362 222.951 162.257 219.087C163.521 216.559 167.1 213.467 169.205 216.066Z" fill="white"/>
<path d="M207.457 224.075C206.545 225.339 197.56 237.773 192.788 240.934C186.682 245.007 178.891 238.545 183.523 230.678C185.208 227.727 186.471 225.69 189.209 220.983C192.437 215.575 192.858 215.083 190.612 211.5C190.402 211.29 190.331 211.079 190.191 210.798C185.839 216.488 180.084 223.934 178.399 226.041C177.908 226.673 176.995 226.112 177.627 225.339C179.312 223.161 185.278 215.363 189.7 209.603C188.647 206.512 189.91 203.562 191.524 201.736C194.893 197.872 198.052 200.822 196.157 203.281C194.753 205.037 193.279 206.793 192.156 208.268C189.418 211.851 200.367 215.082 195.244 223.511C193.489 226.391 190.05 232.151 188.506 234.751C186.049 238.824 188.296 243.882 194.402 237.701C200.368 231.66 205.983 224.214 206.685 223.301C207.246 222.529 208.229 223.02 207.457 224.075Z" fill="white"/>
<path d="M226.336 223.794C225.494 225.058 213.983 240.02 210.334 241.636C205.14 243.954 197.349 239.177 202.403 230.256C204.297 226.955 225.845 191.341 230.617 183.332H238.198C238.198 183.332 210.684 229.062 207.456 234.19C204.157 239.389 207.596 243.392 212.79 238.053C218.054 232.645 223.459 225.62 225.284 223.302C225.915 222.529 226.758 223.091 226.336 223.794Z" fill="white"/>
<path d="M252.024 223.933C251.041 225.619 243.671 236.156 237.495 239.949C230.757 244.023 218.123 243.321 219.316 231.59C220.72 218.665 234.266 209.744 242.548 209.744C248.233 209.744 251.251 215.293 241.144 222.95C235.88 226.954 230.686 227.937 227.387 228.078C226.334 230.537 225.703 233.206 225.773 235.876C225.913 240.862 232.512 241.635 238.757 237.14C244.794 232.855 250.549 224.004 251.04 223.442C251.743 222.599 252.516 223.161 252.024 223.933ZM228.09 226.673C230.617 226.392 234.126 225.619 238.337 223.161C248.374 217.471 248.023 208.62 240.443 213.396C236.583 215.855 231.108 220.773 228.09 226.673Z" fill="white"/>
<path d="M285.502 224.075C280.94 230.257 272.798 240.371 257.989 241.918C255.532 242.409 253.006 242.269 250.619 241.355C243.39 238.476 244.864 230.748 247.18 225.831C249.075 221.897 253.006 218.947 255.743 219.087C257.708 216.558 259.955 213.678 261.99 211.079C261.078 207.496 263.183 203.633 264.938 201.737C268.307 197.873 271.395 200.823 269.5 203.282C268.166 205.038 266.622 206.794 265.499 208.269C260.797 214.381 271.114 216.137 271.184 226.322C271.184 232.082 267.535 237.21 262.762 240.02C271.746 237.703 278.904 231.381 284.59 223.442C285.222 222.53 286.275 223.091 285.502 224.075ZM263.324 230.888C266.131 224.776 266.061 219.017 262.622 212.695C262.552 212.554 262.481 212.414 262.412 212.273C260.657 214.661 258.691 217.12 256.937 219.438C257.217 219.579 257.499 219.79 257.779 220.071C260.026 222.739 257.779 229.203 251.463 229.624C246.55 229.975 245.917 235.524 248.094 237.772C252.163 242.057 260.025 237.984 263.324 230.888Z" fill="white"/>
<path d="M319.121 224.075C314.559 230.257 306.418 240.371 291.608 241.918C289.151 242.409 286.625 242.269 284.237 241.355C277.009 238.476 278.483 230.748 280.798 225.831C282.693 221.897 286.624 218.947 289.362 219.087C291.327 216.558 293.573 213.678 295.608 211.079C294.695 207.496 296.802 203.633 298.555 201.737C301.925 197.873 305.013 200.823 303.118 203.282C301.784 205.038 300.241 206.794 299.117 208.269C294.415 214.381 304.732 216.137 304.802 226.322C304.802 232.082 301.152 237.21 296.38 240.02C305.364 237.703 312.522 231.381 318.209 223.442C318.841 222.53 319.893 223.091 319.121 224.075ZM296.943 230.888C299.75 224.776 299.68 219.017 296.24 212.695C296.17 212.554 296.1 212.414 296.03 212.273C294.275 214.661 292.31 217.12 290.556 219.438C290.836 219.579 291.117 219.79 291.397 220.071C293.644 222.739 291.398 229.203 285.081 229.624C280.167 229.975 279.536 235.524 281.711 237.772C285.783 242.057 293.643 237.984 296.943 230.888Z" fill="white"/>
<path d="M492.553 165.419C490.237 165.489 488.974 164.716 488.974 164.716C482.446 170.477 471.357 185.018 463.285 200.261C444.264 236.438 445.597 249.223 454.371 250.346C462.092 251.26 469.181 244.867 471.005 242.549C471.638 241.777 472.409 242.409 471.988 243.041C471.146 244.305 464.549 252.383 453.951 251.47C443.142 250.487 436.474 236.016 452.125 207.988H431.209C420.19 220.211 407.626 235.665 386.57 245.78C335.474 270.226 321.997 209.674 368.391 186.984C396.677 173.146 418.014 203.211 388.956 229.764C372.182 245.077 362.987 238.334 361.934 232.433C360.39 224.145 366.637 222.458 368.813 223.863C370.287 224.776 371.199 227.165 369.796 228.78C367.479 231.379 363.619 229.343 364.251 226.111C364.251 226.111 362.425 228.78 363.548 232.504C365.233 237.983 374.988 241.846 389.518 226.392C416.329 197.732 391.062 171.741 359.969 203.633C327.331 237.07 354.564 263.833 387.482 240.16C398.221 232.433 409.732 221.475 422.927 207.987H415.276V206.231H424.611C426.646 204.194 428.682 202.087 430.788 199.909C446.51 183.542 468.899 166.613 488.903 163.311C488.903 163.311 490.026 162.539 493.255 162.539C497.045 162.539 496.414 165.349 492.553 165.419ZM486.587 165.068C466.373 169.001 444.194 193.869 433.596 205.319C433.315 205.67 433.034 205.95 432.824 206.231H453.108C453.74 205.177 454.372 204.054 455.073 203C466.654 184.245 480.34 170.196 486.587 165.068Z" fill="white"/>
<path d="M498.167 224.144C493.113 230.888 483.918 242.338 466.442 242.198C464.406 242.198 462.301 241.495 460.686 240.3L443.7 268.539H436.19L471.495 209.744H479.075L476.127 214.59C476.689 214.099 477.18 213.607 477.812 213.115C483.707 207.777 493.463 208.198 492.2 218.946C491.006 228.64 481.04 237.21 472.828 240.652C483.005 238.896 491.007 232.152 497.183 223.583C497.886 222.668 498.869 223.161 498.167 224.144ZM469.461 238.825C474.794 235.243 485.182 223.09 486.095 215.785C486.726 211.008 482.655 210.376 477.883 215.012C476.198 216.628 474.093 218.806 472.759 220.281L463.986 234.893C460.827 241.284 464.687 241.986 469.461 238.825Z" fill="white"/>
<path d="M532.348 224.144C527.295 230.888 518.1 242.338 500.623 242.198C498.587 242.198 496.482 241.495 494.868 240.3L477.882 268.539H470.372L505.677 209.744H513.257L510.309 214.59C510.87 214.099 511.362 213.607 511.993 213.115C517.889 207.777 527.645 208.198 526.382 218.946C525.188 228.64 515.222 237.21 507.01 240.652C517.186 238.896 525.188 232.152 531.365 223.583C532.068 222.668 533.05 223.161 532.348 224.144ZM503.642 238.825C508.975 235.243 519.363 223.09 520.276 215.785C520.907 211.008 516.836 210.376 512.064 215.012C510.379 216.628 508.274 218.806 506.94 220.281L498.167 234.893C495.008 241.284 498.869 241.986 503.642 238.825Z" fill="white"/>
<path d="M551.158 223.794C550.316 225.058 538.805 240.02 535.155 241.636C529.961 243.954 522.17 239.177 527.223 230.256C529.119 226.955 550.666 191.341 555.439 183.332H563.019C563.019 183.332 535.505 229.062 532.277 234.19C528.978 239.389 532.418 243.392 537.611 238.053C542.876 232.645 548.28 225.62 550.104 223.302C550.737 222.529 551.579 223.091 551.158 223.794Z" fill="white"/>
<path d="M576.845 223.933C575.863 225.619 568.493 236.156 562.317 239.949C555.579 244.023 542.945 243.321 544.138 231.59C545.541 218.665 559.088 209.744 567.37 209.744C573.055 209.744 576.073 215.293 565.966 222.95C560.702 226.954 555.509 227.937 552.21 228.078C551.157 230.537 550.526 233.206 550.595 235.876C550.736 240.862 557.334 241.635 563.58 237.14C569.617 232.855 575.372 224.004 575.863 223.442C576.565 222.599 577.336 223.161 576.845 223.933ZM552.911 226.673C555.438 226.392 558.947 225.619 563.159 223.161C573.196 217.471 572.845 208.62 565.264 213.396C561.404 215.855 555.929 220.773 552.911 226.673Z" fill="white"/>
</g>
<path d="M200.972 133.919H207.888V132.183H209.624V128.739H211.64V132.491H209.904V133.919H222.028V155.031H219.984V153.295H202.988V155.031H200.972V133.919ZM219.984 142.571V135.963H202.988V142.571H219.984ZM219.984 151.223V144.615H202.988V151.223H219.984ZM249.16 148.087H247.424V132.211H249.44V147.807H251.176V151.251H256.076V149.543H257.784V146.071H259.828V149.823H258.092V151.559H256.356V153.323H250.868V151.559H249.16V148.087ZM266.436 139.435H264.7V135.991H262.992V132.211H265.008V135.683H266.744V139.155H268.48V144.335H270.188V149.823H268.172V144.643H266.436V139.435ZM303.424 147.779H305.132V146.043H306.868V142.571H308.604V139.127H310.34V137.699H305.132V135.655H310.34V128.739H312.356V135.655H317.536V137.699H314.092V140.835H315.828V144.307H317.536V147.779H319.272V149.795H317.228V148.059H315.52V144.615H313.784V141.143H312.356V155.031H310.34V142.879H308.912V146.351H307.176V148.059H305.44V149.795H303.424V147.779ZM293.008 146.043H294.772V142.571H296.508V139.127L298.216 139.127V137.699L293.008 137.699V135.655L298.216 135.655V128.739H300.26V135.655H303.704V137.699H300.26V139.127H301.996V140.835H303.704V142.571H305.44V144.615H303.424V142.879H301.688V141.143H300.26V155.031H298.216V142.879L296.788 142.879V146.351H295.08V148.059H293.008V146.043ZM343.828 142.879H342.4V148.059H340.328V142.571H342.092V139.127H343.828V137.699H340.328V135.655H343.828V128.739H345.844V135.655H350.744V133.919H352.452V132.183H354.188V130.475H355.924V128.739H357.94V130.475H359.676V132.183H363.148V133.919H366.592V135.963H363.148V137.391H364.856V144.615H357.94V146.043H366.592V153.295H364.856V155.031H359.368V152.959H364.548V148.059H361.412V149.515H363.148V151.531H361.104V149.795H359.676V151.531H352.452V149.515H354.188V148.059H351.024V155.031H349.008V146.043H355.924V144.615H350.744V137.699H345.844V139.127H347.58V140.835H349.316V144.615H347.272V141.143H345.844V155.031H343.828V142.879ZM355.924 135.655V133.919H357.94V135.655H362.84V134.227H359.368V132.491H357.66V130.755H356.232V132.491H354.496V134.227H352.76V135.655H355.924ZM352.452 137.391V135.963H351.024V137.391H352.452ZM361.412 140.835V142.571H362.84V137.699H361.412V139.407H359.676V140.835H361.412ZM354.188 142.571V140.835H355.924V139.407H354.188V137.699H352.76V142.571H354.188ZM359.368 139.127V137.699H356.232V139.127H359.368ZM359.368 142.571V141.143H356.232V142.571H359.368ZM359.368 149.515V148.059H356.232V149.515H359.368Z" fill="white"/>
<defs>
<clipPath id="clip0_36_894">
<rect width="575" height="106" fill="white" transform="translate(2 162.539)"/>
</clipPath>
</defs>
</svg>
