<svg width="575" height="332" viewBox="0 0 575 332" fill="none" xmlns="http://www.w3.org/2000/svg">
<path d="M183.784 130.975C197.194 126.685 224.248 116.495 225.181 110.06C226.347 102.015 236.096 100.464 243.599 100.033C251.102 99.6017 252.509 89.2495 260.481 84.936C268.454 80.6225 280.646 71.9956 293.777 71.1329C304.282 70.4428 324.415 74.5837 333.169 76.7404C333.482 74.8712 335.608 71.1329 341.61 71.1329C349.114 71.1329 362.713 65.5255 365.996 71.1329C369.279 76.7404 364.589 65.9564 373.968 68.5447M183.784 130.975C189.751 135.651 203.787 147.095 212.195 155.459C222.705 165.916 215.385 179.795 218.415 188.603C220.934 195.927 215.385 196.536 215.385 199.692C215.385 202.849 214.125 220.366 212.195 222.339C210.265 224.312 206.189 235.023 206.189 245.026C206.189 251.474 194.5 262.003 183.784 264.791C176.26 269.782 168.394 274.473 162.863 277.578C168.225 296.518 196.752 318.022 204.473 322.362C211.196 326.141 224.586 328.594 235.723 327.194M183.784 130.975C172.931 126.508 151.836 114.701 154.275 103.207C157.322 88.8388 181.438 70.2388 192.552 66.8313C203.666 63.4238 233.303 60.0161 250.142 60.0161C263.613 60.0161 282.249 60.0161 289.882 60.0161M373.968 68.5447C381.472 70.6153 401.168 85.5113 410.078 92.7005C397.572 99.1707 371.905 113.578 369.279 119.444C365.996 126.777 362.713 139.286 359.9 142.306C357.086 145.325 344.893 156.54 347.238 168.187C349.583 179.833 350.367 194.723 355.133 197.134C359.9 199.545 359.9 209.589 359.9 212C359.9 214.411 362.02 230.081 369.279 230.884C376.537 231.688 380.032 244.143 387.021 243.741C394.01 243.34 399.688 252.581 406.241 248.161C411.482 244.625 415.996 241.331 417.598 240.125C420.105 243.473 423.614 251.295 417.598 255.795M373.968 68.5447C367.999 63.0583 344.237 57.2374 333.169 56.1877C324.315 55.3481 304.532 58.3901 295.747 60.0161M417.598 255.795C410.078 261.42 409.735 264.634 398.378 263.831C387.021 263.027 381.342 255.795 376.537 255.795C371.732 255.795 366.461 258.024 364.199 260.927C361.937 263.831 357.701 272.52 355.133 273.114C353.079 273.59 349.014 275.492 347.238 276.384C348.475 281.14 348.623 292.257 339.316 298.678C327.682 306.703 296.013 329.294 280.501 329.294M417.598 255.795C413.158 263.633 403.469 280.534 400.236 285.433C396.194 291.557 384.925 306.68 369.279 314.521C353.633 322.362 334.136 323.321 321.534 326.307C308.932 329.294 284.882 328.102 280.501 329.294M280.501 329.294C274.916 329.965 261.922 331.107 254.628 330.301C245.509 329.294 240.754 329.18 235.723 327.194M280.501 329.294C272.339 329.294 267.31 326.13 262.764 323.6C258.672 321.322 254.819 319.877 252.063 316.215C252.143 318.584 251.666 321.211 242.229 323.6C240.704 323.986 237.377 326.986 235.723 327.194M295.747 60.0161C299.653 53.3862 305.184 45.8851 307.866 42.9606C311.874 38.592 325.964 20.9337 328.021 17.8764C330.078 14.8192 329.392 13.4615 328.021 11.254C326.65 9.04655 330.592 6.68166 332.307 4.47419C334.021 2.26672 337.278 0.216869 333.169 0.532221C329.061 0.847573 319.621 9.04649 319.621 12.3577C319.621 15.6689 319.099 14.0591 313.494 20.9337C309.009 26.4333 293.407 54.9659 286.167 68.5447C287.805 69.1349 290.531 68.7906 291.689 68.5447C292.286 66.3516 293.818 63.2901 295.747 60.0161Z" stroke="white" stroke-opacity="0.5"/>
<g clip-path="url(#clip0_11_18)">
<path d="M94.4241 143.687C94.0031 146.989 90.7045 150.36 85.5102 153.451C86.0012 154.014 86.4229 154.575 86.7737 155.137C87.4759 156.121 85.9318 156.823 85.3699 156.05C85.0191 155.488 84.528 154.926 84.1064 154.364C72.455 160.967 52.9428 166.516 35.6769 168.343C29.6408 175.648 24.7279 184.499 21.8501 194.895C10.9712 234.724 65.1553 229.807 79.4039 194.052C93.3009 159.07 59.8215 158.93 46.2051 179.09C36.0978 193.912 43.046 202.974 49.9948 202.904C54.3466 202.833 55.7496 199.883 55.7496 199.883C52.942 201.709 49.5732 198.829 51.1874 195.738C52.1703 193.842 54.6272 193.912 56.1004 194.755C59.2588 196.652 58.0654 204.238 50.0642 204.449C43.1863 204.66 33.3596 196.652 43.3266 179.653C55.8198 158.298 94.0016 154.223 89.6499 183.516C83.1929 226.999 11.6719 242.874 14.9706 196.231C15.602 187.17 19.7432 177.616 25.9197 168.905C11.954 169.116 1.14527 166.026 0.0929795 157.807C-1.45189 145.373 16.5864 135.539 36.9412 135.539C46.6969 135.539 55.5407 137.084 63.1209 139.613C64.8755 139.051 66.5607 138.559 68.2443 138.208C85.7915 134.767 95.0562 139.192 94.4241 143.687ZM59.6819 140.877C53.2943 139.332 46.0648 138.489 38.345 138.77C21.0083 139.543 1.56618 147.762 1.98785 157.455C2.33862 165.253 13.0071 167.923 26.9742 167.36C35.5374 155.77 47.6097 145.865 59.6819 140.877ZM83.1242 153.241C79.9658 149.87 75.3335 146.709 69.6481 144.25C59.611 147.692 47.188 155.067 37.1509 166.588C53.7152 164.48 72.1751 159.211 83.1242 153.241ZM92.6695 143.828C92.9509 141.228 83.6153 140.104 72.2453 143.406C77.4388 146.005 81.6503 149.166 84.5982 152.398C89.3708 149.588 92.3889 146.638 92.6695 143.828Z" fill="white"/>
<path d="M126.92 196.933C120.321 206.417 113.303 207.119 110.005 203.255C107.899 205.925 105.232 209.015 102.003 211.825C96.1075 216.954 85.8599 217.094 87.6854 206.206C90.0012 192.298 104.53 182.463 112.391 182.815C117.936 183.096 120.604 186.96 114.778 196.372C113.304 198.76 111.409 201.289 110.918 202.062C111.479 203.045 112.252 203.818 113.445 204.099C118.288 205.293 122.429 201.149 125.938 196.372C126.569 195.529 127.481 196.161 126.92 196.933ZM116.111 189.066C116.111 189.066 116.672 187.099 115.971 186.045C115.058 184.921 113.163 184.5 110.355 186.256C103.547 190.541 94.3529 201.64 93.1596 209.577C92.4581 214.495 95.9672 214.916 101.933 209.999C104.109 208.173 106.846 204.801 109.093 201.851C108.039 199.673 107.268 195.95 109.163 192.086C110.425 189.558 114.005 186.467 116.111 189.066Z" fill="white"/>
<path d="M145.659 196.794C144.817 198.058 133.306 213.02 129.657 214.636C124.463 216.954 116.672 212.177 121.726 203.256C123.62 199.955 145.168 164.341 149.94 156.332H157.521C157.521 156.332 130.007 202.062 126.779 207.19C123.48 212.389 126.919 216.392 132.113 211.053C137.377 205.645 142.781 198.62 144.607 196.302C145.238 195.529 146.081 196.091 145.659 196.794Z" fill="white"/>
<path d="M178.014 196.933C171.416 206.417 164.398 207.119 161.099 203.255C158.994 205.925 156.326 209.015 153.098 211.825C147.202 216.954 136.954 217.094 138.78 206.206C141.096 192.298 155.625 182.463 163.486 182.815C169.031 183.096 171.698 186.96 165.872 196.372C164.398 198.76 162.504 201.289 162.012 202.062C162.574 203.045 163.346 203.818 164.539 204.099C169.382 205.293 173.524 201.149 177.033 196.372C177.663 195.529 178.575 196.161 178.014 196.933ZM167.205 189.066C167.205 189.066 167.767 187.099 167.065 186.045C166.152 184.921 164.257 184.5 161.45 186.256C154.642 190.541 145.447 201.64 144.254 209.577C143.553 214.495 147.062 214.916 153.028 209.999C155.203 208.173 157.941 204.801 160.187 201.851C159.134 199.673 158.362 195.95 160.257 192.086C161.521 189.558 165.1 186.467 167.205 189.066Z" fill="white"/>
<path d="M205.457 197.075C204.545 198.339 195.561 210.773 190.788 213.934C184.682 218.007 176.891 211.545 181.523 203.678C183.208 200.727 184.471 198.69 187.209 193.983C190.437 188.575 190.858 188.083 188.612 184.5C188.402 184.29 188.331 184.079 188.191 183.798C183.839 189.488 178.084 196.934 176.399 199.041C175.908 199.673 174.995 199.112 175.627 198.339C177.312 196.161 183.278 188.363 187.7 182.603C186.647 179.512 187.91 176.562 189.524 174.736C192.893 170.872 196.052 173.822 194.157 176.281C192.753 178.037 191.279 179.793 190.156 181.268C187.418 184.851 198.367 188.082 193.244 196.511C191.49 199.391 188.051 205.151 186.506 207.751C184.05 211.824 186.296 216.882 192.402 210.701C198.368 204.66 203.983 197.214 204.685 196.301C205.246 195.529 206.229 196.02 205.457 197.075Z" fill="white"/>
<path d="M224.336 196.794C223.494 198.058 211.983 213.02 208.334 214.636C203.14 216.954 195.35 212.177 200.403 203.256C202.298 199.955 223.845 164.341 228.618 156.332H236.198C236.198 156.332 208.685 202.062 205.456 207.19C202.157 212.389 205.596 216.392 210.791 211.053C216.054 205.645 221.459 198.62 223.284 196.302C223.915 195.529 224.758 196.091 224.336 196.794Z" fill="white"/>
<path d="M250.024 196.933C249.041 198.619 241.671 209.156 235.495 212.95C228.757 217.024 216.123 216.321 217.316 204.591C218.72 191.665 232.266 182.744 240.548 182.744C246.233 182.744 249.251 188.294 239.144 195.951C233.88 199.955 228.686 200.938 225.388 201.079C224.334 203.537 223.703 206.207 223.773 208.876C223.914 213.863 230.512 214.636 236.758 210.141C242.794 205.856 248.549 197.004 249.04 196.442C249.743 195.599 250.516 196.161 250.024 196.933ZM226.09 199.673C228.617 199.392 232.126 198.619 236.337 196.161C246.374 190.471 246.023 181.62 238.443 186.397C234.583 188.855 229.108 193.773 226.09 199.673Z" fill="white"/>
<path d="M283.503 197.075C278.94 203.256 270.798 213.371 255.989 214.917C253.532 215.409 251.006 215.268 248.619 214.355C241.39 211.475 242.864 203.748 245.18 198.831C247.075 194.896 251.006 191.946 253.743 192.087C255.709 189.557 257.955 186.677 259.99 184.079C259.078 180.496 261.183 176.633 262.938 174.736C266.307 170.872 269.395 173.823 267.5 176.282C266.167 178.038 264.622 179.794 263.499 181.269C258.797 187.38 269.114 189.136 269.185 199.322C269.185 205.082 265.535 210.21 260.762 213.02C269.746 210.702 276.904 204.38 282.59 196.442C283.222 195.529 284.275 196.091 283.503 197.075ZM261.324 203.888C264.131 197.776 264.061 192.016 260.622 185.694C260.552 185.554 260.481 185.414 260.412 185.272C258.657 187.661 256.691 190.119 254.937 192.438C255.217 192.579 255.499 192.789 255.779 193.07C258.026 195.739 255.779 202.202 249.463 202.623C244.55 202.974 243.918 208.523 246.094 210.772C250.163 215.057 258.025 210.983 261.324 203.888Z" fill="white"/>
<path d="M317.121 197.075C312.559 203.256 304.418 213.371 289.608 214.917C287.151 215.409 284.625 215.268 282.237 214.355C275.009 211.475 276.483 203.748 278.798 198.831C280.693 194.896 284.624 191.946 287.362 192.087C289.327 189.557 291.573 186.677 293.608 184.079C292.695 180.496 294.802 176.633 296.555 174.736C299.925 170.872 303.013 173.823 301.118 176.282C299.784 178.038 298.241 179.794 297.117 181.269C292.415 187.38 302.732 189.136 302.802 199.322C302.802 205.082 299.152 210.21 294.38 213.02C303.364 210.702 310.522 204.38 316.209 196.442C316.841 195.529 317.893 196.091 317.121 197.075ZM294.943 203.888C297.75 197.776 297.68 192.016 294.24 185.694C294.17 185.554 294.1 185.414 294.03 185.272C292.275 187.661 290.31 190.119 288.556 192.438C288.836 192.579 289.117 192.789 289.397 193.07C291.644 195.739 289.398 202.202 283.081 202.623C278.167 202.974 277.536 208.523 279.711 210.772C283.783 215.057 291.643 210.983 294.943 203.888Z" fill="white"/>
<path d="M490.553 138.419C488.237 138.489 486.974 137.716 486.974 137.716C480.447 143.477 469.357 158.018 461.285 173.261C442.264 209.438 443.598 222.223 452.371 223.346C460.092 224.26 467.181 217.867 469.006 215.549C469.638 214.777 470.409 215.409 469.989 216.041C469.147 217.305 462.549 225.383 451.951 224.47C441.142 223.487 434.474 209.016 450.126 180.988H429.21C418.19 193.211 405.626 208.665 384.57 218.78C333.474 243.226 319.997 182.674 366.391 159.984C394.677 146.146 416.014 176.211 386.957 202.764C370.182 218.077 360.987 211.334 359.934 205.433C358.39 197.145 364.637 195.458 366.813 196.863C368.287 197.776 369.199 200.165 367.796 201.78C365.479 204.379 361.619 202.343 362.251 199.111C362.251 199.111 360.425 201.78 361.549 205.504C363.233 210.983 372.989 214.846 387.518 199.392C414.33 170.732 389.062 144.741 357.969 176.633C325.332 210.07 352.564 236.833 385.483 213.16C396.221 205.433 407.732 194.475 420.927 180.987H413.277V179.231H422.611C424.647 177.194 426.682 175.087 428.788 172.909C444.51 156.542 466.9 139.613 486.904 136.311C486.904 136.311 488.026 135.539 491.255 135.539C495.045 135.539 494.414 138.349 490.553 138.419ZM484.587 138.068C464.373 142.001 442.195 166.869 431.596 178.319C431.315 178.67 431.034 178.95 430.824 179.231H451.108C451.741 178.177 452.372 177.054 453.073 176C464.654 157.245 478.341 143.196 484.587 138.068Z" fill="white"/>
<path d="M496.167 197.145C491.114 203.889 481.918 215.338 464.442 215.198C462.406 215.198 460.301 214.495 458.687 213.301L441.701 241.539H434.19L469.495 182.744H477.076L474.128 187.591C474.689 187.099 475.181 186.607 475.812 186.116C481.707 180.777 491.464 181.199 490.2 191.946C489.007 201.641 479.041 210.21 470.828 213.653C481.006 211.897 489.007 205.153 495.183 196.583C495.886 195.669 496.869 196.161 496.167 197.145ZM467.461 211.826C472.795 208.243 483.183 196.091 484.095 188.785C484.727 184.009 480.656 183.376 475.883 188.013C474.199 189.629 472.093 191.807 470.76 193.282L461.986 207.893C458.827 214.285 462.687 214.987 467.461 211.826Z" fill="white"/>
<path d="M530.348 197.145C525.295 203.889 516.1 215.338 498.624 215.198C496.588 215.198 494.482 214.495 492.868 213.301L475.882 241.539H468.372L503.677 182.744H511.257L508.309 187.591C508.871 187.099 509.362 186.607 509.994 186.116C515.889 180.777 525.645 181.199 524.382 191.946C523.188 201.641 513.222 210.21 505.01 213.653C515.186 211.897 523.188 205.153 529.365 196.583C530.068 195.669 531.05 196.161 530.348 197.145ZM501.642 211.826C506.976 208.243 517.363 196.091 518.276 188.785C518.908 184.009 514.836 183.376 510.064 188.013C508.379 189.629 506.274 191.807 504.94 193.282L496.167 207.893C493.008 214.285 496.869 214.987 501.642 211.826Z" fill="white"/>
<path d="M549.158 196.794C548.316 198.058 536.805 213.02 533.155 214.636C527.961 216.954 520.17 212.177 525.223 203.256C527.119 199.955 548.666 164.341 553.439 156.332H561.019C561.019 156.332 533.505 202.062 530.277 207.19C526.978 212.389 530.418 216.392 535.611 211.053C540.876 205.645 546.28 198.62 548.104 196.302C548.737 195.529 549.579 196.091 549.158 196.794Z" fill="white"/>
<path d="M574.846 196.933C573.863 198.619 566.494 209.156 560.317 212.95C553.579 217.024 540.945 216.321 542.138 204.591C543.542 191.665 557.088 182.744 565.37 182.744C571.055 182.744 574.073 188.294 563.967 195.951C558.702 199.955 553.509 200.938 550.21 201.079C549.157 203.537 548.526 206.207 548.596 208.876C548.737 213.863 555.334 214.636 561.581 210.141C567.617 205.856 573.372 197.004 573.863 196.442C574.565 195.599 575.337 196.161 574.846 196.933ZM550.911 199.673C553.438 199.392 556.948 198.619 561.159 196.161C571.196 190.471 570.845 181.62 563.264 186.397C559.404 188.855 553.93 193.773 550.911 199.673Z" fill="white"/>
</g>
<defs>
<clipPath id="clip0_11_18">
<rect width="575" height="106" fill="white" transform="translate(0 135.539)"/>
</clipPath>
</defs>
</svg>
