<svg width="575" height="106" viewBox="0 0 575 106" fill="none" xmlns="http://www.w3.org/2000/svg">
<g clip-path="url(#clip0_11_2)">
<path d="M94.4241 8.14821C94.0031 11.4496 90.7045 14.8212 85.5102 17.912C86.0012 18.4745 86.4229 19.0362 86.7737 19.5978C87.4759 20.5815 85.9318 21.2836 85.3699 20.5106C85.0191 19.9489 84.528 19.3864 84.1064 18.8248C72.455 25.4276 52.9428 30.9772 35.6769 32.8035C29.6408 40.1092 24.7279 48.9595 21.8501 59.356C10.9712 99.185 65.1553 94.268 79.4039 58.5134C93.3009 23.5311 59.8215 23.3907 46.2051 43.551C36.0978 58.373 43.046 67.4347 49.9948 67.3645C54.3466 67.2943 55.7496 64.3439 55.7496 64.3439C52.942 66.1702 49.5732 63.29 51.1874 60.1992C52.1703 58.3028 54.6272 58.373 56.1004 59.2155C59.2588 61.1127 58.0654 68.6993 50.0642 68.9099C43.1863 69.1205 33.3596 61.1127 43.3266 44.1134C55.8198 22.7588 94.0016 18.6843 89.6499 47.9773C83.1929 91.4596 11.6719 107.335 14.9706 60.6915C15.602 51.6305 19.7432 42.0766 25.9197 33.3659C11.954 33.5773 1.14527 30.4865 0.0929795 22.2681C-1.45189 9.83402 16.5864 0 36.9412 0C46.6969 0 55.5407 1.54539 63.1209 4.07373C64.8755 3.51204 66.5607 3.01981 68.2443 2.66876C85.7915 -0.772317 95.0562 3.65246 94.4241 8.14821ZM59.6819 5.33828C53.2943 3.79289 46.0648 2.95036 38.345 3.2312C21.0083 4.00427 1.56618 12.2227 1.98785 21.9163C2.33862 29.7135 13.0071 32.3837 26.9742 31.8213C35.5374 20.2305 47.6097 10.3263 59.6819 5.33828ZM83.1242 17.7021C79.9658 14.3305 75.3335 11.1695 69.6481 8.71065C59.611 12.1532 47.188 19.5284 37.1509 31.049C53.7152 28.9411 72.1751 23.6723 83.1242 17.7021ZM92.6695 8.28863C92.9509 5.68933 83.6153 4.5652 72.2453 7.86737C77.4388 10.4659 81.6503 13.6269 84.5982 16.8589C89.3708 14.0489 92.3889 11.0986 92.6695 8.28863Z" fill="white"/>
<path d="M126.92 61.3941C120.321 70.8779 113.303 71.58 110.005 67.7161C107.899 70.3856 105.232 73.4764 102.003 76.2863C96.1075 81.4147 85.8599 81.5552 87.6854 70.6672C90.0012 56.7587 104.53 46.9239 112.391 47.2757C117.936 47.5566 120.604 51.4204 114.778 60.8332C113.304 63.2211 111.409 65.7502 110.918 66.5225C111.479 67.5062 112.252 68.2786 113.445 68.5602C118.288 69.7537 122.429 65.6098 125.938 60.8332C126.569 59.9899 127.481 60.6218 126.92 61.3941ZM116.111 53.5268C116.111 53.5268 116.672 51.5601 115.971 50.5062C115.058 49.3821 113.163 48.9608 110.355 50.7168C103.547 55.0019 94.3529 66.1005 93.1596 74.0381C92.4581 78.9559 95.9672 79.3771 101.933 74.4601C104.109 72.6339 106.846 69.2615 109.093 66.3119C108.039 64.1339 107.268 60.4112 109.163 56.5473C110.425 54.019 114.005 50.9275 116.111 53.5268Z" fill="white"/>
<path d="M145.659 61.2547C144.817 62.5192 133.306 77.4809 129.657 79.0965C124.463 81.415 116.672 76.6384 121.726 67.7171C123.62 64.4157 145.168 28.8015 149.94 20.793H157.521C157.521 20.793 130.007 66.5228 126.779 71.6512C123.48 76.8498 126.919 80.8525 132.113 75.5143C137.377 70.1058 142.781 63.0809 144.607 60.7632C145.238 59.9902 146.081 60.5518 145.659 61.2547Z" fill="white"/>
<path d="M178.014 61.3941C171.416 70.8779 164.398 71.58 161.099 67.7161C158.994 70.3856 156.326 73.4764 153.098 76.2863C147.202 81.4147 136.954 81.5552 138.78 70.6672C141.096 56.7587 155.625 46.9239 163.486 47.2757C169.031 47.5566 171.698 51.4204 165.872 60.8332C164.398 63.2211 162.504 65.7502 162.012 66.5225C162.574 67.5062 163.346 68.2786 164.539 68.5602C169.382 69.7537 173.524 65.6098 177.033 60.8332C177.663 59.9899 178.575 60.6218 178.014 61.3941ZM167.205 53.5268C167.205 53.5268 167.767 51.5601 167.065 50.5062C166.152 49.3821 164.257 48.9608 161.45 50.7168C154.642 55.0019 145.447 66.1005 144.254 74.0381C143.553 78.9559 147.062 79.3771 153.028 74.4601C155.203 72.6339 157.941 69.2615 160.187 66.3119C159.134 64.1339 158.362 60.4112 160.257 56.5473C161.521 54.019 165.1 50.9275 167.205 53.5268Z" fill="white"/>
<path d="M205.457 61.5357C204.545 62.8003 195.561 75.2336 190.788 78.3946C184.682 82.4683 176.891 76.0059 181.523 68.1385C183.208 65.1882 184.471 63.1513 187.209 58.4442C190.437 53.0357 190.858 52.5442 188.612 48.9612C188.402 48.7506 188.331 48.5399 188.191 48.2591C183.839 53.9492 178.084 61.3945 176.399 63.5016C175.908 64.1343 174.995 63.5726 175.627 62.7995C177.312 60.6215 183.278 52.8243 187.7 47.064C186.647 43.9732 187.91 41.0229 189.524 39.1966C192.893 35.3328 196.052 38.2831 194.157 40.742C192.753 42.4981 191.279 44.2541 190.156 45.7293C187.418 49.3115 198.367 52.5427 193.244 60.9718C191.49 63.8519 188.051 69.6122 186.506 72.2115C184.05 76.2852 186.296 81.3434 192.402 75.1619C198.368 69.1207 203.983 61.6746 204.685 60.7619C205.246 59.9903 206.229 60.481 205.457 61.5357Z" fill="white"/>
<path d="M224.336 61.2547C223.494 62.5192 211.983 77.4809 208.334 79.0965C203.14 81.415 195.35 76.6384 200.403 67.7171C202.298 64.4157 223.845 28.8015 228.618 20.793H236.198C236.198 20.793 208.685 66.5228 205.456 71.6512C202.157 76.8498 205.596 80.8525 210.791 75.5143C216.054 70.1058 221.459 63.0809 223.284 60.7632C223.915 59.9902 224.758 60.5518 224.336 61.2547Z" fill="white"/>
<path d="M250.024 61.3944C249.041 63.0802 241.671 73.6171 235.495 77.4108C228.757 81.4845 216.123 80.7824 217.316 69.0519C218.72 56.1264 232.266 47.2051 240.548 47.2051C246.233 47.2051 249.251 52.7547 239.144 60.4115C233.88 64.4157 228.686 65.3987 225.388 65.5399C224.334 67.998 223.703 70.6675 223.773 73.337C223.914 78.3235 230.512 79.0966 236.758 74.6016C242.794 70.3165 248.549 61.4654 249.04 60.903C249.743 60.0604 250.516 60.6221 250.024 61.3944ZM226.09 64.1342C228.617 63.8533 232.126 63.0802 236.337 60.6221C246.374 54.932 246.023 46.081 238.443 50.8575C234.583 53.3164 229.108 58.2342 226.09 64.1342Z" fill="white"/>
<path d="M283.503 61.5355C278.94 67.717 270.798 77.8319 255.989 79.378C253.532 79.8695 251.006 79.7291 248.619 78.8156C241.39 75.9362 242.864 68.2085 245.18 63.2915C247.075 59.3574 251.006 56.4071 253.743 56.5475C255.709 54.0184 257.955 51.1382 259.99 48.5397C259.078 44.9567 261.183 41.0936 262.938 39.1971C266.307 35.3333 269.395 38.2836 267.5 40.7425C266.167 42.4985 264.622 44.2546 263.499 45.7297C258.797 51.8411 269.114 53.5971 269.185 63.7829C269.185 69.5425 265.535 74.6709 260.762 77.4808C269.746 75.1631 276.904 68.8411 282.59 60.9028C283.222 59.9901 284.275 60.5517 283.503 61.5355ZM261.324 68.3489C264.131 62.2368 264.061 56.4773 260.622 50.1553C260.552 50.0149 260.481 49.8744 260.412 49.7333C258.657 52.1219 256.691 54.5801 254.937 56.8985C255.217 57.0397 255.499 57.2503 255.779 57.5312C258.026 60.1999 255.779 66.6631 249.463 67.0844C244.55 67.4354 243.918 72.9843 246.094 75.2326C250.163 79.5177 258.025 75.444 261.324 68.3489Z" fill="white"/>
<path d="M317.121 61.5355C312.559 67.717 304.418 77.8319 289.608 79.378C287.151 79.8695 284.625 79.7291 282.237 78.8156C275.009 75.9362 276.483 68.2085 278.798 63.2915C280.693 59.3574 284.624 56.4071 287.362 56.5475C289.327 54.0184 291.573 51.1382 293.608 48.5397C292.695 44.9567 294.802 41.0936 296.555 39.1971C299.925 35.3333 303.013 38.2836 301.118 40.7425C299.784 42.4985 298.241 44.2546 297.117 45.7297C292.415 51.8411 302.732 53.5971 302.802 63.7829C302.802 69.5425 299.152 74.6709 294.38 77.4808C303.364 75.1631 310.522 68.8411 316.209 60.9028C316.841 59.9901 317.893 60.5517 317.121 61.5355ZM294.943 68.3489C297.75 62.2368 297.68 56.4773 294.24 50.1553C294.17 50.0149 294.1 49.8744 294.03 49.7333C292.275 52.1219 290.31 54.5801 288.556 56.8985C288.836 57.0397 289.117 57.2503 289.397 57.5312C291.644 60.1999 289.398 66.6631 283.081 67.0844C278.167 67.4354 277.536 72.9843 279.711 75.2326C283.783 79.5177 291.643 75.444 294.943 68.3489Z" fill="white"/>
<path d="M490.553 2.88015C488.237 2.95036 486.974 2.17729 486.974 2.17729C480.447 7.93758 469.357 22.4787 461.285 37.722C442.264 73.8986 443.598 86.6838 452.371 87.8071C460.092 88.7206 467.181 82.3277 469.006 80.01C469.638 79.2377 470.409 79.8695 469.989 80.5014C469.147 81.766 462.549 89.844 451.951 88.9312C441.142 87.9475 434.474 73.4766 450.126 45.449H429.21C418.19 57.6716 405.626 73.1263 384.57 83.2412C333.474 107.687 319.997 47.1348 366.391 24.4454C394.677 10.6071 416.014 40.6724 386.957 67.2248C370.182 82.5383 360.987 75.7951 359.934 69.8943C358.39 61.6057 364.637 59.9191 366.813 61.3241C368.287 62.2368 369.199 64.6255 367.796 66.2411C365.479 68.8404 361.619 66.8036 362.251 63.5724C362.251 63.5724 360.425 66.2411 361.549 69.9646C363.233 75.444 372.989 79.3071 387.518 63.8532C414.33 35.1929 389.062 9.20213 357.969 41.0936C325.332 74.5305 352.564 101.294 385.483 77.6213C396.221 69.8943 407.732 58.9354 420.927 45.4482H413.277V43.6922H422.611C424.647 41.6553 426.682 39.5475 428.788 37.3702C444.51 21.0028 466.9 4.07373 486.904 0.772317C486.904 0.772317 488.026 0 491.255 0C495.045 0 494.414 2.80994 490.553 2.88015ZM484.587 2.52909C464.373 6.4624 442.195 31.3298 431.596 42.7794C431.315 43.1305 431.034 43.4113 430.824 43.6922H451.108C451.741 42.6383 452.372 41.5149 453.073 40.461C464.654 21.7057 478.341 7.65674 484.587 2.52909Z" fill="white"/>
<path d="M496.167 61.6058C491.114 68.3498 481.918 79.7994 464.442 79.659C462.406 79.659 460.301 78.9562 458.687 77.7618L441.701 106H434.19L469.495 47.2051H477.076L474.128 52.0519C474.689 51.5604 475.181 51.0682 475.812 50.5767C481.707 45.2384 491.464 45.6597 490.2 56.4072C489.007 66.1016 479.041 74.671 470.828 78.1136C481.006 76.3576 489.007 69.6136 495.183 61.0441C495.886 60.1299 496.869 60.6221 496.167 61.6058ZM467.461 76.2866C472.795 72.7044 483.183 60.5519 484.095 53.2462C484.727 48.4696 480.656 47.837 475.883 52.4739C474.199 54.0895 472.093 56.2675 470.76 57.7427L461.986 72.3541C458.827 78.7455 462.687 79.4476 467.461 76.2866Z" fill="white"/>
<path d="M530.348 61.6058C525.295 68.3498 516.1 79.7994 498.624 79.659C496.588 79.659 494.482 78.9562 492.868 77.7618L475.882 106H468.372L503.677 47.2051H511.257L508.309 52.0519C508.871 51.5604 509.362 51.0682 509.994 50.5767C515.889 45.2384 525.645 45.6597 524.382 56.4072C523.188 66.1016 513.222 74.671 505.01 78.1136C515.186 76.3576 523.188 69.6136 529.365 61.0441C530.068 60.1299 531.05 60.6221 530.348 61.6058ZM501.642 76.2866C506.976 72.7044 517.363 60.5519 518.276 53.2462C518.908 48.4696 514.836 47.837 510.064 52.4739C508.379 54.0895 506.274 56.2675 504.94 57.7427L496.167 72.3541C493.008 78.7455 496.869 79.4476 501.642 76.2866Z" fill="white"/>
<path d="M549.158 61.2547C548.316 62.5192 536.805 77.4809 533.155 79.0965C527.961 81.415 520.17 76.6384 525.223 67.7171C527.119 64.4157 548.666 28.8015 553.439 20.793H561.019C561.019 20.793 533.505 66.5228 530.277 71.6512C526.978 76.8498 530.418 80.8525 535.611 75.5143C540.876 70.1058 546.28 63.0809 548.104 60.7632C548.737 59.9902 549.579 60.5518 549.158 61.2547Z" fill="white"/>
<path d="M574.846 61.3944C573.863 63.0802 566.494 73.6171 560.317 77.4108C553.579 81.4845 540.945 80.7824 542.138 69.0519C543.542 56.1264 557.088 47.2051 565.37 47.2051C571.055 47.2051 574.073 52.7547 563.967 60.4115C558.702 64.4157 553.509 65.3987 550.21 65.5399C549.157 67.998 548.526 70.6675 548.596 73.337C548.737 78.3235 555.334 79.0966 561.581 74.6016C567.617 70.3165 573.372 61.4654 573.863 60.903C574.565 60.0604 575.337 60.6221 574.846 61.3944ZM550.911 64.1342C553.438 63.8533 556.948 63.0802 561.159 60.6221C571.196 54.932 570.845 46.081 563.264 50.8575C559.404 53.3164 553.93 58.2342 550.911 64.1342Z" fill="white"/>
</g>
<defs>
<clipPath id="clip0_11_2">
<rect width="575" height="106" fill="white"/>
</clipPath>
</defs>
</svg>
