<svg width="577" height="344" viewBox="0 0 577 344" fill="none" xmlns="http://www.w3.org/2000/svg">
<path d="M180.017 135.714C193.914 131.268 221.951 120.709 222.917 114.039C224.126 105.703 234.229 104.096 242.004 103.649C249.78 103.202 251.238 92.4733 259.5 88.0031C267.762 83.5329 280.398 74.5927 294.005 73.6986C304.891 72.9834 325.757 77.2747 334.828 79.5098C335.152 77.5727 337.356 73.6986 343.576 73.6986C351.352 73.6986 365.446 67.8875 368.848 73.6986C372.25 79.5098 367.39 68.3341 377.109 71.0164M180.017 135.714C186.201 140.56 200.747 152.42 209.46 161.088C220.351 171.924 212.766 186.308 215.906 195.436C218.516 203.025 212.766 203.657 212.766 206.928C212.766 210.199 211.46 228.352 209.46 230.397C207.459 232.441 203.236 243.542 203.236 253.909C203.236 260.59 191.122 271.502 180.017 274.391C172.22 279.564 164.067 284.425 158.336 287.643C163.893 307.27 193.456 329.555 201.457 334.053C208.425 337.97 222.301 340.512 233.842 339.061M180.017 135.714C168.77 131.085 146.909 118.849 149.435 106.937C152.594 92.0477 177.586 72.7721 189.103 69.2407C200.621 65.7094 231.334 62.178 248.785 62.178C262.746 62.178 282.058 62.178 289.969 62.178M377.109 71.0164C384.885 73.1622 405.297 88.5993 414.531 96.0496C401.571 102.755 374.971 117.685 372.25 123.765C368.848 131.364 365.446 144.327 362.53 147.457C359.614 150.586 346.978 162.208 349.408 174.278C351.838 186.347 352.65 201.778 357.59 204.277C362.53 206.775 362.53 217.184 362.53 219.683C362.53 222.181 364.727 238.42 372.25 239.253C379.772 240.085 383.393 252.993 390.636 252.577C397.879 252.161 403.764 261.737 410.554 257.157C415.986 253.493 420.664 250.079 422.324 248.83C424.922 252.299 428.558 260.405 422.324 265.068M377.109 71.0164C370.923 65.3307 346.298 59.2983 334.828 58.2106C325.653 57.3404 305.151 60.4929 296.047 62.178M422.324 265.068C414.531 270.898 414.176 274.229 402.406 273.396C390.636 272.563 384.751 265.068 379.772 265.068C374.792 265.068 369.33 267.378 366.985 270.387C364.641 273.396 360.251 282.401 357.59 283.017C355.461 283.51 351.248 285.481 349.408 286.405C350.69 291.334 350.843 302.855 341.198 309.509C329.142 317.826 296.322 341.237 280.247 341.237M422.324 265.068C417.723 273.191 407.682 290.707 404.331 295.783C400.142 302.13 388.464 317.802 372.25 325.927C356.035 334.053 335.83 335.047 322.771 338.142C309.711 341.237 284.787 340.001 280.247 341.237M280.247 341.237C274.459 341.933 260.993 343.116 253.434 342.281C243.984 341.237 239.056 341.119 233.842 339.061M280.247 341.237C271.788 341.237 266.576 337.958 261.866 335.336C257.625 332.976 253.632 331.478 250.776 327.683C250.859 330.138 250.365 332.86 240.585 335.336C239.004 335.736 235.556 338.846 233.842 339.061M296.047 62.178C300.094 55.3072 305.826 47.5337 308.606 44.503C312.759 39.9757 327.361 21.6759 329.493 18.5076C331.625 15.3393 330.914 13.9323 329.493 11.6446C328.072 9.357 332.158 6.9062 333.934 4.61855C335.711 2.3309 339.086 0.206584 334.828 0.533391C330.571 0.860199 320.788 9.35693 320.788 12.7884C320.788 16.2199 320.247 14.5516 314.438 21.6759C309.791 27.3753 293.622 56.9443 286.119 71.0164C287.816 71.628 290.641 71.2712 291.841 71.0164C292.46 68.7436 294.048 65.5709 296.047 62.178Z" stroke="#FF7A7A" stroke-opacity="0.49"/>
<g clip-path="url(#clip0_37_1004)">
<path d="M96.4241 159.682C96.0031 162.984 92.7045 166.355 87.5102 169.446C88.0012 170.009 88.4229 170.57 88.7737 171.132C89.4759 172.116 87.9318 172.818 87.3699 172.045C87.0191 171.483 86.528 170.921 86.1064 170.359C74.455 176.962 54.9428 182.511 37.6769 184.338C31.6408 191.643 26.7279 200.494 23.8501 210.89C12.9712 250.719 67.1553 245.802 81.4039 210.048C95.3009 175.065 61.8215 174.925 48.2051 195.085C38.0978 209.907 45.046 218.969 51.9948 218.899C56.3466 218.828 57.7496 215.878 57.7496 215.878C54.942 217.704 51.5732 214.824 53.1874 211.733C54.1703 209.837 56.6272 209.907 58.1004 210.75C61.2588 212.647 60.0654 220.233 52.0642 220.444C45.1863 220.655 35.3596 212.647 45.3266 195.648C57.8198 174.293 96.0016 170.219 91.6499 199.511C85.1929 242.994 13.6719 258.869 16.9706 212.226C17.602 203.165 21.7432 193.611 27.9197 184.9C13.954 185.111 3.14527 182.021 2.09298 173.802C0.548114 161.368 18.5864 151.534 38.9412 151.534C48.6969 151.534 57.5407 153.08 65.1209 155.608C66.8755 155.046 68.5607 154.554 70.2443 154.203C87.7915 150.762 97.0562 155.187 96.4241 159.682ZM61.6819 156.872C55.2943 155.327 48.0648 154.485 40.345 154.765C23.0083 155.538 3.56618 163.757 3.98785 173.45C4.33862 181.248 15.0071 183.918 28.9742 183.355C37.5374 171.765 49.6097 161.86 61.6819 156.872ZM85.1242 169.236C81.9658 165.865 77.3335 162.704 71.6481 160.245C61.611 163.687 49.188 171.063 39.1509 182.583C55.7152 180.475 74.1751 175.206 85.1242 169.236ZM94.6695 159.823C94.9509 157.224 85.6153 156.099 74.2453 159.402C79.4388 162 83.6503 165.161 86.5982 168.393C91.3708 165.583 94.3889 162.633 94.6695 159.823Z" fill="white"/>
<path d="M128.92 212.928C122.321 222.412 115.303 223.114 112.005 219.25C109.899 221.92 107.232 225.011 104.003 227.821C98.1075 232.949 87.8599 233.089 89.6854 222.201C92.0012 208.293 106.53 198.458 114.391 198.81C119.936 199.091 122.604 202.955 116.778 212.367C115.304 214.755 113.409 217.284 112.918 218.057C113.479 219.04 114.252 219.813 115.445 220.094C120.288 221.288 124.429 217.144 127.938 212.367C128.569 211.524 129.481 212.156 128.92 212.928ZM118.111 205.061C118.111 205.061 118.672 203.094 117.971 202.04C117.058 200.916 115.163 200.495 112.355 202.251C105.547 206.536 96.3529 217.635 95.1596 225.572C94.4581 230.49 97.9672 230.911 103.933 225.994C106.109 224.168 108.846 220.796 111.093 217.846C110.039 215.668 109.268 211.945 111.163 208.082C112.425 205.553 116.005 202.462 118.111 205.061Z" fill="white"/>
<path d="M147.659 212.789C146.817 214.053 135.306 229.015 131.657 230.631C126.463 232.949 118.672 228.173 123.726 219.251C125.62 215.95 147.168 180.336 151.94 172.327H159.521C159.521 172.327 132.007 218.057 128.779 223.185C125.48 228.384 128.919 232.387 134.113 227.048C139.377 221.64 144.781 214.615 146.607 212.297C147.238 211.524 148.081 212.086 147.659 212.789Z" fill="white"/>
<path d="M180.014 212.928C173.416 222.412 166.398 223.114 163.099 219.25C160.994 221.92 158.326 225.011 155.098 227.821C149.202 232.949 138.954 233.089 140.78 222.201C143.096 208.293 157.625 198.458 165.486 198.81C171.031 199.091 173.698 202.955 167.872 212.367C166.398 214.755 164.504 217.284 164.012 218.057C164.574 219.04 165.346 219.813 166.539 220.094C171.382 221.288 175.524 217.144 179.033 212.367C179.663 211.524 180.575 212.156 180.014 212.928ZM169.205 205.061C169.205 205.061 169.767 203.094 169.065 202.04C168.152 200.916 166.257 200.495 163.45 202.251C156.642 206.536 147.447 217.635 146.254 225.572C145.553 230.49 149.062 230.911 155.028 225.994C157.203 224.168 159.941 220.796 162.187 217.846C161.134 215.668 160.362 211.945 162.257 208.082C163.521 205.553 167.1 202.462 169.205 205.061Z" fill="white"/>
<path d="M207.457 213.07C206.545 214.334 197.561 226.768 192.788 229.929C186.682 234.002 178.891 227.54 183.523 219.673C185.208 216.722 186.471 214.685 189.209 209.978C192.437 204.57 192.858 204.078 190.612 200.495C190.402 200.285 190.331 200.074 190.191 199.793C185.839 205.483 180.084 212.929 178.399 215.036C177.908 215.668 176.995 215.107 177.627 214.334C179.312 212.156 185.278 204.358 189.7 198.598C188.647 195.507 189.91 192.557 191.524 190.731C194.893 186.867 198.052 189.817 196.157 192.276C194.753 194.032 193.279 195.788 192.156 197.263C189.418 200.846 200.367 204.077 195.244 212.506C193.49 215.386 190.051 221.146 188.506 223.746C186.05 227.819 188.296 232.878 194.402 226.696C200.368 220.655 205.983 213.209 206.685 212.296C207.246 211.525 208.229 212.015 207.457 213.07Z" fill="white"/>
<path d="M226.336 212.789C225.494 214.053 213.983 229.015 210.334 230.631C205.14 232.949 197.35 228.173 202.403 219.251C204.298 215.95 225.845 180.336 230.618 172.327H238.198C238.198 172.327 210.685 218.057 207.456 223.185C204.157 228.384 207.596 232.387 212.791 227.048C218.054 221.64 223.459 214.615 225.284 212.297C225.915 211.524 226.758 212.086 226.336 212.789Z" fill="white"/>
<path d="M252.024 212.929C251.041 214.614 243.671 225.151 237.495 228.945C230.757 233.019 218.123 232.317 219.316 220.586C220.72 207.661 234.266 198.739 242.548 198.739C248.233 198.739 251.251 204.289 241.144 211.946C235.88 215.95 230.686 216.933 227.388 217.074C226.334 219.532 225.703 222.202 225.773 224.871C225.914 229.858 232.512 230.631 238.758 226.136C244.794 221.851 250.549 213 251.04 212.437C251.743 211.595 252.516 212.156 252.024 212.929ZM228.09 215.668C230.617 215.387 234.126 214.614 238.337 212.156C248.374 206.466 248.023 197.615 240.443 202.392C236.583 204.851 231.108 209.768 228.09 215.668Z" fill="white"/>
<path d="M285.503 213.07C280.94 219.251 272.798 229.366 257.989 230.912C255.532 231.404 253.006 231.263 250.619 230.35C243.39 227.47 244.864 219.743 247.18 214.826C249.075 210.892 253.006 207.941 255.743 208.082C257.709 205.553 259.955 202.672 261.99 200.074C261.078 196.491 263.183 192.628 264.938 190.731C268.307 186.867 271.395 189.818 269.5 192.277C268.167 194.033 266.622 195.789 265.499 197.264C260.797 203.375 271.114 205.131 271.185 215.317C271.185 221.077 267.535 226.205 262.762 229.015C271.746 226.697 278.904 220.375 284.59 212.437C285.222 211.524 286.275 212.086 285.503 213.07ZM263.324 219.883C266.131 213.771 266.061 208.011 262.622 201.689C262.552 201.549 262.481 201.409 262.412 201.267C260.657 203.656 258.691 206.114 256.937 208.433C257.217 208.574 257.499 208.785 257.779 209.065C260.026 211.734 257.779 218.197 251.463 218.619C246.55 218.97 245.918 224.519 248.094 226.767C252.163 231.052 260.025 226.978 263.324 219.883Z" fill="white"/>
<path d="M319.121 213.07C314.559 219.251 306.418 229.366 291.608 230.912C289.151 231.404 286.625 231.263 284.237 230.35C277.009 227.47 278.483 219.743 280.798 214.826C282.693 210.892 286.624 207.941 289.362 208.082C291.327 205.553 293.573 202.672 295.608 200.074C294.695 196.491 296.802 192.628 298.555 190.731C301.925 186.867 305.013 189.818 303.118 192.277C301.784 194.033 300.241 195.789 299.117 197.264C294.415 203.375 304.732 205.131 304.802 215.317C304.802 221.077 301.152 226.205 296.38 229.015C305.364 226.697 312.522 220.375 318.209 212.437C318.841 211.524 319.893 212.086 319.121 213.07ZM296.943 219.883C299.75 213.771 299.68 208.011 296.24 201.689C296.17 201.549 296.1 201.409 296.03 201.267C294.275 203.656 292.31 206.114 290.556 208.433C290.836 208.574 291.117 208.785 291.397 209.065C293.644 211.734 291.398 218.197 285.081 218.619C280.167 218.97 279.536 224.519 281.711 226.767C285.783 231.052 293.643 226.978 296.943 219.883Z" fill="white"/>
<path d="M492.553 154.414C490.237 154.485 488.974 153.711 488.974 153.711C482.447 159.472 471.357 174.013 463.285 189.256C444.264 225.433 445.598 238.218 454.371 239.341C462.092 240.255 469.181 233.862 471.006 231.544C471.638 230.772 472.409 231.404 471.989 232.036C471.147 233.3 464.549 241.378 453.951 240.465C443.142 239.482 436.474 225.011 452.126 196.983H431.21C420.19 209.206 407.626 224.66 386.57 234.775C335.474 259.221 321.997 198.669 368.391 175.98C396.677 162.141 418.014 192.207 388.957 218.759C372.182 234.072 362.987 227.329 361.934 221.429C360.39 213.14 366.637 211.453 368.813 212.858C370.287 213.771 371.199 216.16 369.796 217.775C367.479 220.375 363.619 218.338 364.251 215.107C364.251 215.107 362.425 217.775 363.549 221.499C365.233 226.978 374.989 230.841 389.518 215.387C416.33 186.727 391.062 160.736 359.969 192.628C327.332 226.065 354.564 252.829 387.483 229.155C398.221 221.429 409.732 210.47 422.927 196.982H415.277V195.226H424.611C426.647 193.189 428.682 191.082 430.788 188.904C446.51 172.537 468.9 155.608 488.904 152.306C488.904 152.306 490.026 151.534 493.255 151.534C497.045 151.534 496.414 154.344 492.553 154.414ZM486.587 154.063C466.373 157.997 444.195 182.864 433.596 194.314C433.315 194.665 433.034 194.946 432.824 195.226H453.108C453.741 194.172 454.372 193.049 455.073 191.995C466.654 173.24 480.341 159.191 486.587 154.063Z" fill="white"/>
<path d="M498.167 213.14C493.114 219.884 483.918 231.334 466.442 231.193C464.406 231.193 462.301 230.49 460.687 229.296L443.701 257.534H436.19L471.495 198.739H479.076L476.128 203.586C476.689 203.095 477.181 202.602 477.812 202.111C483.707 196.773 493.464 197.194 492.2 207.941C491.007 217.636 481.041 226.205 472.828 229.648C483.006 227.892 491.007 221.148 497.183 212.578C497.886 211.664 498.869 212.156 498.167 213.14ZM469.461 227.821C474.795 224.239 485.183 212.086 486.095 204.78C486.727 200.004 482.656 199.371 477.883 204.008C476.199 205.624 474.093 207.802 472.76 209.277L463.986 223.888C460.827 230.28 464.687 230.982 469.461 227.821Z" fill="white"/>
<path d="M532.348 213.14C527.295 219.884 518.1 231.334 500.624 231.193C498.588 231.193 496.482 230.49 494.868 229.296L477.882 257.534H470.372L505.677 198.739H513.257L510.309 203.586C510.871 203.095 511.362 202.602 511.994 202.111C517.889 196.773 527.645 197.194 526.382 207.941C525.188 217.636 515.222 226.205 507.01 229.648C517.186 227.892 525.188 221.148 531.365 212.578C532.068 211.664 533.05 212.156 532.348 213.14ZM503.642 227.821C508.976 224.239 519.363 212.086 520.276 204.78C520.908 200.004 516.836 199.371 512.064 204.008C510.379 205.624 508.274 207.802 506.94 209.277L498.167 223.888C495.008 230.28 498.869 230.982 503.642 227.821Z" fill="white"/>
<path d="M551.158 212.789C550.316 214.053 538.805 229.015 535.155 230.631C529.961 232.949 522.17 228.173 527.223 219.251C529.119 215.95 550.666 180.336 555.439 172.327H563.019C563.019 172.327 535.505 218.057 532.277 223.185C528.978 228.384 532.418 232.387 537.611 227.048C542.876 221.64 548.28 214.615 550.104 212.297C550.737 211.524 551.579 212.086 551.158 212.789Z" fill="white"/>
<path d="M576.846 212.929C575.863 214.614 568.494 225.151 562.317 228.945C555.579 233.019 542.945 232.317 544.138 220.586C545.542 207.661 559.088 198.739 567.37 198.739C573.055 198.739 576.073 204.289 565.967 211.946C560.702 215.95 555.509 216.933 552.21 217.074C551.157 219.532 550.526 222.202 550.596 224.871C550.737 229.858 557.334 230.631 563.581 226.136C569.617 221.851 575.372 213 575.863 212.437C576.565 211.595 577.337 212.156 576.846 212.929ZM552.911 215.668C555.438 215.387 558.948 214.614 563.159 212.156C573.196 206.466 572.845 197.615 565.264 202.392C561.404 204.851 555.93 209.768 552.911 215.668Z" fill="white"/>
</g>
<defs>
<clipPath id="clip0_37_1004">
<rect width="575" height="106" fill="white" transform="translate(2 151.534)"/>
</clipPath>
</defs>
</svg>
