<svg width="28" height="28" viewBox="0 0 28 28" fill="none" xmlns="http://www.w3.org/2000/svg">
<path d="M22.4583 3.20801H5.54159C4.25292 3.20801 3.20825 4.25268 3.20825 5.54134V22.458C3.20825 23.7467 4.25292 24.7913 5.54159 24.7913H22.4583C23.7469 24.7913 24.7916 23.7467 24.7916 22.458V5.54134C24.7916 4.25268 23.7469 3.20801 22.4583 3.20801Z" stroke="#E6E6E6" stroke-width="0.5" stroke-linecap="round" stroke-linejoin="round"/>
<path d="M20.6208 8.69141C21.3457 8.69141 21.9333 8.10378 21.9333 7.37891C21.9333 6.65403 21.3457 6.06641 20.6208 6.06641C19.896 6.06641 19.3083 6.65403 19.3083 7.37891C19.3083 8.10378 19.896 8.69141 20.6208 8.69141Z" stroke="#E6E6E6" stroke-width="0.5" stroke-linecap="round" stroke-linejoin="round"/>
<path d="M14 18.8125C16.6579 18.8125 18.8125 16.6579 18.8125 14C18.8125 11.3421 16.6579 9.1875 14 9.1875C11.3421 9.1875 9.1875 11.3421 9.1875 14C9.1875 16.6579 11.3421 18.8125 14 18.8125Z" stroke="#E6E6E6" stroke-width="0.5" stroke-linecap="round" stroke-linejoin="round"/>
</svg>
