<svg width="830" height="410" viewBox="0 0 830 410" fill="none" xmlns="http://www.w3.org/2000/svg" xmlns:xlink="http://www.w3.org/1999/xlink">
<g clip-path="url(#clip0_35_797)">
<rect width="830" height="410" fill="url(#pattern0_35_797)"/>
<path d="M307.391 188.12L276.059 176.184L241.376 205.521L247.214 221.193H292.968L307.391 188.12Z" fill="#F1DBCC"/>
<path d="M303.257 244.688L293.325 227.169H247.835L288.162 330.036L335.562 246.704L303.257 244.688Z" fill="#F1DBCC"/>
<path d="M142.694 40.3477L177.693 0.912109H260.235L273 58.7295L193.825 126.478L154.851 132.665L152.553 70.4169L142.694 40.3477Z" fill="#F1DBCC"/>
<path d="M131.744 39.085L168.308 0.207031V-7.19841H-1.09058V128.413L68.7981 85.8321V144.613L147.481 132.579L144.241 74.2612L131.744 39.085Z" fill="#F1DBCC"/>
<path d="M195.717 134.653L155.955 140.636L166.796 349.923L269.429 364.67L281.816 333.998L218.156 172.206L195.717 134.653Z" fill="#F1DBCC"/>
<path d="M147.518 142.806L82.1301 153.268L62.252 333.739L154.842 347.863L147.518 142.806Z" fill="#F1DBCC"/>
<path d="M74.1716 155.188L1.95045 163.254L1.03488 324.677H11.7377L14.256 304.495H57.0283L74.1716 155.188Z" fill="#F1DBCC"/>
<path d="M17.0589 324.973L18.9746 310.028H55.6801L52.1352 331.375L17.0589 324.973Z" fill="#F1DBCC"/>
<path d="M52.9505 350.949L0.308609 340.811V410.107H61.234L57.6446 399.688L43.7947 390.874L52.9505 350.949Z" fill="#F1DBCC"/>
<path d="M51.3845 387.917L58.8047 353.074L132.361 362.753L128.812 409.854H66.8701L63.3213 396.95L51.3845 387.917Z" fill="#F1DBCC"/>
<path d="M192.932 372.036L138.812 365.271L134.695 409.979H182.05L192.932 372.036Z" fill="#F1DBCC"/>
<path d="M186.661 410.189L198.289 373.176L228.52 376.47L220.962 410.189H186.661Z" fill="#F1DBCC"/>
<path d="M225.83 410.297L232.658 377.72C242.867 378.305 265.079 379.593 272.257 380.061C279.436 380.529 301.908 385.718 312.247 388.254L306.2 410.297H225.83Z" fill="#F1DBCC"/>
<path d="M405.742 407.571C402.303 407.326 344.945 396.005 316.697 390.376L310.862 417.09H449.343V410.335C449.343 408.37 447.501 405.422 446.58 404.194C434.4 405.422 409.181 407.817 405.742 407.571Z" fill="#F1DBCC"/>
<path d="M279.027 365.661L302.387 318.941L412.598 337.509L403.314 391.117L279.027 365.661Z" fill="#F1DBCC"/>
<path d="M412.021 390.786L421.119 339.348L522.248 342.497L527.847 381.339L412.021 390.786Z" fill="#F1DBCC"/>
<path d="M505.542 229.403L455.019 235.466L422.977 329.166L521.511 332.711L505.542 236.799V229.403Z" fill="#F1DBCC"/>
<path d="M452.752 404.286L456.525 412.64H536.016L533.321 395.663L452.752 404.286Z" fill="#F1DBCC"/>
<path d="M448.757 234.126L389.214 175.41C383.215 182.185 370.647 196.551 368.364 199.812C366.081 203.073 326.104 276.451 306.4 312.732L415.244 327.408L448.757 234.126Z" fill="#F1DBCC"/>
<path d="M385.081 170.908L338.519 125.297L279.513 172.389L314.017 184.552L297.386 225.014L306.57 240.156L336.618 241.86C344.009 228.24 359.551 200.049 362.592 196.248C365.632 192.447 378.851 177.771 385.081 170.908Z" fill="#F1DBCC"/>
<path d="M334.271 120.846L276.733 65.0879L203.567 131.642C210.846 142.954 225.699 165.874 226.88 167.054C228.06 168.235 235.416 188.971 238.946 199.192L334.271 120.846Z" fill="#F1DBCC"/>
<path d="M320.027 33.0625C313.393 37.6115 291.515 53.9136 281.406 61.4961L338.41 116.819L408.976 58.6648L406.037 15.7658C401.693 14.4233 391.678 11.359 386.371 9.84266C379.737 7.94724 375.472 8.18408 364.098 9.84266C352.725 11.5013 328.32 27.3763 320.027 33.0625Z" fill="#F1DBCC"/>
<path d="M426.424 87.1689L410.552 63.6064L342.876 122.048L355.763 135.216L426.424 87.1689Z" fill="#F1DBCC"/>
<path d="M456.962 132.046L428.44 91.1006L358.298 138.03L388.544 168.115L401.16 154.043L456.962 132.046Z" fill="#F1DBCC"/>
<path d="M404.079 158.551L393.02 171.736L453.206 230.434L506.374 223.415L513.18 149.193L459.799 135.369L404.079 158.551Z" fill="#F1DBCC"/>
<path d="M432.06 88.4229L459.844 36.707L537.22 72.9283C530.283 86.6474 516.16 115.017 515.166 118.745C514.172 122.472 513.509 137.382 513.302 144.371L459.844 129.628L432.06 88.4229Z" fill="#F1DBCC"/>
<path d="M455.444 35.0078L411.18 17.9023L413.297 60.755L429.344 84.7384L455.444 35.0078Z" fill="#F1DBCC"/>
<path d="M506.063 48.4365C492.377 41.5933 441.707 20.8749 418.083 11.3711C429.488 9.09004 451.619 0.373715 461.258 -3.69931H573.677L538.648 65.5441C533.489 62.6929 519.749 55.2797 506.063 48.4365Z" fill="#F1DBCC"/>
<path d="M520.074 119.444C520.906 115.702 534.109 88.775 540.607 75.7793L549.184 79.158L569.197 122.303L526.312 147.254L517.475 144.395C517.995 137.638 519.242 123.187 520.074 119.444Z" fill="#F1DBCC"/>
<path d="M592.084 173.299L570.262 127.138L530.815 150.917L551.238 188.966L592.084 173.299Z" fill="#F1DBCC"/>
<path d="M525.433 152.714L516.897 150.793L509.57 235.367L514.426 265.041L563.154 247.547L568.367 229.794L525.433 152.714Z" fill="#F1DBCC"/>
<path d="M577.083 273.687L564.363 252.062L516.909 269.986L535.262 378.849L581.523 361.501L615.966 323.789L588.814 275.666L577.083 273.687Z" fill="#F1DBCC"/>
<path d="M582.106 42.7354L561.635 31.3096L544.734 68.2055L555.208 73.4423L575.203 117.955L617.574 95.8178L582.106 42.7354Z" fill="#F1DBCC"/>
<path d="M572.632 226.896L553.874 192.13L593.825 176.816L612.88 216.302L619.653 223.144L587.139 237.401L572.632 226.896Z" fill="#F1DBCC"/>
<path d="M622.931 226.007L590.37 240.726L597.284 261.02L592.823 274.401L619.808 320.789L670.21 268.826L622.931 226.007Z" fill="#F1DBCC"/>
<path d="M586.882 241.659L571.924 231.995L566.496 249.469L579.337 270.517L589.53 271.576L593.236 261.383L586.882 241.659Z" fill="#F1DBCC"/>
<path d="M638.857 135.913L600.057 173.308L617.509 212.073L643.518 236.126L677.121 178.182L638.857 135.913Z" fill="#F1DBCC"/>
<path d="M680.744 97.8389L643.534 132.415L682.674 176.336L715.559 204.225L743.241 164.264L707.747 136.366L680.744 97.8389Z" fill="#F1DBCC"/>
<path d="M711.24 209.558L681.016 181.704L647.237 238.597L672.917 263.092L711.24 209.558Z" fill="#F1DBCC"/>
<path d="M587.622 372.724L537.867 395.37L542.441 421.008L619.004 416.633L742.323 319.422L702.229 245.077L587.622 372.724Z" fill="#F1DBCC"/>
<path d="M768.088 368.058L743.608 323.294L625.753 416.319H696.396L768.088 368.058Z" fill="#F1DBCC"/>
<path d="M779.161 389.206L769.959 372.203L701.547 417.211L780.761 416.211L779.161 389.206Z" fill="#F1DBCC"/>
<path d="M753.093 223.421L734.187 190.986L702.512 234.905L710.909 253.216L753.093 223.421Z" fill="#F1DBCC"/>
<path d="M755.107 228.483L713.647 257.235L745.4 316.491L749.677 313.638H805.994L755.107 228.483Z" fill="#F1DBCC"/>
<path d="M750.078 317.306L747.051 319.575L782.302 385.762V389.018L834.856 365.252L839.107 317.306H750.078Z" fill="#F1DBCC"/>
<path d="M832.861 368.336L783.391 391.539L784.812 412.217H832.861V368.336Z" fill="#F1DBCC"/>
<path d="M751.559 169.522C749.809 170.796 741.149 182.253 737.038 187.822L812.536 313.025H833.661C811.002 268.771 765.165 179.349 763.096 175.689C761.028 172.029 758.786 165.544 757.924 162.759C756.532 164.483 753.31 168.249 751.559 169.522Z" fill="#F1DBCC"/>
<path d="M278.017 54.2746L263.736 -2.57311L413.835 -5.37305L407.115 9.18888C403.847 8.06873 396.473 5.60441 393.113 4.70829C388.912 3.58814 385.272 1.06781 369.31 1.90792C353.347 2.74803 335.705 14.7896 329.264 17.31C324.112 19.3262 292.953 42.7931 278.017 54.2746Z" fill="#F1DBCC"/>
<path d="M61.3936 93.2002L-0.520004 130.55V152.758L61.3936 145.692V93.2002Z" fill="#F1DBCC"/>
<path d="M564.006 26.3266L581.965 -10.4595L602.989 -16.0352L677.49 93.9693C665.364 104.64 640.065 126.854 635.874 130.346C631.684 133.839 608.519 156.441 597.46 167.306L577.671 123.071L623.493 97.8443L586.02 39.3615L564.006 26.3266Z" fill="#F1DBCC"/>
<path d="M706.95 127.75L613.623 -10.8549L677.424 -12.4443L688.219 9.36658V26.3306L727.822 113.284L706.95 127.75Z" fill="#F1DBCC"/>
<path d="M693.094 7.53974L687.991 -1.98467L690.608 -3.40625C691.436 -1.69927 693.62 2.8797 695.729 7.53974C698.364 13.3648 726.028 81.7294 727.948 85.3567C729.484 88.2586 746.064 132.522 754.162 154.292L746.159 161.293L710.102 131.019L732.893 114.691L693.094 24.8879V7.53974Z" fill="#F1DBCC"/>
<path d="M769.18 162.829C765.612 158.37 723.263 50.3317 702.534 -3.12988H842.204V309.992C819.349 262.796 772.748 167.288 769.18 162.829Z" fill="#F1DBCC"/>
<path d="M416.524 10.4541L409.643 8.7334L415.449 -4.81443L455.448 -3.30885C451.835 -1.07237 427.994 6.79832 416.524 10.4541Z" fill="#F1DBCC"/>
<path d="M-16.7776 141.754C27.6636 113.148 121.961 50.2152 143.619 27.3305C165.278 4.4458 174.779 -5.70247 176.823 -7.91602" stroke="#CAB2A3" stroke-width="10"/>
<rect x="-2.13428" y="105.685" width="131.426" height="35.6166" transform="rotate(-35.5114 -2.13428 105.685)" fill="#CAB2A3"/>
<path d="M691.279 -16.0352C714.802 42.166 763.012 160.751 767.668 169.48C772.324 178.21 815.198 276.909 836.054 325.167" stroke="#CAB2A3" stroke-width="10"/>
<path d="M815.732 100.139C796.175 118.35 753.529 155.813 746.074 165.762C735.445 179.946 683.4 258.431 668.363 275.203C656.333 288.621 606.497 338.883 585.291 363.559L534.586 386.852L407.547 399.672C369.863 391.708 290.065 375.08 272.35 372.283C250.205 368.787 22.934 337.318 13.0274 334.987C5.102 333.123 -3.87221 329.937 -7.36865 328.577" stroke="#CAB2A3" stroke-width="10"/>
<rect x="810.442" y="325.568" width="136.643" height="35.6166" transform="rotate(-110.589 810.442 325.568)" fill="#CAB2A3"/>
<rect x="602.735" y="299.318" width="161.857" height="34.2171" transform="rotate(-46.7949 602.735 299.318)" fill="#CAB2A3"/>
<path d="M19.2087 120.871L20.8262 119.694L20.2521 118.905L21.8437 117.747L21.2603 116.945L22.0625 116.362L21.5826 115.702L19.1887 117.443L15.5939 112.5L19.5793 109.601L19.0994 108.941L13.4964 113.016L12.8095 112.072L18.4124 107.997L17.2549 106.405L18.1995 105.718L19.357 107.31L24.9471 103.244L25.634 104.189L20.044 108.254L20.524 108.914L24.5224 106.006L28.1172 110.949L25.7104 112.7L26.1904 113.36L26.9926 112.776L27.5761 113.579L29.1806 112.412L29.7547 113.201L31.3463 112.043L32.0427 113.001L30.3087 114.262L29.7159 113.447L28.1113 114.614L27.5278 113.811L26.7385 114.386L26.1551 113.583L25.3528 114.167L24.7787 113.377L24.1188 113.857L27.0361 117.869L26.0915 118.556L23.1742 114.544L22.5143 115.024L23.0883 115.814L22.299 116.388L22.8824 117.19L22.0802 117.773L22.6636 118.576L21.0591 119.743L21.6519 120.558L19.9051 121.828L19.2087 120.871ZM20.7463 111.206L20.2663 110.546L17.2125 112.767L17.6924 113.427L20.7463 111.206ZM24.7447 108.298L24.2647 107.638L21.2109 109.859L21.6909 110.519L24.7447 108.298ZM26.4856 110.692L25.4222 109.23L22.3684 111.451L23.4318 112.913L26.4856 110.692ZM22.4872 113.6L21.4238 112.137L18.37 114.358L19.4334 115.821L22.4872 113.6ZM31.6087 105.957L30.9487 106.437L32.6897 108.831L31.7321 109.527L29.8877 106.991L30.7029 106.398L29.5454 104.807L30.3476 104.223L29.8677 103.563L28.2502 104.74L27.5632 103.795L29.1807 102.619L26.8563 99.4225L27.788 98.7449L30.1124 101.941L31.7169 100.774L32.3004 101.576L34.5519 99.939L33.4885 98.4767L31.8969 99.6343L31.21 98.6896L32.8016 97.5321L31.6441 95.9405L32.5887 95.2536L33.7462 96.8452L35.1954 95.7912L34.0379 94.1996L34.9826 93.5126L36.1401 95.1042L37.7317 93.9467L38.4186 94.8913L36.827 96.0488L37.8904 97.511L40.2843 95.7701L40.9619 96.7017L36.9635 99.6096L37.4434 100.27L40.6395 97.9451L44.2344 102.888L43.4451 103.462L43.925 104.122L45.5166 102.965L46.213 103.922L44.4791 105.183L43.8956 104.381L43.0933 104.964L42.5005 104.149L39.4466 106.37L40.0395 107.185L39.2372 107.769L39.8207 108.571L38.0867 109.832L37.3904 108.874L38.982 107.717L38.502 107.057L37.7127 107.631L34.1178 102.688L36.5117 100.947L36.0318 100.287L32.8356 102.612L32.2616 101.822L30.7994 102.886L31.2793 103.546L32.0816 102.962L32.6556 103.751L33.4579 103.168L34.7283 104.915L33.7837 105.602L32.6168 103.997L31.9569 104.477L36.6245 110.895L35.6929 111.573L31.6087 105.957ZM36.9458 98.198L35.8824 96.7358L34.4332 97.7898L35.4966 99.252L36.9458 98.198ZM40.8748 100.227L40.3948 99.5673L38.1304 101.214L38.6103 101.874L40.8748 100.227ZM37.6786 102.552L37.1987 101.892L35.7365 102.955L36.2164 103.615L37.6786 102.552ZM42.6252 102.634L41.5618 101.172L39.2973 102.819L40.3607 104.281L42.6252 102.634ZM39.429 104.958L38.3656 103.496L36.9034 104.56L37.9668 106.022L39.429 104.958ZM54.9757 96.0855L51.5878 91.4271L49.181 93.1775L45.5862 88.2345L47.1907 87.0675L46.6167 86.2782L47.4189 85.6947L46.8355 84.8925L47.7672 84.2149L48.4447 85.1466L47.6424 85.73L48.1224 86.39L51.3185 84.0656L54.9134 89.0086L52.5195 90.7496L53.5829 92.2118L55.0451 91.1484L54.4617 90.3461L56.1956 89.0851L56.8826 90.0297L55.291 91.1872L56.3544 92.6494L57.1437 92.0753L57.7178 92.8647L58.52 92.2812L59.2164 93.2388L58.2718 93.9257L57.6789 93.1105L56.8896 93.6846L56.3061 92.8823L55.5039 93.4658L54.9204 92.6635L54.2605 93.1434L56.0203 95.5632L55.218 96.1466L55.8014 96.9489L54.0675 98.2099L53.3711 97.2524L54.9757 96.0855ZM46.5683 96.3042L44.1615 98.0546L43.4745 97.1099L44.2897 96.5171L43.7063 95.7148L44.5086 95.1313L43.9345 94.342L44.7238 93.768L44.2439 93.108L43.4546 93.6821L42.8711 92.8798L42.0688 93.4633L41.4854 92.661L40.6702 93.2539L39.9832 92.3092L40.9408 91.6129L41.5242 92.4151L42.1841 91.9352L41.6007 91.1329L42.39 90.5589L41.2325 88.9673L42.1771 88.2803L43.4381 90.0142L42.6359 90.5977L43.2193 91.4L42.4171 91.9834L42.897 92.6434L43.6993 92.0599L44.2827 92.8622L44.9427 92.3822L43.7757 90.7777L44.7204 90.0907L45.9908 91.8376L45.1885 92.4211L45.6685 93.081L46.4707 92.4975L47.6282 94.0891L48.4176 93.5151L49.001 94.3174L51.4078 92.567L53.2523 95.1032L52.4501 95.6867L53.0335 96.4889L52.2312 97.0724L52.8241 97.8876L51.0902 99.1486L48.6528 95.7972L49.4551 95.2137L48.9751 94.5538L48.1729 95.1373L47.5894 94.335L46.9295 94.8149L51.0137 100.431L50.0691 101.118L46.5683 96.3042ZM51.5538 86.3477L51.0738 85.6877L47.2178 88.4921L47.6977 89.152L51.5538 86.3477ZM53.2947 88.7415L52.2408 87.2923L48.3847 90.0966L49.4387 91.5459L53.2947 88.7415ZM46.6836 94.7761L45.6202 93.3139L44.9603 93.7938L45.5438 94.5961L44.7415 95.1796L45.2214 95.8395L46.6836 94.7761ZM45.8084 100.319L46.6236 99.7262L45.4567 98.1216L46.3883 97.4441L47.6494 99.178L46.86 99.752L48.0364 101.37L47.0788 102.066L45.8084 100.319ZM51.9854 97.0336L51.4113 96.2442L52.2136 95.6608L51.1502 94.1986L49.688 95.262L51.3254 97.5135L51.9854 97.0336ZM73.5021 72.8388L75.896 71.0978L72.4047 66.2971L73.3493 65.6101L76.8406 70.4108L77.5006 69.9309L76.9171 69.1286L81.0449 66.1266L81.7225 67.0583L77.7241 69.9662L78.3075 70.7685L77.5182 71.3425L77.9981 72.0024L78.7875 71.4284L80.5378 73.8352L81.3401 73.2517L82.4976 74.8434L83.2999 74.2599L83.8833 75.0622L84.5433 74.5822L83.9598 73.78L84.7492 73.2059L83.5916 71.6143L84.5363 70.9273L85.7973 72.6613L84.995 73.2447L85.5879 74.0599L84.7985 74.634L85.382 75.4363L84.4374 76.1232L83.8539 75.321L83.0517 75.9044L82.4588 75.0892L81.6695 75.6633L80.5025 74.0587L79.7003 74.6422L77.9593 72.2483L77.157 72.8318L76.5736 72.0295L74.1797 73.7704L73.5021 72.8388ZM72.5752 74.9374L71.9152 75.4173L72.4987 76.2196L71.7093 76.7936L72.2928 77.5959L71.3353 78.2923L70.6483 77.3477L71.4635 76.7548L70.88 75.9525L71.6823 75.3691L70.5248 73.7775L71.3141 73.2034L70.1472 71.5989L70.9495 71.0154L69.2085 68.6215L70.1531 67.9346L71.9976 70.4708L71.1953 71.0542L78.1874 80.6686L77.2428 81.3555L72.5752 74.9374ZM76.8619 65.7066L76.0596 66.2901L75.382 65.3584L76.3266 64.6714L76.9007 65.4608L77.7029 64.8773L78.9734 66.6242L78.0288 67.3112L76.8619 65.7066ZM80.5709 61.5848L85.3587 58.1028L84.7752 57.3006L85.7198 56.6136L86.3033 57.4159L91.8933 53.3505L94.3212 56.689L93.3766 57.3759L91.6263 54.9691L82.1801 61.8389L83.9305 64.2457L82.9988 64.9233L80.5709 61.5848ZM83.9035 62.8211L92.0427 56.9019L94.4706 60.2404L87.276 65.4727L88.3394 66.9349L96.3233 61.1285L99.3441 65.2822L98.4125 65.9598L97.829 65.1575L90.7768 70.2863L91.3602 71.0886L90.4156 71.7755L83.9035 62.8211ZM92.839 59.9827L91.785 58.5334L85.5351 63.0788L86.5891 64.528L92.839 59.9827ZM97.1326 64.2L96.0692 62.7377L89.017 67.8665L90.0804 69.3287L97.1326 64.2ZM95.3153 53.2952L96.247 52.6177L101.489 59.8252L105.345 57.0208L98.3621 47.4194L99.3067 46.7325L106.289 56.3338L110.935 52.9554L105.693 45.7479L106.638 45.0609L113.733 54.8176L112.789 55.5046L111.612 53.8871L102.166 60.7568L103.343 62.3743L102.411 63.0519L95.3153 53.2952Z" fill="black"/>
<path d="M90.5477 110.872L92.5477 110.874L92.5489 109.898L94.5169 109.901L94.5182 108.909L95.5102 108.91L95.5112 108.094L92.5512 108.09L92.5588 101.978L97.4868 101.984L97.4878 101.168L90.5598 101.16L90.5613 99.9917L97.4893 100L97.4917 98.0323L98.6597 98.0337L98.6573 100.002L105.569 100.01L105.568 101.178L98.6558 101.17L98.6548 101.986L103.599 101.992L103.591 108.104L100.615 108.1L100.614 108.916L101.606 108.917L101.605 109.909L103.589 109.912L103.588 110.888L105.556 110.89L105.554 112.074L103.41 112.072L103.411 111.064L101.427 111.061L101.429 110.069L100.453 110.068L100.454 109.076L99.462 109.075L99.4632 108.099L98.6472 108.098L98.641 113.058L97.473 113.056L97.4792 108.096L96.6632 108.095L96.662 109.071L95.686 109.07L95.6847 110.062L94.6927 110.061L94.6915 111.053L92.7075 111.05L92.7062 112.058L90.5462 112.056L90.5477 110.872ZM97.4843 103.968L97.4853 103.152L93.7093 103.148L93.7083 103.964L97.4843 103.968ZM102.428 103.974L102.429 103.158L98.6533 103.154L98.6523 103.97L102.428 103.974ZM102.425 106.934L102.427 105.126L98.6509 105.122L98.6486 106.93L102.425 106.934ZM97.4806 106.928L97.4829 105.12L93.7069 105.116L93.7046 106.924L97.4806 106.928ZM108.353 100.014L121.361 100.03L121.345 113.086L120.193 113.085L120.194 112.093L109.49 112.079L109.489 113.071L108.337 113.07L108.353 100.014ZM120.196 110.909L120.208 101.197L109.504 101.183L109.492 110.895L120.196 110.909Z" fill="black"/>
<path d="M529.305 315.862L540.345 315.876L540.327 329.908L539.159 329.907L539.161 328.915L530.441 328.904L530.439 329.896L529.287 329.894L529.305 315.862ZM539.169 321.795L539.175 317.027L530.455 317.016L530.449 321.784L539.169 321.795ZM539.162 327.731L539.168 322.963L530.448 322.952L530.442 327.72L539.162 327.731ZM552.042 314.899L553.21 314.9L553.201 321.812L554.017 321.813L554.019 320.837L555.987 320.839L555.988 319.847L556.98 319.849L556.981 318.857L558.133 318.858L558.132 320.026L557.156 320.025L557.154 321.001L556.162 321L556.161 321.992L554.177 321.989L554.176 322.981L553.2 322.98L553.193 328.74L557.945 328.746L557.95 324.794L559.118 324.795L559.113 328.939L558.121 328.938L558.119 329.93L553.015 329.924L553.017 328.932L552.025 328.931L552.042 314.899ZM544.106 327.737L546.106 327.739L546.122 314.891L547.274 314.893L547.268 319.837L551.22 319.842L551.218 320.994L547.266 320.989L547.258 327.741L548.074 327.742L548.075 326.766L551.211 326.77L551.21 327.922L548.25 327.918L548.249 328.926L544.105 328.921L544.106 327.737ZM561.926 317.871L563.894 317.873L563.896 316.881L564.888 316.883L564.889 315.907L565.881 315.908L565.882 314.916L567.034 314.917L567.033 316.069L566.057 316.068L566.055 317.06L565.063 317.059L565.062 318.051L564.07 318.05L564.069 319.042L561.925 319.039L561.926 317.871ZM571.799 317.067L570.823 317.066L570.825 316.074L569.833 316.073L569.834 314.921L570.986 314.922L570.985 315.914L571.977 315.915L571.976 316.891L572.968 316.893L572.966 317.885L574.934 317.887L574.933 319.055L572.789 319.052L572.79 318.06L571.798 318.059L571.799 317.067ZM560.912 322.814L562.912 322.816L562.913 321.824L564.881 321.827L564.883 320.851L565.875 320.852L565.876 319.86L566.868 319.861L566.869 318.869L567.845 318.87L567.846 317.878L569.014 317.88L569.013 318.872L570.005 318.873L570.004 319.865L570.98 319.866L570.979 320.858L571.971 320.859L571.969 321.835L573.953 321.838L573.952 322.83L575.92 322.832L575.919 324L573.775 323.998L573.776 323.006L571.792 323.003L571.793 322.011L570.817 322.01L570.818 321.018L569.826 321.017L569.828 320.041L568.836 320.039L568.837 319.047L568.021 319.046L568.02 320.038L567.028 320.037L567.026 321.013L566.05 321.012L566.049 322.004L565.057 322.003L565.056 322.995L563.072 322.992L563.071 323.984L560.911 323.982L560.912 322.814ZM563.887 323.809L572.959 323.821L572.951 329.949L571.783 329.947L571.785 328.955L565.049 328.947L565.047 329.939L563.879 329.937L563.887 323.809ZM571.786 327.771L571.79 324.987L565.054 324.979L565.05 327.763L571.786 327.771ZM587.609 328.783L587.616 323.023L584.64 323.019L584.648 316.907L586.632 316.91L586.633 315.934L587.625 315.935L587.626 314.943L588.778 314.944L588.777 316.096L587.785 316.095L587.784 316.911L591.736 316.916L591.728 323.028L588.768 323.024L588.766 324.832L590.574 324.835L590.575 323.843L592.719 323.845L592.718 325.013L590.75 325.011L590.747 326.819L591.723 326.82L591.722 327.796L592.714 327.797L592.713 328.981L591.545 328.98L591.546 327.972L590.57 327.971L590.571 326.979L589.579 326.977L589.58 325.985L588.764 325.984L588.761 328.976L587.769 328.975L587.767 329.967L585.623 329.964L585.625 328.78L587.609 328.783ZM580.687 324.006L577.711 324.003L577.712 322.835L578.72 322.836L578.721 321.844L579.713 321.845L579.715 320.869L580.691 320.87L580.692 320.054L579.716 320.053L579.717 319.061L578.725 319.06L578.726 318.068L577.718 318.067L577.72 316.899L578.904 316.9L578.902 317.892L579.718 317.893L579.72 316.901L580.696 316.902L580.698 314.934L581.866 314.936L581.863 317.08L580.871 317.078L580.87 318.07L579.878 318.069L579.877 318.885L580.869 318.886L580.868 319.878L581.684 319.879L581.686 317.895L582.854 317.897L582.852 320.057L581.86 320.056L581.859 320.872L582.851 320.873L582.848 322.841L583.824 322.842L583.823 323.834L586.799 323.838L586.795 326.974L585.803 326.973L585.802 327.965L584.81 327.963L584.809 328.971L582.665 328.969L582.67 324.825L583.662 324.826L583.663 324.01L582.671 324.009L582.672 323.017L581.856 323.016L581.847 329.96L580.679 329.958L580.687 324.006ZM590.581 318.899L590.582 318.083L585.814 318.077L585.813 318.893L590.581 318.899ZM590.577 321.859L590.58 320.067L585.812 320.061L585.809 321.853L590.577 321.859ZM581.68 322.839L581.682 321.031L580.866 321.03L580.865 322.022L579.873 322.021L579.872 322.837L581.68 322.839ZM577.707 326.803L578.715 326.804L578.718 324.82L579.87 324.821L579.867 326.965L578.891 326.964L578.889 328.964L577.705 328.963L577.707 326.803ZM584.634 327.787L584.635 326.811L585.627 326.812L585.63 325.004L583.822 325.002L583.818 327.786L584.634 327.787ZM530.823 342.768L531.815 342.769L531.817 341.777L532.793 341.779L532.795 339.795L533.739 339.796L533.741 337.828L534.717 337.829L534.72 335.845L535.696 335.846L535.698 333.862L536.674 333.863L536.676 332.887L537.796 332.889L537.783 342.777L538.759 342.778L538.758 343.93L537.782 343.929L537.779 345.929L536.659 345.927L536.662 343.927L530.822 343.92L530.823 342.768ZM536.663 342.775L536.672 336.023L535.872 336.022L535.869 337.99L534.893 337.989L534.891 339.973L533.915 339.972L533.912 341.956L532.936 341.955L532.935 342.771L536.663 342.775ZM543.067 339.967L542.251 339.966L542.25 340.958L540.09 340.956L540.091 339.788L542.091 339.79L542.092 338.798L544.06 338.801L544.062 337.825L546.046 337.827L546.047 337.011L541.103 337.005L541.104 335.837L545.056 335.842L545.057 335.026L544.065 335.025L544.066 334.033L542.098 334.03L542.1 332.878L550.004 332.888L550.005 331.896L553.141 331.9L553.139 333.052L550.163 333.048L550.162 334.04L548.194 334.038L548.192 335.846L550 335.848L550.001 334.856L550.977 334.857L550.978 333.865L552.146 333.867L552.145 335.035L551.153 335.033L551.152 335.849L555.104 335.854L555.103 337.022L550.159 337.016L550.158 337.832L551.15 337.833L551.148 338.809L552.14 338.811L552.139 339.803L555.099 339.806L555.098 340.974L553.13 340.972L553.122 346.924L551.954 346.922L551.955 345.93L544.227 345.921L544.226 346.913L543.058 346.911L543.067 339.967ZM547.024 335.844L547.026 334.036L545.234 334.034L545.233 334.85L546.209 334.851L546.208 335.843L547.024 335.844ZM550.971 339.801L550.972 338.985L549.996 338.984L549.997 337.992L549.005 337.991L549.007 337.015L548.191 337.014L548.187 339.798L550.971 339.801ZM547.019 339.796L547.021 337.988L546.205 337.987L546.204 338.979L544.236 338.977L544.235 339.793L547.019 339.796ZM551.961 341.786L551.962 340.97L548.186 340.966L548.185 341.782L551.961 341.786ZM547.017 341.78L547.018 340.964L544.234 340.961L544.233 341.777L547.017 341.78ZM551.957 344.746L551.959 342.938L548.183 342.934L548.181 344.742L551.957 344.746ZM547.013 344.74L547.015 342.932L544.231 342.929L544.229 344.737L547.013 344.74ZM557.883 339.81L559.035 339.811L559.029 344.755L563.797 344.761L563.804 339.001L558.876 338.995L558.882 333.875L560.034 333.877L560.03 337.845L563.805 337.849L563.813 331.913L564.981 331.915L564.973 337.851L568.749 337.855L568.754 333.887L569.922 333.889L569.916 339.009L564.972 339.003L564.965 344.763L569.733 344.769L569.739 339.825L570.891 339.826L570.882 346.946L569.73 346.945L569.731 345.953L559.027 345.939L559.026 346.931L557.874 346.93L557.883 339.81ZM574.69 333.895L587.698 333.911L587.682 346.967L586.53 346.966L586.531 345.974L575.827 345.96L575.826 346.952L574.674 346.951L574.69 333.895ZM586.533 344.79L586.545 335.078L575.841 335.064L575.829 344.776L586.533 344.79Z" fill="black"/>
<path d="M608.133 370.405L615.716 362.381L625.914 372.019L625.112 372.868L624.391 372.186L618.402 378.524L619.123 379.206L618.332 380.043L608.133 370.405ZM619.216 367.296L615.751 364.021L609.761 370.359L613.227 373.634L619.216 367.296ZM623.53 371.373L620.065 368.098L614.076 374.436L617.541 377.711L623.53 371.373ZM623.028 353.199L623.83 352.35L628.854 357.098L629.414 356.504L628.705 355.834L630.057 354.404L629.336 353.722L630.017 353.001L629.296 352.32L630.087 351.483L630.936 352.285L630.266 352.994L630.975 353.665L630.294 354.386L631.015 355.067L629.652 356.509L630.373 357.19L629.703 357.9L633.889 361.856L637.153 358.402L634.281 355.688L635.083 354.839L638.095 357.685L637.414 358.406L638.135 359.088L634.629 362.797L633.908 362.116L633.227 362.837L623.028 353.199ZM626.926 367.78L628.3 366.326L618.962 357.502L619.753 356.664L623.346 360.06L626.061 357.188L626.898 357.979L624.184 360.851L629.091 365.489L629.652 364.896L628.942 364.226L631.096 361.946L631.933 362.738L629.9 364.889L630.633 365.581L627.787 368.593L626.926 367.78ZM631.971 348.045L633.323 346.615L632.602 345.934L633.283 345.213L632.574 344.542L633.255 343.821L632.534 343.14L633.325 342.303L634.162 343.094L633.492 343.803L634.213 344.485L633.532 345.206L634.253 345.887L633.571 346.608L634.292 347.289L632.82 348.848L631.971 348.045ZM638.158 340.31L637.488 341.019L636.767 340.338L636.086 341.059L635.248 340.268L636.04 339.43L636.761 340.112L637.442 339.391L638.151 340.061L638.833 339.34L639.554 340.021L640.905 338.591L641.754 339.393L640.282 340.952L639.561 340.27L638.879 340.991L638.158 340.31ZM634.872 352.174L636.246 350.72L635.525 350.039L636.876 348.608L636.167 347.938L636.848 347.217L636.127 346.536L636.809 345.815L636.088 345.133L636.758 344.424L636.037 343.743L636.839 342.894L637.56 343.575L638.242 342.854L638.963 343.536L639.633 342.826L640.354 343.507L641.035 342.786L641.745 343.457L643.107 342.015L643.828 342.696L645.18 341.266L646.029 342.068L644.556 343.626L643.835 342.945L642.473 344.387L641.752 343.706L641.081 344.415L640.36 343.734L639.679 344.455L638.97 343.784L638.288 344.505L637.567 343.824L637.007 344.417L637.728 345.098L637.046 345.819L637.756 346.49L637.085 347.199L637.806 347.88L637.125 348.601L637.846 349.283L636.483 350.725L637.204 351.406L635.721 352.976L634.872 352.174ZM637.637 350.692L643.868 344.099L648.322 348.308L647.52 349.156L646.799 348.475L642.172 353.371L642.893 354.052L642.091 354.901L637.637 350.692ZM645.938 347.662L643.915 345.75L639.288 350.645L641.311 352.558L645.938 347.662ZM657.528 336.842L653.341 332.886L651.297 335.049L646.855 330.851L648.218 329.409L647.508 328.739L648.19 328.018L647.469 327.336L648.26 326.499L649.097 327.29L648.416 328.011L649.009 328.572L651.723 325.699L656.166 329.897L654.132 332.049L655.447 333.291L656.688 331.976L655.967 331.295L657.44 329.737L658.289 330.539L656.937 331.969L658.251 333.211L658.922 332.502L659.631 333.172L660.312 332.451L661.173 333.264L660.371 334.113L659.638 333.421L658.968 334.13L658.247 333.449L657.565 334.17L656.844 333.489L656.284 334.082L658.458 336.137L657.777 336.858L658.498 337.539L657.025 339.097L656.165 338.284L657.528 336.842ZM649.304 338.603L647.26 340.766L646.411 339.963L647.103 339.231L646.382 338.549L647.063 337.828L646.354 337.158L647.024 336.449L646.431 335.888L645.761 336.598L645.04 335.916L644.359 336.637L643.638 335.956L642.945 336.689L642.096 335.886L642.91 335.026L643.631 335.707L644.191 335.114L643.47 334.433L644.141 333.723L642.71 332.372L643.512 331.523L645.071 332.995L644.389 333.716L645.11 334.398L644.429 335.119L645.022 335.679L645.703 334.958L646.424 335.639L646.985 335.046L645.543 333.684L646.345 332.835L647.915 334.318L647.234 335.039L647.827 335.6L648.508 334.879L649.938 336.231L650.609 335.521L651.33 336.203L653.374 334.04L655.653 336.193L654.972 336.914L655.693 337.596L655.011 338.317L655.744 339.009L654.271 340.567L651.26 337.721L651.941 337L651.348 336.44L650.666 337.161L649.945 336.479L649.385 337.072L654.432 341.842L653.63 342.691L649.304 338.603ZM652.374 327.899L651.781 327.339L648.506 330.804L649.099 331.365L652.374 327.899ZM654.525 329.932L653.223 328.702L649.948 332.167L651.25 333.398L654.525 329.932ZM649.136 337.079L647.822 335.838L647.262 336.431L647.983 337.112L647.301 337.833L647.894 338.394L649.136 337.079ZM649.295 342.689L649.987 341.956L648.545 340.593L649.336 339.756L650.895 341.229L650.224 341.938L651.678 343.312L650.865 344.172L649.295 342.689ZM654.763 338.324L654.053 337.653L654.735 336.932L653.42 335.691L652.179 337.005L654.202 338.917L654.763 338.324ZM661.621 329.902L660.929 330.634L659.37 329.162L660.184 328.301L661.626 329.664L662.296 328.954L663.005 329.625L664.928 327.59L664.219 326.919L664.9 326.198L662.865 324.275L662.184 324.996L661.463 324.315L659.43 326.466L658.581 325.664L660.614 323.513L659.905 322.842L660.586 322.121L658.551 320.198L657.87 320.919L657.149 320.238L655.226 322.273L655.947 322.954L655.276 323.664L656.718 325.026L655.905 325.887L654.335 324.403L655.027 323.671L654.306 322.989L654.988 322.268L654.278 321.598L656.432 319.319L657.142 319.989L657.812 319.28L658.533 319.961L659.214 319.24L661.494 321.394L660.812 322.115L661.533 322.796L660.863 323.506L661.456 324.066L662.126 323.357L662.847 324.038L663.529 323.317L665.808 325.471L665.127 326.192L665.848 326.873L665.177 327.583L665.91 328.275L663.756 330.554L663.023 329.862L662.342 330.583L661.621 329.902ZM666.166 319.315L665.605 319.908L666.326 320.589L664.843 322.159L663.994 321.357L665.368 319.904L664.647 319.222L665.998 317.792L665.289 317.121L666.652 315.68L666.059 315.119L662.663 318.712L661.814 317.91L664.528 315.038L663.935 314.477L663.254 315.198L662.533 314.517L661.181 315.947L660.344 315.156L665.773 309.411L665.052 308.73L667.206 306.451L668.043 307.242L665.999 309.405L666.72 310.086L665.368 311.517L666.682 312.759L667.924 311.444L667.203 310.763L667.873 310.054L667.152 309.372L667.955 308.524L668.804 309.326L668.122 310.047L668.715 310.607L671.43 307.735L672.279 308.537L668.883 312.13L669.476 312.691L670.157 311.97L670.867 312.64L671.548 311.919L672.269 312.601L674.302 310.449L675.151 311.251L673.799 312.682L678.125 316.77L677.323 317.619L676.602 316.937L671.294 322.554L672.015 323.236L671.213 324.085L666.166 319.315ZM665.88 313.607L664.566 312.366L663.335 313.668L663.928 314.229L664.599 313.519L665.32 314.201L665.88 313.607ZM671.467 313.45L670.874 312.889L670.203 313.598L669.482 312.917L668.801 313.638L668.092 312.968L667.531 313.561L669.555 315.473L671.467 313.45ZM668.752 316.322L667.438 315.08L666.878 315.673L667.599 316.354L666.247 317.785L666.84 318.345L668.752 316.322ZM673.59 314.091L672.997 313.531L670.404 316.275L670.997 316.836L673.59 314.091ZM670.194 317.685L669.601 317.124L667.689 319.148L668.282 319.708L670.194 317.685ZM675.741 316.124L674.427 314.882L671.834 317.627L673.148 318.869L675.741 316.124ZM672.346 319.718L671.032 318.476L669.119 320.499L670.434 321.741L672.346 319.718ZM676.214 308.426L677.005 307.589L680.599 310.984L683.874 307.519L679.687 303.563L676.303 307.144L672.581 303.628L673.373 302.79L676.256 305.516L678.85 302.771L674.536 298.694L675.338 297.845L679.652 301.923L682.246 299.178L679.362 296.453L680.164 295.604L683.885 299.12L680.49 302.714L684.676 306.67L687.951 303.205L684.357 299.809L685.149 298.972L690.324 303.862L689.532 304.699L688.811 304.018L681.459 311.798L682.18 312.479L681.389 313.316L676.214 308.426ZM683.439 292.138L692.373 282.684L701.863 291.651L701.071 292.489L700.35 291.807L692.998 299.587L693.719 300.269L692.928 301.106L683.439 292.138ZM699.49 290.994L692.431 284.324L685.079 292.103L692.138 298.774L699.49 290.994Z" fill="black"/>
<path d="M749.859 267.835L753.811 267.84L753.814 265.04L748.87 265.034L748.871 263.882L762.871 263.899L762.87 265.051L757.926 265.045L757.923 267.845L761.875 267.85L761.862 277.93L760.71 277.928L760.711 276.936L750.999 276.924L750.998 277.916L749.846 277.915L749.859 267.835ZM756.771 267.843L756.774 265.043L754.966 265.041L754.963 267.841L756.771 267.843ZM760.713 275.752L760.716 272.968L757.756 272.965L757.757 271.973L756.765 271.971L756.769 268.995L754.961 268.993L754.957 271.969L753.965 271.968L753.964 272.96L752.988 272.959L752.987 273.935L751.995 273.933L751.994 274.925L751.002 274.924L751.001 275.74L760.713 275.752ZM751.819 273.773L751.82 272.781L752.812 272.782L752.814 271.79L753.806 271.792L753.809 268.992L751.009 268.988L751.003 273.772L751.819 273.773ZM760.718 271.8L760.721 269L757.921 268.997L757.918 271.797L760.718 271.8ZM766.166 264.879L779.174 264.895L779.158 277.951L778.006 277.95L778.007 276.958L767.303 276.944L767.302 277.936L766.15 277.935L766.166 264.879ZM778.009 275.774L778.021 266.062L767.317 266.048L767.305 275.76L778.009 275.774Z" fill="black"/>
<path d="M735.797 170.994L741.859 171.002L741.862 168.412L742.884 168.413L742.881 171.003L748.929 171.011L748.928 172.033L735.796 172.016L735.797 170.994ZM738.389 180.517L738.39 179.649L740.994 179.653L740.995 178.799L741.849 178.8L741.85 178.072L740.996 178.071L740.997 177.217L740.129 177.216L740.13 176.348L739.262 176.347L739.263 175.479L738.395 175.477L738.396 174.609L737.682 174.609L737.681 175.477L735.791 175.474L735.793 174.452L737.543 174.454L737.544 173.6L739.266 173.603L739.267 172.735L740.289 172.736L740.288 173.744L739.42 173.743L739.418 175.325L740.286 175.326L740.285 176.194L741.139 176.195L741.137 177.063L742.005 177.064L742.004 177.932L742.718 177.933L742.719 177.065L743.587 177.066L743.589 176.198L744.457 176.199L744.458 175.331L745.312 175.332L745.313 174.464L746.181 174.465L746.182 173.751L745.314 173.75L745.315 172.742L746.337 172.743L746.336 173.611L747.204 173.612L747.203 174.466L748.057 174.468L748.055 175.49L747.047 175.488L747.048 174.62L746.334 174.619L746.333 175.487L745.465 175.486L745.464 176.354L744.596 176.353L744.595 177.221L743.741 177.22L743.74 178.074L742.872 178.073L742.871 178.801L743.739 178.802L743.738 179.656L745.46 179.658L745.459 180.526L748.917 180.531L748.916 181.567L745.304 181.562L745.305 180.694L743.583 180.692L743.584 179.81L742.716 179.809L742.717 178.941L742.003 178.94L742.002 179.808L741.134 179.807L741.133 180.689L738.543 180.686L738.542 181.554L735.784 181.55L735.785 180.514L738.389 180.517ZM753.095 175.496L752.381 175.495L752.38 176.363L750.49 176.361L750.492 175.339L752.242 175.341L752.243 174.473L753.965 174.475L753.966 173.621L755.702 173.623L755.703 172.909L751.377 172.904L751.378 171.882L754.836 171.886L754.837 171.172L753.969 171.171L753.97 170.303L752.248 170.301L752.249 169.293L759.165 169.301L759.166 168.433L761.91 168.437L761.909 169.445L759.305 169.442L759.304 170.31L757.582 170.307L757.58 171.889L759.162 171.891L759.163 171.023L760.017 171.024L760.018 170.156L761.04 170.158L761.039 171.18L760.171 171.179L760.17 171.893L763.628 171.897L763.627 172.919L759.301 172.914L759.3 173.628L760.168 173.629L760.167 174.483L761.035 174.484L761.034 175.352L763.624 175.355L763.622 176.377L761.9 176.375L761.894 181.583L760.872 181.581L760.873 180.713L754.111 180.705L754.11 181.573L753.088 181.572L753.095 175.496ZM756.558 171.888L756.56 170.306L754.992 170.304L754.991 171.018L755.845 171.019L755.844 171.887L756.558 171.888ZM760.012 175.35L760.012 174.636L759.158 174.635L759.16 173.767L758.292 173.766L758.293 172.912L757.579 172.911L757.576 175.347L760.012 175.35ZM756.554 175.346L756.556 173.764L755.842 173.763L755.84 174.631L754.118 174.629L754.118 175.343L756.554 175.346ZM760.877 177.087L760.878 176.373L757.574 176.369L757.573 177.083L760.877 177.087ZM756.551 177.082L756.552 176.368L754.116 176.365L754.115 177.079L756.551 177.082ZM760.874 179.677L760.876 178.095L757.572 178.091L757.57 179.673L760.874 179.677ZM756.548 179.672L756.55 178.09L754.114 178.087L754.112 179.669L756.548 179.672Z" fill="#6F2526"/>
<path d="M784.387 200.399L784.768 201.333L777.547 204.277L779.123 208.14L788.742 204.218L789.128 205.164L779.509 209.087L781.407 213.741L788.628 210.796L789.014 211.742L779.239 215.729L778.853 214.782L780.474 214.121L776.614 204.658L774.994 205.319L774.613 204.386L784.387 200.399ZM783.249 222.817L787.112 221.242L784.823 215.628L785.769 215.243L788.058 220.856L790.314 219.936L788.686 215.943L789.632 215.557L791.26 219.55L792.725 218.952L791.097 214.96L792.03 214.579L793.986 219.375L794.79 219.048L796.154 222.392L795.221 222.773L793.915 219.571L791.646 220.496L793.28 224.502L792.334 224.888L790.7 220.882L788.444 221.802L790.728 227.402L789.782 227.788L787.498 222.188L783.479 223.827L783.152 223.023L782.348 223.351L781.312 220.81L782.271 220.419L783.249 222.817ZM789.784 238.84L794.451 236.936L793.467 234.525L798.419 232.506L799.075 234.113L799.866 233.791L800.193 234.594L800.997 234.267L801.378 235.2L800.444 235.581L800.117 234.777L799.455 235.046L800.761 238.248L795.809 240.268L794.831 237.87L793.366 238.467L793.964 239.932L794.768 239.604L795.476 241.341L794.53 241.727L793.879 240.133L792.415 240.73L792.737 241.521L791.946 241.844L792.274 242.647L791.315 243.039L790.929 242.092L791.746 241.759L791.423 240.968L792.227 240.641L791.899 239.837L792.703 239.509L792.433 238.848L790.009 239.837L789.681 239.033L788.877 239.361L788.169 237.624L789.128 237.232L789.784 238.84ZM791.358 231.651L790.374 229.24L791.321 228.854L791.654 229.671L792.457 229.343L792.785 230.147L793.576 229.824L793.898 230.615L794.56 230.345L794.237 229.554L795.041 229.227L794.713 228.423L795.517 228.095L795.184 227.278L796.13 226.893L796.521 227.852L795.717 228.18L795.987 228.841L796.791 228.513L797.113 229.304L798.708 228.653L799.094 229.6L797.357 230.308L797.029 229.504L796.225 229.832L795.897 229.029L795.236 229.298L795.564 230.102L794.76 230.43L795.03 231.091L796.637 230.435L797.023 231.382L795.273 232.095L794.945 231.292L794.284 231.561L794.612 232.365L793.018 233.015L793.34 233.806L792.536 234.134L793.52 236.545L790.979 237.581L790.651 236.777L789.847 237.105L789.52 236.302L788.703 236.635L787.995 234.898L791.352 233.528L791.68 234.332L792.341 234.062L792.013 233.259L792.817 232.931L792.547 232.27L786.921 234.564L786.535 233.618L791.358 231.651ZM798.773 237.971L799.434 237.701L797.859 233.838L797.198 234.108L798.773 237.971ZM796.375 238.949L797.827 238.357L796.251 234.493L794.799 235.086L796.375 238.949ZM792.632 232.069L794.097 231.471L793.827 230.81L793.023 231.138L792.695 230.334L792.034 230.604L792.632 232.069ZM788.106 230.165L788.439 230.982L790.046 230.326L790.427 231.26L788.69 231.968L788.367 231.177L786.747 231.838L786.356 230.879L788.106 230.165ZM789.604 236.101L790.395 235.778L790.723 236.582L792.188 235.985L791.59 234.52L789.335 235.44L789.604 236.101ZM807.09 256.064L808.718 260.056L809.379 259.787L807.09 254.174L808.023 253.793L810.313 259.406L811.116 259.078L811.502 260.025L810.699 260.352L812.983 265.953L812.049 266.333L809.765 260.733L809.104 261.003L810.738 265.008L805.786 267.028L802.138 258.083L807.09 256.064ZM807.111 260.712L807.772 260.442L806.524 257.383L805.863 257.653L807.111 260.712ZM808.744 264.718L809.406 264.448L808.158 261.389L807.497 261.658L808.744 264.718ZM804.713 261.69L806.177 261.093L804.93 258.033L803.465 258.631L804.713 261.69ZM806.346 265.696L807.811 265.098L806.563 262.039L805.098 262.636L806.346 265.696ZM802.783 261.555L803.491 263.292L802.687 263.62L803.015 264.424L802.082 264.804L801.696 263.858L802.499 263.53L801.849 261.936L802.783 261.555ZM801.323 260.275L801.709 261.222L799.311 262.2L801.209 266.854L802.803 266.203L803.189 267.15L801.439 267.863L801.112 267.06L800.308 267.387L798.294 262.448L799.097 262.121L798.769 261.317L801.323 260.275ZM798.751 258.527L799.078 259.331L800.673 258.681L801.054 259.614L799.317 260.323L798.989 259.519L797.368 260.18L796.988 259.246L798.751 258.527ZM804.263 267.483L804.643 268.416L803.84 268.744L804.168 269.548L802.417 270.261L802.032 269.315L803.652 268.654L803.329 267.864L804.263 267.483ZM816.996 273.494L817.381 274.44L811.781 276.724L812.051 277.385L812.842 277.062L813.492 278.657L814.296 278.329L814.624 279.133L815.427 278.805L815.808 279.738L814.862 280.124L814.539 279.334L813.748 279.656L813.421 278.852L812.617 279.18L811.961 277.573L811.158 277.901L810.835 277.11L806.168 279.013L807.738 282.863L810.94 281.557L811.326 282.504L807.969 283.873L807.641 283.069L806.837 283.397L805.151 279.262L805.954 278.934L805.627 278.13L816.996 273.494ZM803.969 271.322L804.63 272.943L815.039 268.697L815.42 269.63L811.414 271.264L812.72 274.466L811.787 274.847L810.481 271.645L805.01 273.876L805.28 274.537L806.071 274.215L807.107 276.755L806.174 277.136L805.196 274.738L804.379 275.071L803.01 271.713L803.969 271.322ZM809.52 284.934L809.853 285.75L810.644 285.428L810.972 286.232L811.776 285.904L812.098 286.694L812.759 286.425L811.776 284.014L812.722 283.628L814.033 286.843L814.837 286.515L815.165 287.319L815.826 287.049L814.187 283.03L815.12 282.65L817.087 287.472L817.748 287.202L816.442 284L817.389 283.614L819.017 287.607L819.678 287.338L817.722 282.541L818.668 282.155L820.625 286.952L822.219 286.301L822.605 287.248L821.011 287.898L822.967 292.694L822.02 293.08L820.064 288.284L819.403 288.553L821.037 292.559L820.09 292.945L818.129 288.136L817.468 288.405L820.08 294.809L819.146 295.19L816.207 287.982L815.403 288.31L815.08 287.519L814.419 287.789L815.995 291.652L816.799 291.324L817.179 292.258L816.376 292.585L817.681 295.787L816.735 296.173L815.429 292.971L812.214 294.283L811.886 293.479L811.083 293.807L810.047 291.266L811.006 290.875L811.989 293.286L815.049 292.038L813.145 287.371L812.354 287.694L812.027 286.89L811.223 287.218L810.895 286.414L810.091 286.742L809.769 285.951L808.952 286.284L808.561 285.325L809.52 284.934ZM812.754 288.302L813.134 289.235L812.331 289.563L812.658 290.367L811.725 290.747L811.344 289.814L812.148 289.486L811.82 288.683L812.754 288.302ZM815.072 298.545L815.405 299.362L816.999 298.711L817.38 299.645L815.785 300.295L816.055 300.956L817.649 300.306L818.035 301.252L816.441 301.903L816.711 302.564L818.305 301.913L818.686 302.847L816.949 303.555L816.626 302.764L815.965 303.034L816.557 304.486L819.616 303.238L817.66 298.442L825.011 295.444L827.025 300.383L826.091 300.764L825.441 299.169L823.976 299.767L824.627 301.361L823.68 301.747L823.03 300.153L822.369 300.422L823.019 302.017L822.086 302.398L821.436 300.803L819.971 301.4L820.949 303.799L817.747 305.105L818.016 305.766L827.622 301.848L829.309 305.983L824.37 307.998L823.72 306.403L822.255 307.001L822.582 307.804L820.171 308.788L820.494 309.578L818.899 310.229L819.227 311.032L818.268 311.424L817.882 310.477L818.686 310.15L818.363 309.359L819.983 308.698L819.656 307.894L822.054 306.916L821.726 306.112L823.334 305.457L823.064 304.796L818.255 306.757L817.932 305.966L816.312 306.627L815.926 305.681L816.729 305.353L816.46 304.692L815.656 305.02L814.62 302.479L816.24 301.818L815.971 301.157L814.35 301.818L813.969 300.885L815.59 300.224L815.32 299.563L813.7 300.223L813.309 299.264L815.072 298.545ZM824.923 306.684L827.995 305.431L827.07 303.162L823.997 304.415L824.923 306.684ZM823.59 298.82L825.055 298.223L824.458 296.758L822.993 297.356L823.59 298.82ZM821.983 299.476L822.644 299.206L822.047 297.742L821.386 298.011L821.983 299.476ZM819.585 300.454L821.05 299.857L820.452 298.392L818.987 298.989L819.585 300.454Z" fill="black"/>
<circle cx="80.0225" cy="105.515" r="5.2959" fill="black"/>
<circle cx="777.497" cy="253.349" r="5.2959" fill="black"/>
<rect x="203.092" y="132.311" width="28.5315" height="22.7171" transform="rotate(-38.4919 203.092 132.311)" fill="#8B1315"/>
<path d="M248.87 160.894H256.31V156.174H248.87V154.714H255.07V149.774H256.51V153.474H263.71V152.454H262.47V151.014H263.71V149.774H265.17V151.014H266.39V152.234H267.63V153.694H266.39V154.934H264.95V153.694H263.93V154.934H257.75V159.654H266.39V161.114H258.99V168.554H257.53V162.354H248.87V160.894ZM264.95 152.234V151.214H263.93V152.234H264.95ZM266.17 153.474V152.454H265.17V153.474H266.17ZM272.35 158.414H276.05V153.474H277.51V158.414H279.75V157.194H286.15V161.114H284.91V163.574H283.67V164.814H282.45V166.054H280.99V164.614H282.23V163.374H283.47V160.894H284.69V158.634H279.97V159.874H278.73V168.554H277.29V159.874H272.35V158.414ZM293.97 151.014H306.53V152.454H293.97V151.014ZM300.13 167.074V165.834H302.61V164.614H303.85V163.374H305.07V160.894H306.31V157.394H292.73V155.954H307.77V161.114H306.53V163.574H305.29V164.814H304.05V166.054H302.83V167.314H300.35V168.554H293.97V167.074H300.13ZM321.13 167.074V165.834H323.61V164.614H324.85V162.134H326.07V151.014H327.53V162.354H326.29V164.814H325.05V166.054H323.83V167.314H321.35V168.554H316.19V167.074H321.13ZM314.97 151.014H316.41V162.354H314.97V151.014ZM334.73 158.414H349.77V159.874H334.73V158.414ZM362.53 167.054V166.034H360.07V164.594H362.53V163.354H363.77V162.334H360.07V160.874H365.01V159.854H361.31V154.694H365.01V153.674H360.07V152.214H365.01V149.754H366.45V152.214H372.63V153.674H366.45V154.694H371.39V159.854H366.45V160.874H372.63V162.334H367.69V163.354H368.93V164.594H369.95V163.354H372.63V164.794H370.17V167.054H372.63V168.534H369.95V167.294H368.71V166.034H367.47V163.554H366.25V162.334H365.23V163.554H363.99V165.814H366.45V167.294H363.99V168.534H360.07V167.054H362.53ZM356.37 157.374H355.35V159.854H353.87V157.174H355.13V154.694H356.37V149.754H357.81V153.454H359.05V154.694H360.29V157.374H358.83V154.914H357.81V168.534H356.37V157.374ZM369.95 158.394V156.154H367.69V158.394H369.95ZM363.77 158.394V156.154H362.75V158.394H363.77ZM366.25 158.394V156.154H365.23V158.394H366.25ZM379.83 167.054V165.814H382.31V164.594H383.53V163.554H376.13V162.114H383.53V161.094H374.87V159.634H383.53V157.374H377.37V155.934H383.53V153.674H376.13V152.214H381.07V151.194H379.83V149.754H381.29V150.994H382.51V152.214H387.25V150.994H388.47V149.754H389.93V151.194H388.69V152.214H392.39V153.674H384.99V155.934H391.17V157.374H384.99V159.634H393.63V161.094H384.99V162.114H392.39V163.554H386.23V164.594H387.45V165.814H389.93V167.054H393.63V168.534H389.71V167.294H387.25V166.034H386.01V164.794H383.75V166.034H382.51V167.294H380.05V168.534H374.87V167.054H379.83ZM397.13 167.054V156.154H395.87V154.694H397.13V153.454H398.37V150.994H399.59V149.754H401.05V150.994H402.29V152.214H408.25V149.754H409.69V152.214H414.63V157.374H413.17V153.674H404.75V157.374H403.51V162.334H398.57V165.814H402.07V164.794H400.83V163.354H402.29V164.594H403.51V168.534H402.07V167.294H398.57V168.534H395.87V167.054H397.13ZM403.31 155.934V153.674H402.07V152.434H400.83V151.194H399.81V153.454H401.05V155.934H403.31ZM399.59 155.934V153.674H398.57V154.914H397.35V155.934H399.59ZM405.77 154.694H412.17V159.854H407.23V160.874H413.39V168.534H411.95V167.294H407.23V168.534H405.77V154.694ZM410.71 158.394V156.154H407.23V158.394H410.71ZM402.07 158.394V157.374H398.57V158.394H402.07ZM402.07 160.874V159.854H398.57V160.874H402.07ZM411.95 165.814V162.334H407.23V165.814H411.95Z" fill="#8B1315"/>
<path d="M246.379 152.473L218.816 135.579" stroke="#8B1315" stroke-width="2"/>
<circle cx="157.583" cy="127.914" r="4.40723" fill="#6F2526"/>
<circle cx="524.575" cy="379.741" r="4.40723" fill="#6F2526"/>
<circle cx="745.452" cy="188.081" r="4.40723" fill="#6F2526"/>
<circle cx="545.098" cy="371.927" r="4.40723" fill="black"/>
<circle cx="663.474" cy="299.053" r="4.40723" fill="black"/>
<circle cx="235.156" cy="110.146" r="4.40723" fill="#6F2526"/>
<circle cx="267.983" cy="388.556" r="4.40723" fill="#6F2526"/>
<path d="M150.49 72.5207H151.344V71.6667H152.212V69.9307H153.08V69.2167H152.212V68.3487H151.344V67.4807H150.49V66.4727H152.212V65.6047H153.08V64.8907H150.49V63.8687H153.948V61.2787H154.956V63.8687H158.414V64.8907H154.088V65.7587H153.234V66.6127H152.366V68.1947H153.234V69.0627H153.948V68.1947H154.802V67.3267H155.67V66.4727H156.692V67.4807H155.824V68.3487H154.956V69.2167H154.088V70.0847H153.234V71.8067H152.366V72.5207H153.948V71.6667H156.538V70.9387H155.67V69.9307H156.692V70.7987H157.546V72.5207H158.414V74.4247H157.392V72.6747H154.088V73.5567H150.49V72.5207ZM148.754 73.3887V69.2167H145.282V65.6047H148.754V63.1547H145.282V62.1467H149.776V66.6127H146.318V68.1947H149.776V73.5567H148.908V74.4247H146.164V73.3887H148.754ZM159.982 72.5207H161.732V71.6667H163.454V70.7987H165.19V70.0847H159.982V69.0627H166.044V68.3487H164.322V63.0007H165.19V62.1467H166.044V61.2787H167.066V62.2867H166.198V63.0007H168.788V68.3487H167.066V69.0627H173.114V70.0847H167.934V70.7987H169.656V71.6667H171.392V72.5207H173.114V73.5567H171.238V72.6747H169.502V71.8067H167.78V70.9387H167.066V74.4247H166.044V70.9387H165.33V71.8067H163.608V72.6747H161.872V73.5567H159.982V72.5207ZM162.586 64.0227H161.732V63.1547H160.864V62.1467H161.872V63.0007H162.74V63.8687H163.608V64.8907H162.586V64.0227ZM169.502 63.8687H170.37V63.0007H171.238V62.1467H172.246V63.1547H171.392V64.0227H170.524V64.8907H169.502V63.8687ZM167.78 64.7367V64.0227H165.33V64.7367H167.78ZM159.982 67.3267H161.732V66.4727H162.586V65.6047H163.608V66.6127H162.74V67.4807H161.872V68.3487H159.982V67.3267ZM169.502 65.6047H170.524V66.4727H171.392V67.3267H173.114V68.3487H171.238V67.4807H170.37V66.6127H169.502V65.6047ZM167.78 67.3267V65.7587H165.33V67.3267H167.78ZM174.682 68.1947H178.154V67.3267H179.89V66.6127H174.682V65.6047H180.744V64.8907H175.564V61.2787H180.898V64.7367H181.612V61.2787H186.946V64.8907H181.766V65.6047H187.814V66.6127H182.634V67.3267H184.356V68.1947H187.814V69.2167H184.202V68.3487H182.48V67.4807H181.612V66.6127H180.898V67.4807H180.03V68.3487H178.308V69.2167H174.682V68.1947ZM179.89 63.8687V62.2867H176.572V63.8687H179.89ZM185.938 63.8687V62.2867H182.634V63.8687H185.938ZM181.612 69.9307H186.946V74.4247H185.938V73.5567H182.634V74.4247H181.612V69.9307ZM175.564 69.9307H180.898V73.5567H176.572V74.4247H175.564V69.9307ZM185.938 72.5207V70.9387H182.634V72.5207H185.938ZM179.89 72.5207V70.9387H176.572V72.5207H179.89ZM189.382 69.9307H198.048V69.2167H191.132V64.7367H195.444V64.0227H190.264V63.0007H195.444V61.2787H196.466V63.0007H201.646V64.0227H196.466V64.7367H200.792V69.2167H199.056V69.9307H202.514V70.9387H199.056V73.5567H198.188V74.4247H195.444V73.3887H198.048V70.9387H189.382V69.9307ZM195.444 66.4727V65.7587H192.14V66.4727H195.444ZM199.77 66.4727V65.7587H196.466V66.4727H199.77ZM199.77 68.1947V67.4807H196.466V68.1947H199.77ZM195.444 68.1947V67.4807H192.14V68.1947H195.444ZM191.986 71.6667H193.876V72.5207H194.73V73.5567H193.722V72.6747H191.986V71.6667ZM215.744 73.3887V67.4807H211.432V61.2787H216.766V73.5567H215.898V74.4247H213.154V73.3887H215.744ZM204.516 61.2787H209.85V67.4807H205.524V74.4247H204.516V61.2787ZM208.842 63.8687V62.2867H205.524V63.8687H208.842ZM215.744 63.8687V62.2867H212.44V63.8687H215.744ZM215.744 66.4727V64.8907H212.44V66.4727H215.744ZM208.842 66.4727V64.8907H205.524V66.4727H208.842ZM219.216 72.5207H220.098V69.9307H220.966V63.0007H225.278V61.2787H226.3V63.0007H231.48V64.0227H226.3V66.4727H231.48V67.4807H226.3V69.0627H230.626V74.4247H229.604V73.5567H223.71V74.4247H222.688V69.0627H225.278V64.0227H221.974V70.0847H221.106V72.6747H220.252V74.4247H219.216V72.5207ZM229.604 72.5207V70.0847H223.71V72.5207H229.604ZM150.84 80.6187H151.876V81.4867H152.59V80.6187H153.598V81.4867H155.18V80.6187H156.188V81.4867H157.056V88.5707H156.048V81.6267H155.334V82.4947H154.466V88.5707H153.444V81.6267H152.73V82.4947H151.876V88.5707H150.84V80.6187ZM159.422 86.8207H158.54V80.6187H159.576V86.6807H160.43V87.5347H162.88V86.6807H163.748V80.6187H164.756V88.5707H163.748V87.6887H163.034V88.5707H160.29V87.6887H159.422V86.8207ZM166.24 85.8127H167.276V87.5347H171.448V85.0987H167.122V84.2307H166.24V81.4867H167.122V80.6187H171.588V81.4867H172.456V83.3627H171.448V81.6267H167.276V84.0767H171.588V84.9447H172.456V87.6887H171.588V88.5707H167.122V87.6887H166.24V85.8127ZM176.53 78.0147H177.552V79.9047H176.53V78.0147ZM176.53 80.6187H177.552V88.5707H176.53V80.6187ZM182.522 86.8207H181.64V82.3407H182.522V81.4867H183.39V80.6187H186.134V81.4867H186.988V82.3407H187.856V83.3627H186.848V82.4947H185.98V81.6267H183.53V82.4947H182.676V86.6807H183.53V87.5347H185.98V86.6807H186.848V85.8127H187.856V86.8207H186.988V87.6887H186.134V88.5707H183.39V87.6887H182.522V86.8207ZM189.34 80.6187H190.376V81.4867H191.09V80.6187H193.834V81.4867H194.688V82.3407H195.556V85.9527H194.688V86.8207H193.834V87.6887H191.09V86.8207H190.376V89.4387H189.34V80.6187ZM193.68 86.6807V85.8127H194.548V82.4947H193.68V81.6267H191.23V82.4947H190.376V85.8127H191.23V86.6807H193.68ZM199.63 78.0147H200.652V88.5707H199.63V78.0147ZM204.74 84.9447H205.622V84.0767H209.08V81.6267H205.776V83.3627H204.74V81.4867H205.622V80.6187H209.234V81.4867H210.088V87.5347H210.956V88.5707H209.948V87.6887H208.366V88.5707H205.622V87.6887H204.74V84.9447ZM208.212 87.5347V86.6807H209.08V85.0987H205.776V87.5347H208.212ZM212.44 86.6807H213.322V85.8127H214.19V84.9447H215.044V84.0767H215.912V83.2087H216.78V82.3407H217.648V81.6267H212.44V80.6187H218.656V82.4947H217.788V83.3627H216.934V84.2307H216.066V85.0987H215.198V85.9527H214.33V86.8207H213.476V87.5347H218.656V88.5707H212.44V86.6807ZM220.14 84.9447H221.022V84.0767H224.48V81.6267H221.176V83.3627H220.14V81.4867H221.022V80.6187H224.634V81.4867H225.488V87.5347H226.356V88.5707H225.348V87.6887H223.766V88.5707H221.022V87.6887H220.14V84.9447ZM223.612 87.5347V86.6807H224.48V85.0987H221.176V87.5347H223.612Z" fill="#6F2526"/>
<path d="M250.39 108.001H249.676V108.869H247.786V107.861H249.536V106.993H250.39V103.535H251.412V106.993H252.994V106.125H255.584V105.257H259.196V108.001H258.328V109.737H257.46V110.605H256.592V111.473H255.738V112.327H253.848V111.319H255.584V110.451H256.452V109.583H257.306V107.861H258.174V106.279H255.738V107.147H253.134V108.001H251.412V113.909H259.196V114.945H251.258V114.063H250.39V108.001ZM262.514 113.909H265.104V113.055H266.84V112.187H268.562V111.319H269.43V109.583H270.298V107.861H271.152V105.411H261.632V104.389H271.152V103.675H270.298V102.667H271.306V103.535H272.02V102.667H273.042V103.535H273.896V104.389H274.764V105.411H273.742V104.543H273.042V105.411H272.174V108.001H271.306V109.737H270.438V111.473H269.584V112.327H268.716V113.195H266.98V114.063H265.258V114.945H262.514V113.909ZM272.888 104.389V103.675H272.174V104.389H272.888ZM280.224 106.279H278.502V105.411H277.634V104.389H278.642V105.257H280.378V106.125H282.1V106.993H282.968V108.001H281.96V107.147H280.224V106.279ZM277.634 113.909H280.224V113.055H281.96V112.187H283.682V111.319H284.55V110.451H285.418V109.583H286.272V107.861H287.14V105.257H288.162V108.001H287.294V109.737H286.426V110.605H285.558V111.473H284.704V112.327H283.836V113.195H282.1V114.063H280.378V114.945H277.634V113.909ZM291.886 110.451H293.636V109.583H295.358V108.715H297.094V107.861H297.948V106.993H298.816V106.125H299.684V105.257H300.552V104.389H301.406V103.535H302.274V102.667H303.296V103.675H302.428V104.543H301.56V105.411H300.692V106.279H299.838V115.813H298.816V108.001H298.102V108.869H297.234V109.737H295.512V110.605H293.776V111.473H291.886V110.451ZM307.034 103.535H308.042V113.909H309.624V113.055H311.346V112.187H313.082V111.319H313.95V110.451H314.804V109.583H315.672V108.715H316.54V107.861H317.548V108.869H316.694V109.737H315.826V110.605H314.958V111.473H314.09V112.327H313.236V113.195H311.5V114.063H309.778V114.945H307.034V103.535ZM321.314 113.909H323.904V113.055H325.64V112.187H327.362V111.319H328.23V109.583H329.098V107.861H329.952V105.411H320.432V104.389H329.952V103.675H329.098V102.667H330.106V103.535H330.82V102.667H331.842V103.535H332.696V104.389H333.564V105.411H332.542V104.543H331.842V105.411H330.974V108.001H330.106V109.737H329.238V111.473H328.384V112.327H327.516V113.195H325.78V114.063H324.058V114.945H321.314V113.909ZM331.688 104.389V103.675H330.974V104.389H331.688ZM339.024 106.279H337.302V105.411H336.434V104.389H337.442V105.257H339.178V106.125H340.9V106.993H341.768V108.001H340.76V107.147H339.024V106.279ZM336.434 113.909H339.024V113.055H340.76V112.187H342.482V111.319H343.35V110.451H344.218V109.583H345.072V107.861H345.94V105.257H346.962V108.001H346.094V109.737H345.226V110.605H344.358V111.473H343.504V112.327H342.636V113.195H340.9V114.063H339.178V114.945H336.434V113.909Z" fill="#6F2526"/>
<path d="M157.468 393.12H156.754V393.988H154.864V392.98H156.614V392.112H157.468V388.654H158.49V392.112H160.072V391.244H162.662V390.376H166.274V393.12H165.406V394.856H164.538V395.724H163.67V396.592H162.816V397.446H160.926V396.438H162.662V395.57H163.53V394.702H164.384V392.98H165.252V391.398H162.816V392.266H160.212V393.12H158.49V399.028H166.274V400.064H158.336V399.182H157.468V393.12ZM169.592 399.028H172.182V398.174H173.918V397.306H175.64V396.438H176.508V394.702H177.376V392.98H178.23V390.53H168.71V389.508H178.23V388.794H177.376V387.786H178.384V388.654H179.098V387.786H180.12V388.654H180.974V389.508H181.842V390.53H180.82V389.662H180.12V390.53H179.252V393.12H178.384V394.856H177.516V396.592H176.662V397.446H175.794V398.314H174.058V399.182H172.336V400.064H169.592V399.028ZM179.966 389.508V388.794H179.252V389.508H179.966ZM187.302 391.398H185.58V390.53H184.712V389.508H185.72V390.376H187.456V391.244H189.178V392.112H190.046V393.12H189.038V392.266H187.302V391.398ZM184.712 399.028H187.302V398.174H189.038V397.306H190.76V396.438H191.628V395.57H192.496V394.702H193.35V392.98H194.218V390.376H195.24V393.12H194.372V394.856H193.504V395.724H192.636V396.592H191.782V397.446H190.914V398.314H189.178V399.182H187.456V400.064H184.712V399.028ZM198.964 395.57H200.714V394.702H202.436V393.834H204.172V392.98H205.026V392.112H205.894V391.244H206.762V390.376H207.63V389.508H208.484V388.654H209.352V387.786H210.374V388.794H209.506V389.662H208.638V390.53H207.77V391.398H206.916V400.932H205.894V393.12H205.18V393.988H204.312V394.856H202.59V395.724H200.854V396.592H198.964V395.57ZM214.112 388.654H215.12V399.028H216.702V398.174H218.424V397.306H220.16V396.438H221.028V395.57H221.882V394.702H222.75V393.834H223.618V392.98H224.626V393.988H223.772V394.856H222.904V395.724H222.036V396.592H221.168V397.446H220.314V398.314H218.578V399.182H216.856V400.064H214.112V388.654ZM228.392 399.028H230.982V398.174H232.718V397.306H234.44V396.438H235.308V394.702H236.176V392.98H237.03V390.53H227.51V389.508H237.03V388.794H236.176V387.786H237.184V388.654H237.898V387.786H238.92V388.654H239.774V389.508H240.642V390.53H239.62V389.662H238.92V390.53H238.052V393.12H237.184V394.856H236.316V396.592H235.462V397.446H234.594V398.314H232.858V399.182H231.136V400.064H228.392V399.028ZM238.766 389.508V388.794H238.052V389.508H238.766ZM246.102 391.398H244.38V390.53H243.512V389.508H244.52V390.376H246.256V391.244H247.978V392.112H248.846V393.12H247.838V392.266H246.102V391.398ZM243.512 399.028H246.102V398.174H247.838V397.306H249.56V396.438H250.428V395.57H251.296V394.702H252.15V392.98H253.018V390.376H254.04V393.12H253.172V394.856H252.304V395.724H251.436V396.592H250.582V397.446H249.714V398.314H247.978V399.182H246.256V400.064H243.512V399.028Z" fill="#6F2526"/>
<path d="M342.538 264.751V260.579H339.934V259.557H342.538V253.509H352.198V254.517H343.56V255.231H351.344V256.253H343.56V256.967H351.344V257.975H343.56V259.557H353.066V260.579H347.018V261.293H347.886V263.029H348.6V262.161H350.322V261.293H352.198V262.301H350.476V263.169H349.608V263.883H351.344V264.751H353.066V265.787H351.19V264.919H349.454V264.037H347.732V263.169H346.864V261.447H345.996V260.579H343.56V263.883H346.15V264.919H342.692V265.787H339.934V264.751H342.538ZM355.516 255.231H357.238V254.363H358.106V253.509H358.974V252.641H359.982V253.649H359.128V254.517H358.26V255.385H357.392V256.253H355.516V255.231ZM364.154 254.517H363.3V253.649H362.432V252.641H363.44V253.509H364.308V254.363H365.176V255.231H366.898V256.253H365.022V255.385H364.154V254.517ZM354.634 259.557H356.384V258.689H358.106V257.835H358.974V256.967H359.842V256.099H360.696V255.231H361.718V256.099H362.586V256.967H363.44V257.835H364.308V258.689H366.044V259.557H367.766V260.579H365.89V259.711H364.154V258.843H363.3V257.975H362.432V257.121H361.564V256.253H360.85V257.121H359.982V257.975H359.128V258.843H358.26V259.711H356.524V260.579H354.634V259.557ZM357.238 260.425H365.176V265.787H364.154V264.919H358.26V265.787H357.238V260.425ZM364.154 263.883V261.447H358.26V263.883H364.154ZM370.216 253.509H382.466V254.517H370.216V253.509ZM370.216 264.751V263.029H371.084V261.293H371.938V256.099H381.598V261.447H380.59V260.579H372.96V261.447H372.092V263.169H371.224V264.919H370.37V265.787H369.334V264.751H370.216ZM380.59 259.557V257.121H372.96V259.557H380.59ZM390.096 264.751V252.641H391.118V264.919H390.25V265.787H386.638V264.751H390.096ZM384.034 262.161H384.916V260.425H385.784V258.689H386.638V256.099H387.66V258.843H386.792V260.579H385.924V262.301H385.07V263.169H384.034V262.161ZM394.422 258.843H393.554V256.099H394.576V258.689H395.444V260.425H396.298V261.293H397.166V262.301H396.144V261.447H395.29V260.579H394.422V258.843ZM398.734 256.099H406.532V255.231H407.4V254.363H408.254V252.641H409.276V254.517H408.408V255.385H407.54V256.099H410.998V258.843H409.99V257.121H399.77V258.843H398.734V256.099ZM404.796 253.649H403.942V252.641H404.95V253.509H405.818V255.385H404.796V253.649ZM401.338 253.649H400.484V252.641H401.492V253.509H402.36V255.385H401.338V253.649ZM398.734 261.293H404.796V260.425H405.664V259.711H401.338V258.689H408.408V259.711H406.686V260.579H405.818V261.293H411.866V262.301H405.818V264.919H404.95V265.787H402.206V264.751H404.796V262.301H398.734V261.293ZM415.184 259.711H414.47V262.301H413.434V259.557H414.316V257.835H415.184V257.121H413.434V256.099H415.184V252.641H416.192V256.099H417.928V257.121H416.192V257.835H417.06V258.689H418.642V257.835H419.496V256.099H420.518V257.975H419.65V258.689H420.518V260.425H421.386V262.161H422.1V260.425H422.954V258.689H423.976V260.579H423.108V262.301H422.24V263.029H423.108V263.883H424.844V264.751H426.566V265.787H424.69V264.919H422.954V264.037H422.1V263.169H421.386V264.037H420.518V264.919H418.782V265.787H416.906V264.751H418.642V263.883H420.364V263.029H421.232V262.301H420.364V260.579H419.496V258.843H418.782V259.711H417.928V260.579H416.906V258.843H416.192V265.787H415.184V259.711ZM417.774 254.363H421.232V252.641H422.24V254.363H425.698V255.385H417.774V254.363ZM422.954 256.099H423.976V256.967H424.844V257.835H425.698V258.843H424.69V257.975H423.822V257.121H422.954V256.099Z" fill="#6F2526"/>
<path d="M442.086 362.76H445.544V360.31H441.218V359.302H453.468V360.31H449.142V362.76H452.6V371.58H451.592V370.712H443.094V371.58H442.086V362.76ZM448.134 362.76V360.31H446.552V362.76H448.134ZM451.592 369.676V367.24H449.002V366.372H448.134V363.768H446.552V366.372H445.684V367.24H444.83V368.094H443.962V368.962H443.094V369.676H451.592ZM443.808 367.954V367.086H444.676V366.218H445.544V363.768H443.094V367.954H443.808ZM451.592 366.218V363.768H449.142V366.218H451.592ZM457.234 370.544V365.35H458.242V370.544H459.824V363.768H455.484V362.76H462.414V361.178H457.234V360.156H462.414V358.434H463.436V362.76H468.616V363.768H464.29V366.218H465.158V368.822H466.026V369.676H466.894V370.544H467.594V367.954H468.616V370.712H467.748V371.58H466.74V370.712H465.872V369.83H465.004V368.962H464.15V366.372H463.282V363.768H460.832V366.218H462.568V367.24H460.832V369.676H463.436V370.712H459.978V371.58H455.484V370.544H457.234ZM465.004 359.302H466.026V360.156H466.894V361.024H467.748V362.046H466.74V361.178H465.872V360.31H465.004V359.302ZM471.934 364.636H471.22V366.372H470.184V364.482H471.066V362.76H471.934V361.024H472.788V358.434H473.81V361.178H472.942V371.58H471.934V364.636ZM475.392 359.302H482.448V360.31H475.392V359.302ZM474.524 361.024H483.316V362.046H474.524V361.024ZM475.392 362.76H482.448V363.768H475.392V362.76ZM475.392 364.482H482.448V365.504H475.392V364.482ZM475.392 366.218H482.448V371.58H481.44V370.712H476.4V371.58H475.392V366.218ZM481.44 369.676V367.24H476.4V369.676H481.44ZM485.752 369.676H486.62V359.302H497.134V370.712H496.28V371.58H493.536V370.544H496.126V366.372H491.954V370.712H490.932V366.372H487.628V369.83H486.76V371.58H485.752V369.676ZM496.126 362.76V360.31H491.954V362.76H496.126ZM490.932 362.76V360.31H487.628V362.76H490.932ZM496.126 365.35V363.768H491.954V365.35H496.126ZM490.932 365.35V363.768H487.628V365.35H490.932ZM503.056 370.544V369.83H502.188V367.954H503.21V369.676H504.078V370.544H505.646V367.24H501.334V366.218H505.646V363.768H503.056V362.914H502.342V363.768H501.474V364.636H499.584V363.628H501.334V362.76H502.188V361.892H503.056V361.024H503.924V360.156H504.792V359.302H505.646V358.434H506.668V359.302H507.536V360.156H508.39V361.024H509.258V361.892H510.126V362.76H510.994V363.628H512.716V364.636H510.84V363.768H509.972V362.914H509.258V363.768H506.668V366.218H510.994V367.24H506.668V370.544H508.25V369.676H509.104V367.954H510.126V369.83H509.258V370.544H511.848V371.58H500.466V370.544H503.056ZM509.104 362.76V362.046H508.25V361.178H507.382V360.31H506.514V359.442H505.8V360.31H504.932V361.178H504.078V362.046H503.21V362.76H509.104ZM514.284 368.822H515.166V360.156H520.346V358.434H521.368V360.156H527.416V361.178H522.236V361.892H526.548V362.914H522.236V363.628H525.694V368.094H522.236V368.822H527.416V369.83H522.236V371.58H521.214V369.83H516.034V368.962H515.32V371.58H514.284V368.822ZM521.214 368.822V368.094H517.756V363.628H521.214V362.914H516.888V361.892H521.214V361.178H516.174V368.822H521.214ZM521.214 365.35V364.636H518.778V365.35H521.214ZM524.672 365.35V364.636H522.236V365.35H524.672ZM521.214 367.086V366.372H518.778V367.086H521.214ZM524.672 367.086V366.372H522.236V367.086H524.672Z" fill="#6F2526"/>
<path d="M157.886 126.402L165.89 98.1328" stroke="#6F2526"/>
<path d="M545.583 370.573L551.895 353.267" stroke="black"/>
<path d="M64.2686 108.368V150.981L198.003 131.035M198.003 131.035L207.976 121.061M198.003 131.035L223.302 173.758L286.997 337.167L271.639 373.484L406.983 398.917L534.152 387.563L586.383 364.4L702.442 239.268L711.015 255.962L756.133 225.282L761.547 235.208" stroke="#8B1315" stroke-width="3"/>
<path d="M615.868 300.732L623.448 292.704L633.65 302.337L632.849 303.187L632.127 302.506L626.141 308.846L626.862 309.527L626.071 310.365L615.868 300.732ZM626.95 297.618L623.483 294.344L617.497 300.685L620.964 303.958L626.95 297.618ZM631.266 301.693L627.799 298.42L621.813 304.76L625.28 308.033L631.266 301.693ZM630.756 283.519L631.558 282.67L636.583 287.415L637.144 286.822L636.434 286.152L637.785 284.721L637.064 284.04L637.745 283.318L637.024 282.637L637.814 281.8L638.664 282.601L637.994 283.311L638.703 283.981L638.022 284.702L638.744 285.383L637.382 286.826L638.103 287.507L637.433 288.217L641.621 292.171L644.883 288.716L642.01 286.003L642.812 285.154L645.825 287.998L645.144 288.72L645.865 289.401L642.361 293.112L641.64 292.431L640.959 293.152L630.756 283.519ZM634.66 298.098L636.034 296.644L626.692 287.823L627.483 286.986L631.077 290.38L633.79 287.506L634.628 288.297L631.915 291.171L636.824 295.806L637.385 295.213L636.675 294.543L638.828 292.263L639.666 293.054L637.633 295.206L638.366 295.898L635.521 298.911L634.66 298.098ZM639.696 278.361L641.048 276.93L640.326 276.249L641.007 275.528L640.298 274.858L640.979 274.137L640.257 273.456L641.048 272.618L641.886 273.409L641.216 274.119L641.937 274.8L641.256 275.521L641.977 276.202L641.296 276.923L642.018 277.604L640.546 279.163L639.696 278.361ZM645.88 270.623L645.21 271.333L644.489 270.652L643.808 271.373L642.97 270.582L643.761 269.745L644.483 270.426L645.164 269.704L645.873 270.374L646.554 269.653L647.276 270.334L648.627 268.903L649.476 269.705L648.004 271.264L647.283 270.583L646.602 271.304L645.88 270.623ZM642.599 282.488L643.972 281.034L643.251 280.353L644.602 278.922L643.892 278.252L644.573 277.531L643.852 276.85L644.533 276.129L643.812 275.448L644.482 274.738L643.761 274.057L644.562 273.208L645.284 273.889L645.965 273.167L646.686 273.848L647.356 273.139L648.077 273.82L648.758 273.098L649.468 273.769L650.83 272.326L651.551 273.007L652.903 271.576L653.752 272.378L652.28 273.937L651.559 273.256L650.197 274.698L649.475 274.017L648.805 274.727L648.084 274.046L647.403 274.767L646.693 274.097L646.012 274.818L645.291 274.137L644.731 274.731L645.452 275.412L644.771 276.133L645.481 276.803L644.811 277.513L645.532 278.194L644.851 278.915L645.572 279.596L644.21 281.039L644.931 281.72L643.449 283.29L642.599 282.488ZM645.364 281.006L651.592 274.409L656.047 278.616L655.246 279.466L654.524 278.785L649.9 283.682L650.621 284.363L649.819 285.213L645.364 281.006ZM653.663 277.972L651.639 276.06L647.015 280.958L649.039 282.869L653.663 277.972ZM665.248 267.147L661.06 263.193L659.017 265.356L654.573 261.16L655.935 259.718L655.225 259.048L655.906 258.327L655.185 257.645L655.976 256.808L656.814 257.599L656.133 258.32L656.726 258.88L659.439 256.007L663.883 260.203L661.851 262.355L663.166 263.596L664.407 262.282L663.686 261.601L665.157 260.042L666.007 260.843L664.656 262.274L665.97 263.516L666.64 262.806L667.35 263.476L668.031 262.755L668.892 263.568L668.09 264.417L667.357 263.725L666.687 264.434L665.966 263.753L665.285 264.475L664.563 263.794L664.003 264.387L666.179 266.441L665.498 267.162L666.219 267.843L664.747 269.402L663.886 268.59L665.248 267.147ZM657.025 268.911L654.982 271.075L654.133 270.273L654.825 269.54L654.104 268.859L654.785 268.138L654.075 267.468L654.745 266.758L654.152 266.198L653.482 266.908L652.76 266.227L652.079 266.948L651.358 266.267L650.666 267L649.817 266.198L650.63 265.337L651.351 266.018L651.911 265.425L651.19 264.744L651.86 264.034L650.429 262.683L651.231 261.834L652.79 263.306L652.109 264.027L652.83 264.708L652.149 265.429L652.742 265.989L653.423 265.268L654.144 265.949L654.705 265.356L653.262 263.994L654.064 263.144L655.635 264.627L654.953 265.349L655.547 265.909L656.228 265.188L657.659 266.539L658.329 265.829L659.05 266.51L661.093 264.346L663.373 266.499L662.692 267.22L663.414 267.901L662.733 268.623L663.466 269.315L661.994 270.874L658.981 268.029L659.662 267.307L659.068 266.747L658.387 267.468L657.666 266.787L657.106 267.381L662.155 272.148L661.353 272.997L657.025 268.911ZM660.091 258.206L659.497 257.646L656.224 261.113L656.817 261.673L660.091 258.206ZM662.243 260.238L660.94 259.008L657.667 262.475L658.97 263.705L662.243 260.238ZM656.857 267.388L655.542 266.147L654.982 266.74L655.703 267.421L655.022 268.142L655.616 268.702L656.857 267.388ZM657.018 272.997L657.71 272.264L656.267 270.902L657.058 270.065L658.617 271.536L657.947 272.246L659.401 273.619L658.589 274.48L657.018 272.997ZM662.484 268.63L661.774 267.96L662.455 267.238L661.141 265.997L659.899 267.312L661.924 269.223L662.484 268.63ZM674.978 240.994L678.361 237.411L677.768 236.85L673.012 241.888L672.174 241.097L676.93 236.06L676.209 235.378L677.011 234.529L677.732 235.21L682.477 230.184L683.315 230.975L678.57 236.001L679.163 236.561L682.557 232.967L687.001 237.163L679.422 245.19L674.978 240.994ZM679.804 238.773L679.211 238.212L676.618 240.958L677.212 241.518L679.804 238.773ZM683.198 235.178L682.605 234.618L680.012 237.363L680.606 237.923L683.198 235.178ZM681.956 240.805L680.642 239.564L678.049 242.309L679.364 243.55L681.956 240.805ZM685.35 237.21L684.036 235.969L681.443 238.714L682.758 239.955L685.35 237.21ZM682.729 242.876L684.201 241.318L684.922 241.999L685.603 241.277L686.441 242.068L685.639 242.917L684.917 242.236L683.566 243.667L682.729 242.876ZM682.088 245L682.89 244.151L685.042 246.183L688.985 242.006L687.554 240.655L688.356 239.806L689.927 241.289L689.246 242.01L689.967 242.691L685.782 247.124L685.061 246.443L684.38 247.164L682.088 245ZM681.487 248.503L682.168 247.782L680.737 246.431L681.528 245.593L683.087 247.065L682.406 247.787L683.86 249.16L683.069 249.997L681.487 248.503ZM688.195 238.532L688.986 237.694L689.707 238.375L690.388 237.654L691.959 239.137L691.157 239.986L689.703 238.613L689.033 239.323L688.195 238.532ZM688.424 222.442L689.226 221.592L694.251 226.338L694.812 225.744L694.102 225.074L695.453 223.643L694.732 222.962L695.413 222.241L694.691 221.56L695.482 220.722L696.332 221.524L695.662 222.234L696.371 222.904L695.69 223.625L696.411 224.306L695.049 225.749L695.771 226.43L695.101 227.14L699.289 231.094L702.551 227.639L699.678 224.926L700.479 224.076L703.493 226.921L702.812 227.643L703.533 228.324L700.029 232.035L699.308 231.354L698.627 232.075L688.424 222.442ZM692.328 237.021L693.701 235.567L684.359 226.746L685.15 225.909L688.745 229.303L691.458 226.429L692.296 227.22L689.583 230.094L694.492 234.729L695.052 234.136L694.343 233.466L696.496 231.185L697.333 231.976L695.301 234.129L696.034 234.821L693.189 237.834L692.328 237.021ZM703.862 224.805L704.554 224.073L703.844 223.403L704.525 222.681L703.804 222L704.474 221.291L703.881 220.73L701.838 222.894L700.988 222.092L703.713 219.207L702.991 218.526L703.672 217.805L703.079 217.245L699.674 220.851L698.836 220.06L702.922 215.732L702.329 215.172L699.616 218.046L698.767 217.244L702.15 213.661L701.556 213.101L697.492 217.405L696.643 216.603L700.707 212.299L699.276 210.948L700.078 210.098L701.509 211.449L705.573 207.145L706.423 207.947L702.358 212.251L702.952 212.811L706.346 209.217L707.195 210.019L703.12 214.335L703.713 214.895L709.139 209.148L709.977 209.939L703.87 216.407L704.591 217.088L703.921 217.798L704.514 218.358L707.788 214.891L707.066 214.21L707.857 213.372L708.579 214.053L711.292 211.18L712.141 211.982L709.428 214.855L712.313 217.579L711.632 218.301L712.353 218.982L710.2 221.262L709.339 220.449L711.383 218.285L708.637 215.693L704.683 219.881L705.392 220.551L704.711 221.272L705.433 221.953L704.751 222.675L705.473 223.356L704.803 224.065L705.536 224.757L704.723 225.618L703.862 224.805ZM705.836 219.848L706.627 219.01L707.348 219.691L708.029 218.97L708.867 219.761L708.076 220.599L707.355 219.918L706.674 220.639L705.836 219.848ZM715.395 212.59L716.088 211.857L714.657 210.506L715.447 209.668L716.878 211.019L717.439 210.426L716.008 209.075L716.809 208.226L718.24 209.577L718.801 208.984L717.37 207.633L718.161 206.795L719.719 208.267L719.049 208.976L719.643 209.537L720.873 208.234L718.127 205.641L714.063 209.946L707.467 203.718L711.652 199.285L712.49 200.076L711.138 201.507L712.453 202.748L713.804 201.317L714.653 202.119L713.302 203.55L713.896 204.11L715.247 202.679L716.084 203.47L714.733 204.901L716.048 206.142L718.08 203.99L720.954 206.703L721.514 206.11L712.893 197.971L716.397 194.259L720.83 198.445L719.479 199.875L720.793 201.117L721.474 200.395L723.638 202.438L724.308 201.729L725.739 203.08L726.42 202.359L727.281 203.171L726.479 204.021L725.758 203.34L725.088 204.049L723.634 202.676L722.953 203.398L720.8 201.365L720.119 202.087L718.677 200.725L718.116 201.318L722.433 205.393L721.763 206.103L723.217 207.476L722.415 208.325L721.694 207.644L721.133 208.238L721.855 208.919L719.702 211.199L718.248 209.826L717.687 210.419L719.142 211.792L718.351 212.63L716.897 211.257L716.336 211.85L717.791 213.223L716.978 214.084L715.395 212.59ZM719.201 198.491L716.444 195.888L714.522 197.924L717.279 200.527L719.201 198.491ZM711.651 203.598L710.337 202.356L709.095 203.671L710.41 204.912L711.651 203.598ZM713.094 204.96L712.501 204.399L711.259 205.714L711.853 206.274L713.094 204.96ZM715.246 206.992L713.931 205.751L712.69 207.065L714.005 208.306L715.246 206.992Z" fill="black"/>
<path d="M228.106 347.667C228.106 344.008 231.073 341.041 234.733 341.041H256.95C260.609 341.041 263.576 344.008 263.576 347.667C263.576 351.327 260.609 354.293 256.95 354.293H234.733C231.073 354.293 228.106 351.327 228.106 347.667Z" fill="#6F2526"/>
<path d="M240.035 347.666C240.035 350.034 238.115 351.954 235.747 351.954C233.379 351.954 231.459 350.034 231.459 347.666C231.459 345.298 233.379 343.379 235.747 343.379C238.115 343.379 240.035 345.298 240.035 347.666Z" fill="white"/>
<path d="M250.128 347.666C250.128 350.034 248.209 351.954 245.841 351.954C243.473 351.954 241.553 350.034 241.553 347.666C241.553 345.298 243.473 343.379 245.841 343.379C248.209 343.379 250.128 345.298 250.128 347.666Z" fill="white"/>
<path d="M260.222 347.666C260.222 350.034 258.303 351.954 255.935 351.954C253.567 351.954 251.647 350.034 251.647 347.666C251.647 345.298 253.567 343.379 255.935 343.379C258.303 343.379 260.222 345.298 260.222 347.666Z" fill="white"/>
</g>
<defs>
<clipPath id="clip0_35_797">
<rect width="830" height="410" fill="white"/>
</clipPath>
<pattern id="pattern0_35_797" patternUnits="userSpaceOnUse" patternTransform="matrix(6.2 0 0 6.2 0 0)" preserveAspectRatio="none" viewBox="0 0 31 31" width="1" height="1">
<g id="pattern0_35_797_inner">
<rect width="31" height="31" fill="white"/>
<circle cx="15.5" cy="19.2471" r="7.75" fill="#8B1315" fill-opacity="0.12"/>
</g>
</pattern></defs>
</svg>
