<svg width="830" height="410" viewBox="0 0 830 410" fill="none" xmlns="http://www.w3.org/2000/svg" xmlns:xlink="http://www.w3.org/1999/xlink">
<g clip-path="url(#clip0_35_797)">
<rect width="830" height="410" fill="url(#pattern0_35_797)"/>
<path d="M307.391 188.12L276.059 176.184L241.376 205.521L247.214 221.193H292.968L307.391 188.12Z" fill="#F1DBCC"/>
<path d="M303.257 244.688L293.325 227.169H247.835L288.162 330.036L335.562 246.704L303.257 244.688Z" fill="#F1DBCC"/>
<path d="M142.694 40.3477L177.693 0.912109H260.235L273 58.7295L193.825 126.478L154.851 132.665L152.553 70.4169L142.694 40.3477Z" fill="#F1DBCC"/>
<path d="M131.744 39.085L168.308 0.207031V-7.19841H-1.09058V128.413L68.7981 85.8321V144.613L147.481 132.579L144.241 74.2612L131.744 39.085Z" fill="#F1DBCC"/>
<path d="M195.717 134.653L155.955 140.636L166.796 349.923L269.429 364.67L281.816 333.998L218.156 172.206L195.717 134.653Z" fill="#F1DBCC"/>
<path d="M147.518 142.806L82.1301 153.268L62.252 333.739L154.842 347.863L147.518 142.806Z" fill="#F1DBCC"/>
<path d="M74.1716 155.188L1.95045 163.254L1.03488 324.677H11.7377L14.256 304.495H57.0283L74.1716 155.188Z" fill="#F1DBCC"/>
<path d="M17.0589 324.973L18.9746 310.028H55.6801L52.1352 331.375L17.0589 324.973Z" fill="#F1DBCC"/>
<path d="M52.9505 350.949L0.308609 340.811V410.107H61.234L57.6446 399.688L43.7947 390.874L52.9505 350.949Z" fill="#F1DBCC"/>
<path d="M51.3845 387.917L58.8047 353.074L132.361 362.753L128.812 409.854H66.8701L63.3213 396.95L51.3845 387.917Z" fill="#F1DBCC"/>
<path d="M192.932 372.036L138.812 365.271L134.695 409.979H182.05L192.932 372.036Z" fill="#F1DBCC"/>
<path d="M186.661 410.189L198.289 373.176L228.52 376.47L220.962 410.189H186.661Z" fill="#F1DBCC"/>
<path d="M225.83 410.297L232.658 377.72C242.867 378.305 265.079 379.593 272.257 380.061C279.436 380.529 301.908 385.718 312.247 388.254L306.2 410.297H225.83Z" fill="#F1DBCC"/>
<path d="M405.742 407.571C402.303 407.326 344.945 396.005 316.697 390.376L310.862 417.09H449.343V410.335C449.343 408.37 447.501 405.422 446.58 404.194C434.4 405.422 409.181 407.817 405.742 407.571Z" fill="#F1DBCC"/>
<path d="M279.027 365.661L302.387 318.941L412.598 337.509L403.314 391.117L279.027 365.661Z" fill="#F1DBCC"/>
<path d="M412.021 390.786L421.119 339.348L522.248 342.497L527.847 381.339L412.021 390.786Z" fill="#F1DBCC"/>
<path d="M505.542 229.403L455.019 235.466L422.977 329.166L521.511 332.711L505.542 236.799V229.403Z" fill="#F1DBCC"/>
<path d="M452.752 404.286L456.525 412.64H536.016L533.321 395.663L452.752 404.286Z" fill="#F1DBCC"/>
<path d="M448.757 234.126L389.214 175.41C383.215 182.185 370.647 196.551 368.364 199.812C366.081 203.073 326.104 276.451 306.4 312.732L415.244 327.408L448.757 234.126Z" fill="#F1DBCC"/>
<path d="M385.081 170.908L338.519 125.297L279.513 172.389L314.017 184.552L297.386 225.014L306.57 240.156L336.618 241.86C344.009 228.24 359.551 200.049 362.592 196.248C365.632 192.447 378.851 177.771 385.081 170.908Z" fill="#F1DBCC"/>
<path d="M334.271 120.846L276.733 65.0879L203.567 131.642C210.846 142.954 225.699 165.874 226.88 167.054C228.06 168.235 235.416 188.971 238.946 199.192L334.271 120.846Z" fill="#F1DBCC"/>
<path d="M320.027 33.0625C313.393 37.6115 291.515 53.9136 281.406 61.4961L338.41 116.819L408.976 58.6648L406.037 15.7658C401.693 14.4233 391.678 11.359 386.371 9.84266C379.737 7.94724 375.472 8.18408 364.098 9.84266C352.725 11.5013 328.32 27.3763 320.027 33.0625Z" fill="#F1DBCC"/>
<path d="M426.424 87.1689L410.552 63.6064L342.876 122.048L355.763 135.216L426.424 87.1689Z" fill="#F1DBCC"/>
<path d="M456.962 132.046L428.44 91.1006L358.298 138.03L388.544 168.115L401.16 154.043L456.962 132.046Z" fill="#F1DBCC"/>
<path d="M404.079 158.551L393.02 171.736L453.206 230.434L506.374 223.415L513.18 149.193L459.799 135.369L404.079 158.551Z" fill="#F1DBCC"/>
<path d="M432.06 88.4229L459.844 36.707L537.22 72.9283C530.283 86.6474 516.16 115.017 515.166 118.745C514.172 122.472 513.509 137.382 513.302 144.371L459.844 129.628L432.06 88.4229Z" fill="#F1DBCC"/>
<path d="M455.444 35.0078L411.18 17.9023L413.297 60.755L429.344 84.7384L455.444 35.0078Z" fill="#F1DBCC"/>
<path d="M506.063 48.4365C492.377 41.5933 441.707 20.8749 418.083 11.3711C429.488 9.09004 451.619 0.373715 461.258 -3.69931H573.677L538.648 65.5441C533.489 62.6929 519.749 55.2797 506.063 48.4365Z" fill="#F1DBCC"/>
<path d="M520.074 119.444C520.906 115.702 534.109 88.775 540.607 75.7793L549.184 79.158L569.197 122.303L526.312 147.254L517.475 144.395C517.995 137.638 519.242 123.187 520.074 119.444Z" fill="#F1DBCC"/>
<path d="M592.084 173.299L570.262 127.138L530.815 150.917L551.238 188.966L592.084 173.299Z" fill="#F1DBCC"/>
<path d="M525.433 152.714L516.897 150.793L509.57 235.367L514.426 265.041L563.154 247.547L568.367 229.794L525.433 152.714Z" fill="#F1DBCC"/>
<path d="M577.083 273.687L564.363 252.062L516.909 269.986L535.262 378.849L581.523 361.501L615.966 323.789L588.814 275.666L577.083 273.687Z" fill="#F1DBCC"/>
<path d="M582.106 42.7354L561.635 31.3096L544.734 68.2055L555.208 73.4423L575.203 117.955L617.574 95.8178L582.106 42.7354Z" fill="#F1DBCC"/>
<path d="M572.632 226.896L553.874 192.13L593.825 176.816L612.88 216.302L619.653 223.144L587.139 237.401L572.632 226.896Z" fill="#F1DBCC"/>
<path d="M622.931 226.007L590.37 240.726L597.284 261.02L592.823 274.401L619.808 320.789L670.21 268.826L622.931 226.007Z" fill="#F1DBCC"/>
<path d="M586.882 241.659L571.924 231.995L566.496 249.469L579.337 270.517L589.53 271.576L593.236 261.383L586.882 241.659Z" fill="#F1DBCC"/>
<path d="M638.857 135.913L600.057 173.308L617.509 212.073L643.518 236.126L677.121 178.182L638.857 135.913Z" fill="#F1DBCC"/>
<path d="M680.744 97.8389L643.534 132.415L682.674 176.336L715.559 204.225L743.241 164.264L707.747 136.366L680.744 97.8389Z" fill="#F1DBCC"/>
<path d="M711.24 209.558L681.016 181.704L647.237 238.597L672.917 263.092L711.24 209.558Z" fill="#F1DBCC"/>
<path d="M587.622 372.724L537.867 395.37L542.441 421.008L619.004 416.633L742.323 319.422L702.229 245.077L587.622 372.724Z" fill="#F1DBCC"/>
<path d="M768.088 368.058L743.608 323.294L625.753 416.319H696.396L768.088 368.058Z" fill="#F1DBCC"/>
<path d="M779.161 389.206L769.959 372.203L701.547 417.211L780.761 416.211L779.161 389.206Z" fill="#F1DBCC"/>
<path d="M753.093 223.421L734.187 190.986L702.512 234.905L710.909 253.216L753.093 223.421Z" fill="#F1DBCC"/>
<path d="M755.107 228.483L713.647 257.235L745.4 316.491L749.677 313.638H805.994L755.107 228.483Z" fill="#F1DBCC"/>
<path d="M750.078 317.306L747.051 319.575L782.302 385.762V389.018L834.856 365.252L839.107 317.306H750.078Z" fill="#F1DBCC"/>
<path d="M832.861 368.336L783.391 391.539L784.812 412.217H832.861V368.336Z" fill="#F1DBCC"/>
<path d="M751.559 169.522C749.809 170.796 741.149 182.253 737.038 187.822L812.536 313.025H833.661C811.002 268.771 765.165 179.349 763.096 175.689C761.028 172.029 758.786 165.544 757.924 162.759C756.532 164.483 753.31 168.249 751.559 169.522Z" fill="#F1DBCC"/>
<path d="M278.017 54.2746L263.736 -2.57311L413.835 -5.37305L407.115 9.18888C403.847 8.06873 396.473 5.60441 393.113 4.70829C388.912 3.58814 385.272 1.06781 369.31 1.90792C353.347 2.74803 335.705 14.7896 329.264 17.31C324.112 19.3262 292.953 42.7931 278.017 54.2746Z" fill="#F1DBCC"/>
<path d="M61.3936 93.2002L-0.520004 130.55V152.758L61.3936 145.692V93.2002Z" fill="#F1DBCC"/>
<path d="M564.006 26.3266L581.965 -10.4595L602.989 -16.0352L677.49 93.9693C665.364 104.64 640.065 126.854 635.874 130.346C631.684 133.839 608.519 156.441 597.46 167.306L577.671 123.071L623.493 97.8443L586.02 39.3615L564.006 26.3266Z" fill="#F1DBCC"/>
<path d="M706.95 127.75L613.623 -10.8549L677.424 -12.4443L688.219 9.36658V26.3306L727.822 113.284L706.95 127.75Z" fill="#F1DBCC"/>
<path d="M693.094 7.53974L687.991 -1.98467L690.608 -3.40625C691.436 -1.69927 693.62 2.8797 695.729 7.53974C698.364 13.3648 726.028 81.7294 727.948 85.3567C729.484 88.2586 746.064 132.522 754.162 154.292L746.159 161.293L710.102 131.019L732.893 114.691L693.094 24.8879V7.53974Z" fill="#F1DBCC"/>
<path d="M769.18 162.829C765.612 158.37 723.263 50.3317 702.534 -3.12988H842.204V309.992C819.349 262.796 772.748 167.288 769.18 162.829Z" fill="#F1DBCC"/>
<path d="M416.524 10.4541L409.643 8.7334L415.449 -4.81443L455.448 -3.30885C451.835 -1.07237 427.994 6.79832 416.524 10.4541Z" fill="#F1DBCC"/>
<path d="M-16.7776 141.754C27.6636 113.148 121.961 50.2152 143.619 27.3305C165.278 4.4458 174.779 -5.70247 176.823 -7.91602" stroke="#CAB2A3" stroke-width="10"/>
<rect x="-2.13428" y="105.685" width="116.695" height="35.6166" transform="rotate(-35.5114 -2.13428 105.685)" fill="#CAB2A3"/>
<path d="M691.279 -16.0352C714.802 42.166 763.012 160.751 767.668 169.48C772.324 178.21 815.198 276.909 836.054 325.167" stroke="#CAB2A3" stroke-width="10"/>
<path d="M815.732 100.139C796.175 118.35 753.529 155.813 746.074 165.762C735.445 179.946 683.4 258.431 668.363 275.203C656.333 288.621 606.497 338.883 585.291 363.559L534.586 386.852L407.547 399.672C369.863 391.708 290.065 375.08 272.35 372.283C250.205 368.787 22.934 337.318 13.0274 334.987C5.102 333.123 -3.87221 329.937 -7.36865 328.577" stroke="#CAB2A3" stroke-width="10"/>
<rect x="810.442" y="325.568" width="136.643" height="35.6166" transform="rotate(-110.589 810.442 325.568)" fill="#CAB2A3"/>
<rect x="621.038" y="290.052" width="136.643" height="22.8217" transform="rotate(-46.7949 621.038 290.052)" fill="#CAB2A3"/>
<path d="M23.2962 114.727L24.541 113.89L24.1326 113.282L25.3575 112.459L24.9424 111.841L25.5598 111.426L25.2184 110.918L23.376 112.157L20.8185 108.353L23.8857 106.291L23.5443 105.783L19.2322 108.682L18.7434 107.955L23.0555 105.056L22.232 103.831L22.959 103.342L23.7825 104.567L28.0846 101.675L28.5734 102.402L24.2712 105.294L24.6127 105.802L27.6899 103.733L30.2475 107.537L28.3952 108.783L28.7366 109.291L29.3541 108.875L29.7692 109.493L31.004 108.663L31.4125 109.27L32.6374 108.447L33.1328 109.184L31.7984 110.081L31.3766 109.453L30.1417 110.284L29.7266 109.666L29.1191 110.075L28.704 109.457L28.0866 109.872L27.6782 109.265L27.1703 109.606L29.2458 112.693L28.5188 113.182L26.4433 110.095L25.9354 110.436L26.3438 111.044L25.7363 111.452L26.1514 112.07L25.534 112.485L25.9491 113.102L24.7142 113.932L25.136 114.56L23.7916 115.464L23.2962 114.727ZM24.7159 107.526L24.3745 107.018L22.0242 108.598L22.3657 109.106L24.7159 107.526ZM27.7931 105.457L27.4517 104.949L25.1014 106.529L25.4429 107.037L27.7931 105.457ZM29.0318 107.299L28.2752 106.174L25.925 107.754L26.6815 108.879L29.0318 107.299ZM25.9545 109.368L25.198 108.243L22.8477 109.823L23.6043 110.948L25.9545 109.368ZM33.0024 103.892L32.4945 104.234L33.7331 106.076L32.9962 106.571L31.6839 104.62L32.3113 104.198L31.4878 102.973L32.1052 102.558L31.7638 102.05L30.5189 102.887L30.0302 102.16L31.275 101.323L29.6213 98.8631L30.3383 98.381L31.992 100.841L33.2269 100.011L33.642 100.628L35.3748 99.4631L34.6182 98.3377L33.3933 99.1613L32.9046 98.4343L34.1295 97.6108L33.306 96.3859L34.0329 95.8971L34.8565 97.122L35.9718 96.3721L35.1483 95.1472L35.8753 94.6585L36.6988 95.8834L37.9237 95.0599L38.4125 95.7869L37.1876 96.6104L37.9441 97.7357L39.7865 96.4971L40.2685 97.2141L37.1913 99.2829L37.5328 99.7908L39.9925 98.1371L42.5501 101.941L41.9426 102.35L42.2841 102.858L43.509 102.034L44.0045 102.771L42.67 103.668L42.2549 103.051L41.6375 103.466L41.2157 102.838L38.8654 104.419L39.2872 105.046L38.6698 105.461L39.0849 106.078L37.7504 106.976L37.255 106.239L38.4799 105.415L38.1385 104.907L37.531 105.316L34.9734 101.511L36.8157 100.273L36.4743 99.765L34.0145 101.419L33.6061 100.811L32.4808 101.568L32.8222 102.076L33.4397 101.661L33.8481 102.268L34.4655 101.853L35.3694 103.197L34.6424 103.686L33.8122 102.451L33.3043 102.793L36.6251 107.732L35.9081 108.214L33.0024 103.892ZM37.2171 98.2244L36.4606 97.0991L35.3452 97.849L36.1018 98.9743L37.2171 98.2244ZM40.1057 99.854L39.7643 99.3461L38.0215 100.518L38.363 101.026L40.1057 99.854ZM37.6459 101.508L37.3045 101L36.1792 101.756L36.5206 102.264L37.6459 101.508ZM41.351 101.706L40.5945 100.581L38.8517 101.753L39.6083 102.878L41.351 101.706ZM38.8913 103.36L38.1347 102.235L37.0094 102.991L37.7659 104.117L38.8913 103.36ZM50.7887 97.1398L48.3785 93.5547L46.5262 94.8001L43.9686 90.9959L45.2034 90.1657L44.795 89.5582L45.4125 89.1431L44.9974 88.5257L45.7144 88.0436L46.1964 88.7606L45.579 89.1757L45.9205 89.6836L48.3802 88.0299L50.9378 91.8341L49.0955 93.0727L49.852 94.198L50.9774 93.4415L50.5623 92.824L51.8967 91.9269L52.3855 92.6538L51.1606 93.4773L51.9171 94.6027L52.5246 94.1943L52.933 94.8017L53.5504 94.3866L54.0459 95.1236L53.3189 95.6123L52.8971 94.9849L52.2896 95.3933L51.8745 94.7759L51.2571 95.191L50.842 94.5736L50.3341 94.915L51.5861 96.7773L50.9687 97.1924L51.3838 97.8098L50.0493 98.707L49.5539 97.9701L50.7887 97.1398ZM44.4815 97.0712L42.6292 98.3165L42.1404 97.5896L42.7678 97.1678L42.3527 96.5503L42.9702 96.1352L42.5617 95.5277L43.1692 95.1193L42.8278 94.6114L42.2203 95.0199L41.8052 94.4024L41.1878 94.8175L40.7726 94.2001L40.1453 94.6219L39.6565 93.8949L40.3934 93.3995L40.8085 94.0169L41.3164 93.6754L40.9013 93.058L41.5088 92.6496L40.6853 91.4247L41.4123 90.9359L42.3094 92.2704L41.692 92.6855L42.1071 93.3029L41.4897 93.718L41.8311 94.2259L42.4486 93.8108L42.8637 94.4282L43.3716 94.0868L42.5413 92.8519L43.2683 92.3632L44.1722 93.7076L43.5547 94.1227L43.8962 94.6306L44.5136 94.2155L45.3372 95.4404L45.9446 95.032L46.3597 95.6494L48.212 94.4041L49.5243 96.356L48.9069 96.7711L49.322 97.3885L48.7045 97.8036L49.1263 98.431L47.7919 99.3282L46.0578 96.7489L46.6752 96.3338L46.3338 95.8259L45.7164 96.241L45.3013 95.6236L44.7934 95.965L47.6991 100.287L46.9721 100.776L44.4815 97.0712ZM48.4934 89.7468L48.152 89.2389L45.1843 91.2341L45.5258 91.742L48.4934 89.7468ZM49.7321 91.5892L48.9822 90.4738L46.0145 92.469L46.7644 93.5843L49.7321 91.5892ZM44.6102 95.9291L43.8536 94.8038L43.3457 95.1453L43.7608 95.7627L43.1434 96.1778L43.4848 96.6857L44.6102 95.9291ZM43.8009 100.059L44.4282 99.6375L43.598 98.4026L44.3151 97.9206L45.2122 99.255L44.6047 99.6634L45.4416 100.908L44.7047 101.404L43.8009 100.059ZM48.5213 97.7677L48.1129 97.1603L48.7304 96.7451L47.9738 95.6198L46.8485 96.3764L48.0135 98.1092L48.5213 97.7677ZM65.3172 80.2291L67.1595 78.9905L64.6756 75.2959L65.4026 74.8071L67.8865 78.5018L68.3944 78.1603L67.9793 77.5429L71.1561 75.4071L71.6381 76.1241L68.5609 78.1929L68.976 78.8104L68.3685 79.2188L68.71 79.7267L69.3175 79.3183L70.5628 81.1706L71.1802 80.7555L72.0037 81.9804L72.6212 81.5653L73.0363 82.1827L73.5442 81.8412L73.1291 81.2238L73.7365 80.8154L72.913 79.5905L73.64 79.1017L74.5372 80.4362L73.9197 80.8513L74.3415 81.4787L73.7341 81.8871L74.1492 82.5045L73.4222 82.9933L73.0071 82.3758L72.3896 82.7909L71.9678 82.1636L71.3604 82.572L70.5302 81.3371L69.9127 81.7522L68.6741 79.9099L68.0567 80.325L67.6416 79.7075L65.7992 80.9462L65.3172 80.2291ZM64.5644 81.7764L64.0565 82.1178L64.4716 82.7353L63.8641 83.1437L64.2792 83.7611L63.5423 84.2565L63.0535 83.5296L63.6809 83.1078L63.2658 82.4903L63.8832 82.0752L63.0597 80.8503L63.6672 80.4419L62.837 79.207L63.4544 78.7919L62.2158 76.9496L62.9428 76.4608L64.255 78.4127L63.6376 78.8278L68.6122 86.2271L67.8852 86.7158L64.5644 81.7764ZM68.0325 74.9766L67.4151 75.3917L66.933 74.6747L67.66 74.1859L68.0684 74.7934L68.6858 74.3783L69.5897 75.7227L68.8627 76.2115L68.0325 74.9766ZM70.9264 71.9899L74.6111 69.5127L74.196 68.8952L74.923 68.4065L75.3381 69.0239L79.6402 66.1316L81.3676 68.7009L80.6406 69.1896L79.3953 67.3373L72.1255 72.2249L73.3708 74.0772L72.6538 74.5592L70.9264 71.9899ZM73.39 73.0087L79.6539 68.7974L81.3813 71.3667L75.8443 75.0893L76.6009 76.2146L82.7453 72.0837L84.8945 75.2804L84.1775 75.7624L83.7624 75.145L78.3349 78.7939L78.75 79.4113L78.0231 79.9001L73.39 73.0087ZM80.1656 71.1285L79.4157 70.0132L74.6057 73.247L75.3555 74.3623L80.1656 71.1285ZM83.2669 74.4081L82.5104 73.2827L77.0829 76.9316L77.8395 78.057L83.2669 74.4081ZM82.2065 66.1848L82.9235 65.7028L86.6527 71.2497L89.6204 69.2545L84.6525 61.8652L85.3795 61.3765L90.3474 68.7658L93.9225 66.3622L90.1933 60.8152L90.9203 60.3265L95.9685 67.8353L95.2415 68.324L94.4046 67.0792L87.1348 71.9667L87.9717 73.2115L87.2547 73.6936L82.2065 66.1848Z" fill="black"/>
<path d="M90.4297 109.059L91.9297 109.061L91.9306 108.329L93.4066 108.331L93.4075 107.587L94.1515 107.588L94.1523 106.976L91.9323 106.973L91.938 102.389L95.634 102.394L95.6348 101.782L90.4388 101.776L90.4399 100.9L95.6359 100.906L95.6377 99.43L96.5137 99.4311L96.5119 100.907L101.696 100.914L101.695 101.79L96.5108 101.783L96.51 102.395L100.218 102.4L100.212 106.984L97.9803 106.981L97.9795 107.593L98.7235 107.594L98.7226 108.338L100.211 108.34L100.21 109.072L101.686 109.074L101.685 109.962L100.077 109.96L100.078 109.204L98.5895 109.202L98.5905 108.458L97.8585 108.457L97.8594 107.713L97.1154 107.712L97.1163 106.98L96.5043 106.979L96.4997 110.699L95.6237 110.698L95.6283 106.978L95.0163 106.977L95.0154 107.709L94.2834 107.708L94.2825 108.452L93.5385 108.451L93.5375 109.195L92.0495 109.194L92.0486 109.95L90.4286 109.947L90.4297 109.059ZM95.6322 103.882L95.6329 103.27L92.8009 103.266L92.8002 103.878L95.6322 103.882ZM99.3402 103.887L99.3409 103.275L96.5089 103.271L96.5082 103.883L99.3402 103.887ZM99.3374 106.107L99.3391 104.751L96.5071 104.747L96.5054 106.103L99.3374 106.107ZM95.6294 106.102L95.6311 104.746L92.7991 104.742L92.7974 106.098L95.6294 106.102ZM103.784 100.916L113.54 100.928L113.528 110.72L112.664 110.719L112.665 109.975L104.637 109.965L104.636 110.709L103.772 110.708L103.784 100.916ZM112.666 109.087L112.675 101.803L104.647 101.793L104.638 109.077L112.666 109.087Z" fill="black"/>
<path d="M536.485 326.023L544.765 326.033L544.752 336.557L543.876 336.556L543.876 335.812L537.336 335.804L537.336 336.548L536.472 336.547L536.485 326.023ZM543.883 330.472L543.888 326.896L537.348 326.888L537.343 330.464L543.883 330.472ZM543.878 334.924L543.882 331.348L537.342 331.34L537.338 334.916L543.878 334.924ZM553.538 325.3L554.414 325.301L554.407 330.485L555.019 330.486L555.02 329.754L556.496 329.756L556.497 329.012L557.241 329.013L557.242 328.269L558.106 328.27L558.105 329.146L557.373 329.145L557.372 329.877L556.628 329.876L556.627 330.62L555.139 330.618L555.138 331.362L554.406 331.361L554.401 335.681L557.965 335.686L557.968 332.722L558.844 332.723L558.84 335.831L558.096 335.83L558.096 336.574L554.268 336.569L554.268 335.825L553.524 335.824L553.538 325.3ZM547.586 334.929L549.086 334.931L549.098 325.295L549.962 325.296L549.957 329.004L552.921 329.007L552.92 329.871L549.956 329.868L549.95 334.932L550.562 334.933L550.562 334.201L552.914 334.203L552.913 335.067L550.693 335.065L550.692 335.821L547.584 335.817L547.586 334.929ZM560.951 327.529L562.427 327.531L562.428 326.787L563.172 326.788L563.173 326.056L563.917 326.057L563.918 325.313L564.782 325.314L564.78 326.178L564.048 326.177L564.048 326.921L563.304 326.92L563.303 327.664L562.559 327.663L562.558 328.407L560.95 328.405L560.951 327.529ZM568.356 326.927L567.624 326.926L567.624 326.182L566.88 326.181L566.882 325.317L567.746 325.318L567.745 326.062L568.489 326.063L568.488 326.795L569.232 326.796L569.231 327.54L570.707 327.542L570.706 328.418L569.098 328.416L569.099 327.672L568.355 327.671L568.356 326.927ZM560.19 331.237L561.69 331.238L561.691 330.494L563.167 330.496L563.168 329.764L563.912 329.765L563.913 329.021L564.657 329.022L564.658 328.278L565.39 328.279L565.391 327.535L566.267 327.536L566.266 328.28L567.01 328.281L567.009 329.025L567.741 329.026L567.74 329.77L568.484 329.771L568.483 330.503L569.971 330.505L569.97 331.249L571.446 331.251L571.445 332.127L569.837 332.125L569.838 331.381L568.35 331.379L568.351 330.635L567.619 330.634L567.62 329.89L566.876 329.889L566.877 329.157L566.133 329.156L566.134 328.412L565.522 328.411L565.521 329.155L564.777 329.154L564.776 329.886L564.044 329.885L564.043 330.629L563.299 330.628L563.298 331.372L561.81 331.371L561.809 332.115L560.189 332.113L560.19 331.237ZM562.421 331.983L569.225 331.992L569.22 336.588L568.344 336.587L568.344 335.843L563.292 335.836L563.292 336.58L562.416 336.579L562.421 331.983ZM568.346 334.955L568.348 332.867L563.296 332.86L563.294 334.948L568.346 334.955ZM580.213 335.713L580.218 331.393L577.986 331.391L577.992 326.807L579.48 326.809L579.481 326.077L580.225 326.077L580.226 325.333L581.09 325.335L581.088 326.199L580.344 326.198L580.344 326.81L583.308 326.813L583.302 331.397L581.082 331.395L581.08 332.751L582.436 332.752L582.437 332.008L584.045 332.01L584.044 332.886L582.568 332.884L582.566 334.24L583.298 334.241L583.298 334.973L584.042 334.974L584.04 335.862L583.164 335.861L583.165 335.105L582.433 335.104L582.434 334.36L581.69 334.359L581.691 333.615L581.079 333.615L581.076 335.859L580.332 335.858L580.332 336.602L578.724 336.6L578.725 335.712L580.213 335.713ZM575.021 332.131L572.789 332.128L572.79 331.252L573.546 331.253L573.547 330.509L574.291 330.51L574.292 329.778L575.024 329.779L575.025 329.167L574.293 329.166L574.294 328.422L573.55 328.421L573.551 327.677L572.795 327.676L572.796 326.8L573.684 326.801L573.683 327.545L574.295 327.546L574.296 326.802L575.028 326.803L575.03 325.327L575.906 325.328L575.904 326.936L575.16 326.935L575.159 327.679L574.415 327.678L574.414 328.29L575.158 328.291L575.157 329.035L575.769 329.036L575.771 327.548L576.647 327.549L576.645 329.169L575.901 329.168L575.9 329.78L576.644 329.781L576.642 331.257L577.374 331.258L577.373 332.002L579.605 332.005L579.602 334.357L578.858 334.356L578.857 335.1L578.113 335.099L578.112 335.855L576.504 335.853L576.508 332.745L577.252 332.746L577.253 332.134L576.509 332.133L576.51 331.389L575.898 331.388L575.892 336.596L575.016 336.595L575.021 332.131ZM582.442 328.3L582.443 327.688L578.867 327.684L578.866 328.296L582.442 328.3ZM582.439 330.52L582.441 329.176L578.865 329.172L578.863 330.516L582.439 330.52ZM575.766 331.256L575.768 329.9L575.156 329.899L575.155 330.643L574.411 330.642L574.41 331.254L575.766 331.256ZM572.786 334.228L573.542 334.229L573.544 332.741L574.408 332.742L574.406 334.35L573.674 334.349L573.672 335.849L572.784 335.848L572.786 334.228ZM577.982 334.967L577.982 334.235L578.726 334.236L578.728 332.88L577.372 332.878L577.37 334.966L577.982 334.967ZM537.623 346.452L538.367 346.453L538.368 345.709L539.1 345.71L539.102 344.222L539.81 344.223L539.812 342.747L540.544 342.748L540.546 341.26L541.278 341.261L541.28 339.773L542.012 339.774L542.012 339.042L542.852 339.043L542.843 346.459L543.575 346.46L543.574 347.324L542.842 347.323L542.84 348.823L542 348.822L542.002 347.322L537.622 347.316L537.623 346.452ZM542.003 346.458L542.01 341.394L541.41 341.393L541.408 342.869L540.676 342.868L540.674 344.356L539.942 344.355L539.94 345.843L539.208 345.842L539.207 346.454L542.003 346.458ZM546.806 344.352L546.194 344.351L546.193 345.095L544.573 345.093L544.574 344.217L546.074 344.219L546.075 343.475L547.551 343.477L547.552 342.745L549.04 342.747L549.041 342.135L545.333 342.13L545.334 341.254L548.298 341.258L548.298 340.646L547.554 340.645L547.555 339.901L546.079 339.899L546.08 339.035L552.008 339.042L552.009 338.298L554.361 338.301L554.36 339.165L552.128 339.162L552.127 339.906L550.651 339.905L550.65 341.261L552.006 341.262L552.007 340.518L552.739 340.519L552.74 339.775L553.616 339.776L553.614 340.652L552.87 340.651L552.87 341.263L555.834 341.267L555.833 342.143L552.125 342.138L552.124 342.75L552.868 342.751L552.867 343.483L553.611 343.484L553.61 344.228L555.83 344.231L555.829 345.107L554.353 345.105L554.347 349.569L553.471 349.568L553.472 348.824L547.676 348.817L547.675 349.561L546.799 349.56L546.806 344.352ZM549.774 341.26L549.775 339.904L548.431 339.902L548.431 340.514L549.163 340.515L549.162 341.259L549.774 341.26ZM552.734 344.227L552.735 343.615L552.003 343.614L552.004 342.87L551.26 342.869L551.261 342.137L550.649 342.137L550.646 344.225L552.734 344.227ZM549.77 344.224L549.772 342.868L549.16 342.867L549.159 343.611L547.683 343.609L547.682 344.221L549.77 344.224ZM553.476 345.716L553.477 345.104L550.645 345.101L550.644 345.713L553.476 345.716ZM549.768 345.712L549.769 345.1L547.681 345.097L547.68 345.709L549.768 345.712ZM553.473 347.936L553.475 346.58L550.643 346.577L550.641 347.933L553.473 347.936ZM549.765 347.932L549.767 346.576L547.679 346.573L547.677 347.929L549.765 347.932ZM557.918 344.234L558.782 344.235L558.777 347.943L562.353 347.947L562.359 343.627L558.663 343.623L558.668 339.783L559.532 339.784L559.528 342.76L562.36 342.763L562.365 338.311L563.241 338.312L563.236 342.764L566.068 342.768L566.072 339.792L566.948 339.793L566.943 343.633L563.235 343.628L563.229 347.948L566.805 347.953L566.81 344.245L567.674 344.246L567.667 349.586L566.803 349.585L566.804 348.841L558.776 348.831L558.775 349.575L557.911 349.574L557.918 344.234ZM570.524 339.797L580.28 339.81L580.267 349.602L579.403 349.6L579.404 348.856L571.376 348.846L571.375 349.59L570.511 349.589L570.524 339.797ZM579.405 347.968L579.414 340.684L571.386 340.674L571.377 347.958L579.405 347.968Z" fill="black"/>
<path d="M618.944 359.186L624.631 353.168L632.28 360.396L631.679 361.033L631.138 360.522L626.646 365.275L627.187 365.786L626.593 366.414L618.944 359.186ZM627.257 356.854L624.658 354.398L620.166 359.151L622.765 361.607L627.257 356.854ZM630.492 359.912L627.893 357.456L623.401 362.209L626 364.665L630.492 359.912ZM630.116 346.281L630.717 345.645L634.485 349.205L634.905 348.76L634.373 348.258L635.387 347.185L634.846 346.674L635.357 346.133L634.817 345.622L635.41 344.994L636.047 345.596L635.544 346.128L636.076 346.631L635.565 347.171L636.106 347.682L635.084 348.764L635.624 349.275L635.122 349.807L638.261 352.774L640.709 350.184L638.555 348.148L639.157 347.511L641.416 349.646L640.905 350.187L641.445 350.698L638.816 353.48L638.275 352.969L637.764 353.51L630.116 346.281ZM633.039 357.217L634.069 356.127L627.066 349.508L627.659 348.88L630.354 351.427L632.39 349.273L633.018 349.866L630.982 352.021L634.663 355.499L635.083 355.054L634.551 354.551L636.167 352.842L636.795 353.435L635.27 355.049L635.819 355.568L633.685 357.827L633.039 357.217ZM636.823 342.416L637.836 341.343L637.296 340.832L637.807 340.292L637.275 339.789L637.786 339.248L637.245 338.737L637.838 338.109L638.466 338.702L637.964 339.235L638.504 339.746L637.993 340.286L638.534 340.797L638.023 341.338L638.564 341.849L637.459 343.018L636.823 342.416ZM641.463 336.614L640.96 337.146L640.42 336.635L639.909 337.176L639.281 336.583L639.874 335.955L640.415 336.466L640.926 335.925L641.458 336.428L641.969 335.887L642.51 336.398L643.523 335.325L644.16 335.927L643.056 337.096L642.515 336.585L642.004 337.125L641.463 336.614ZM638.998 345.512L640.029 344.422L639.488 343.911L640.502 342.838L639.97 342.336L640.481 341.795L639.94 341.284L640.451 340.743L639.91 340.232L640.413 339.7L639.872 339.189L640.474 338.552L641.015 339.063L641.526 338.523L642.066 339.034L642.569 338.502L643.11 339.013L643.621 338.472L644.153 338.975L645.175 337.893L645.716 338.404L646.729 337.331L647.366 337.933L646.262 339.102L645.721 338.591L644.699 339.672L644.158 339.161L643.655 339.693L643.115 339.182L642.604 339.723L642.072 339.22L641.561 339.761L641.02 339.25L640.6 339.695L641.14 340.206L640.629 340.747L641.161 341.249L640.659 341.781L641.199 342.292L640.688 342.833L641.229 343.344L640.207 344.426L640.748 344.937L639.635 346.114L638.998 345.512ZM641.072 344.401L645.745 339.456L649.086 342.613L648.484 343.249L647.943 342.738L644.474 346.41L645.014 346.921L644.413 347.558L641.072 344.401ZM647.298 342.128L645.78 340.694L642.311 344.366L643.828 345.8L647.298 342.128ZM655.99 334.014L652.85 331.047L651.317 332.669L647.986 329.52L649.008 328.439L648.476 327.936L648.987 327.395L648.446 326.884L649.039 326.256L649.667 326.85L649.156 327.39L649.601 327.811L651.637 325.657L654.969 328.805L653.444 330.419L654.429 331.35L655.361 330.364L654.82 329.853L655.924 328.685L656.561 329.286L655.547 330.359L656.533 331.29L657.036 330.758L657.568 331.261L658.079 330.72L658.724 331.33L658.122 331.967L657.573 331.448L657.07 331.98L656.529 331.469L656.018 332.01L655.478 331.499L655.057 331.943L656.688 333.485L656.177 334.025L656.718 334.536L655.614 335.705L654.968 335.095L655.99 334.014ZM649.822 335.334L648.289 336.956L647.653 336.355L648.172 335.805L647.631 335.294L648.142 334.753L647.61 334.251L648.113 333.719L647.668 333.298L647.165 333.83L646.625 333.319L646.114 333.86L645.573 333.349L645.054 333.898L644.417 333.297L645.027 332.651L645.568 333.162L645.988 332.718L645.447 332.207L645.95 331.675L644.877 330.661L645.479 330.024L646.648 331.129L646.136 331.669L646.677 332.18L646.166 332.721L646.611 333.141L647.122 332.601L647.663 333.112L648.083 332.667L647.002 331.645L647.603 331.008L648.781 332.121L648.27 332.662L648.715 333.082L649.226 332.541L650.298 333.555L650.801 333.023L651.342 333.534L652.875 331.912L654.584 333.527L654.073 334.068L654.614 334.579L654.103 335.12L654.653 335.639L653.548 336.808L651.289 334.673L651.8 334.132L651.355 333.712L650.844 334.253L650.304 333.742L649.883 334.186L653.668 337.763L653.067 338.4L649.822 335.334ZM652.125 327.307L651.68 326.886L649.224 329.485L649.669 329.906L652.125 327.307ZM653.739 328.831L652.762 327.908L650.306 330.507L651.282 331.43L653.739 328.831ZM649.697 334.192L648.711 333.26L648.291 333.705L648.831 334.216L648.32 334.757L648.765 335.177L649.697 334.192ZM649.816 338.399L650.335 337.849L649.253 336.827L649.847 336.199L651.015 337.304L650.513 337.836L651.603 338.866L650.993 339.511L649.816 338.399ZM653.916 335.125L653.384 334.622L653.895 334.081L652.91 333.15L651.979 334.136L653.496 335.57L653.916 335.125ZM659.06 328.808L658.541 329.358L657.372 328.253L657.982 327.608L659.064 328.63L659.566 328.098L660.098 328.601L661.541 327.074L661.009 326.572L661.52 326.031L659.994 324.588L659.483 325.129L658.942 324.618L657.417 326.232L656.78 325.63L658.305 324.016L657.773 323.514L658.284 322.973L656.758 321.531L656.247 322.071L655.706 321.56L654.264 323.087L654.804 323.598L654.302 324.13L655.383 325.152L654.773 325.797L653.596 324.684L654.115 324.135L653.574 323.624L654.085 323.083L653.553 322.58L655.169 320.871L655.701 321.374L656.204 320.842L656.744 321.353L657.255 320.812L658.965 322.427L658.454 322.968L658.994 323.479L658.492 324.011L658.937 324.432L659.439 323.9L659.98 324.411L660.491 323.87L662.201 325.485L661.689 326.026L662.23 326.537L661.727 327.069L662.277 327.588L660.661 329.298L660.112 328.778L659.601 329.319L659.06 328.808ZM662.469 320.868L662.049 321.313L662.589 321.824L661.477 323.002L660.84 322.4L661.87 321.31L661.329 320.799L662.343 319.726L661.811 319.223L662.833 318.142L662.388 317.721L659.842 320.416L659.205 319.815L661.241 317.66L660.796 317.24L660.285 317.781L659.744 317.27L658.73 318.343L658.102 317.749L662.174 313.441L661.633 312.93L663.249 311.22L663.877 311.814L662.344 313.436L662.884 313.947L661.871 315.02L662.856 315.951L663.788 314.965L663.247 314.454L663.75 313.922L663.209 313.411L663.811 312.775L664.447 313.376L663.936 313.917L664.381 314.337L666.417 312.183L667.053 312.785L664.507 315.48L664.951 315.9L665.463 315.359L665.995 315.862L666.506 315.321L667.046 315.832L668.571 314.219L669.208 314.821L668.194 315.893L671.438 318.959L670.837 319.596L670.296 319.085L666.315 323.298L666.856 323.809L666.254 324.445L662.469 320.868ZM662.255 316.588L661.269 315.656L660.346 316.633L660.791 317.053L661.293 316.521L661.834 317.032L662.255 316.588ZM666.445 316.469L666 316.049L665.497 316.581L664.956 316.07L664.445 316.611L663.913 316.108L663.493 316.553L665.01 317.987L666.445 316.469ZM664.409 318.623L663.423 317.692L663.003 318.137L663.544 318.648L662.53 319.721L662.975 320.141L664.409 318.623ZM668.037 316.95L667.592 316.53L665.647 318.588L666.092 319.009L668.037 316.95ZM665.49 319.645L665.045 319.225L663.611 320.743L664.056 321.163L665.49 319.645ZM669.651 318.475L668.665 317.544L666.72 319.602L667.705 320.534L669.651 318.475ZM667.104 321.17L666.118 320.239L664.684 321.756L665.67 322.688L667.104 321.17ZM670.005 312.701L670.599 312.073L673.294 314.62L675.75 312.021L672.61 309.054L670.071 311.74L667.28 309.103L667.874 308.475L670.037 310.519L671.982 308.461L668.746 305.403L669.348 304.766L672.584 307.824L674.529 305.766L672.366 303.722L672.968 303.085L675.758 305.722L673.212 308.417L676.351 311.384L678.808 308.785L676.113 306.239L676.706 305.611L680.587 309.278L679.994 309.906L679.453 309.395L673.939 315.23L674.48 315.741L673.886 316.369L670.005 312.701ZM675.424 300.486L682.124 293.395L689.241 300.121L688.648 300.749L688.107 300.238L682.593 306.072L683.134 306.583L682.541 307.211L675.424 300.486ZM687.462 299.628L682.168 294.625L676.654 300.46L681.948 305.462L687.462 299.628Z" fill="black"/>
<path d="M748.656 240.595L751.62 240.598L751.622 238.499L747.914 238.494L747.915 237.63L758.415 237.643L758.414 238.507L754.706 238.502L754.704 240.602L757.668 240.606L757.658 248.166L756.794 248.165L756.795 247.421L749.511 247.412L749.51 248.156L748.646 248.155L748.656 240.595ZM753.84 240.601L753.842 238.501L752.486 238.5L752.484 240.6L753.84 240.601ZM756.796 246.533L756.799 244.445L754.579 244.442L754.58 243.698L753.836 243.697L753.839 241.465L752.483 241.464L752.48 243.696L751.736 243.695L751.735 244.439L751.003 244.438L751.002 245.17L750.258 245.169L750.257 245.913L749.513 245.912L749.512 246.524L756.796 246.533ZM750.126 245.049L750.127 244.305L750.871 244.306L750.872 243.562L751.616 243.562L751.619 241.462L749.519 241.46L749.514 245.048L750.126 245.049ZM756.8 243.569L756.803 241.469L754.703 241.466L754.7 243.566L756.8 243.569ZM760.886 238.378L770.642 238.39L770.63 248.182L769.766 248.181L769.767 247.437L761.739 247.427L761.738 248.171L760.874 248.17L760.886 238.378ZM769.768 246.549L769.777 239.265L761.749 239.255L761.74 246.539L769.768 246.549Z" fill="black"/>
<path d="M739.672 197.839L744.002 197.844L744.004 195.994L744.734 195.995L744.732 197.845L749.052 197.85L749.051 198.58L739.671 198.569L739.672 197.839ZM741.524 204.641L741.524 204.021L743.384 204.023L743.385 203.413L743.995 203.414L743.996 202.894L743.386 202.893L743.386 202.283L742.766 202.283L742.767 201.663L742.147 201.662L742.148 201.042L741.528 201.041L741.529 200.421L741.019 200.42L741.018 201.04L739.668 201.039L739.669 200.309L740.919 200.31L740.92 199.7L742.15 199.702L742.15 199.082L742.88 199.083L742.88 199.803L742.26 199.802L742.258 200.932L742.878 200.933L742.877 201.553L743.487 201.553L743.487 202.173L744.107 202.174L744.106 202.794L744.616 202.795L744.617 202.175L745.237 202.176L745.237 201.556L745.857 201.556L745.858 200.936L746.468 200.937L746.469 200.317L747.089 200.318L747.09 199.808L746.47 199.807L746.47 199.087L747.2 199.088L747.2 199.708L747.82 199.709L747.819 200.319L748.429 200.32L748.428 201.05L747.708 201.049L747.709 200.429L747.199 200.428L747.198 201.048L746.578 201.047L746.577 201.667L745.957 201.666L745.956 202.286L745.346 202.286L745.346 202.896L744.726 202.895L744.725 203.415L745.345 203.416L745.344 204.026L746.574 204.027L746.574 204.647L749.044 204.65L749.043 205.39L746.463 205.387L746.463 204.767L745.233 204.766L745.234 204.136L744.614 204.135L744.615 203.515L744.105 203.514L744.104 204.134L743.484 204.133L743.483 204.763L741.633 204.761L741.633 205.381L739.663 205.379L739.664 204.639L741.524 204.641ZM752.028 201.054L751.518 201.053L751.517 201.673L750.167 201.672L750.168 200.942L751.418 200.943L751.419 200.323L752.649 200.325L752.65 199.715L753.89 199.716L753.89 199.206L750.8 199.203L750.801 198.473L753.271 198.476L753.272 197.966L752.652 197.965L752.653 197.345L751.423 197.343L751.424 196.623L756.364 196.629L756.364 196.009L758.324 196.012L758.323 196.732L756.463 196.73L756.463 197.35L755.233 197.348L755.231 198.478L756.361 198.479L756.362 197.859L756.972 197.86L756.973 197.24L757.703 197.241L757.702 197.971L757.082 197.97L757.081 198.48L759.551 198.483L759.55 199.213L756.46 199.21L756.46 199.72L757.08 199.72L757.079 200.33L757.699 200.331L757.698 200.951L759.548 200.953L759.547 201.683L758.317 201.682L758.313 205.402L757.583 205.401L757.583 204.781L752.753 204.775L752.753 205.395L752.023 205.394L752.028 201.054ZM754.501 198.477L754.503 197.347L753.383 197.346L753.382 197.856L753.992 197.856L753.991 198.476L754.501 198.477ZM756.968 200.95L756.969 200.44L756.359 200.439L756.36 199.819L755.74 199.819L755.74 199.209L755.23 199.208L755.228 200.948L756.968 200.95ZM754.498 200.947L754.5 199.817L753.99 199.816L753.989 200.436L752.759 200.435L752.758 200.945L754.498 200.947ZM757.587 202.191L757.587 201.681L755.227 201.678L755.227 202.188L757.587 202.191ZM754.497 202.187L754.497 201.677L752.757 201.675L752.757 202.185L754.497 202.187ZM757.584 204.041L757.586 202.911L755.226 202.908L755.224 204.038L757.584 204.041ZM754.494 204.037L754.496 202.907L752.756 202.905L752.754 204.035L754.494 204.037Z" fill="#6F2526"/>
<path d="M634.378 284.743L640.062 278.722L647.714 285.947L647.113 286.584L646.572 286.073L642.082 290.829L642.623 291.339L642.03 291.968L634.378 284.743ZM642.689 282.407L640.089 279.952L635.599 284.708L638.199 287.163L642.689 282.407ZM645.926 285.464L643.326 283.009L638.836 287.764L641.436 290.219L645.926 285.464ZM645.543 271.833L646.145 271.196L649.914 274.755L650.334 274.31L649.802 273.808L650.815 272.735L650.274 272.224L650.785 271.683L650.244 271.172L650.837 270.544L651.474 271.145L650.972 271.677L651.504 272.18L650.993 272.721L651.534 273.232L650.513 274.314L651.054 274.824L650.551 275.357L653.692 278.322L656.139 275.731L653.984 273.696L654.585 273.059L656.845 275.193L656.334 275.734L656.875 276.245L654.247 279.028L653.706 278.517L653.196 279.058L645.543 271.833ZM648.472 282.768L649.502 281.677L642.495 275.062L643.088 274.433L645.785 276.979L647.819 274.824L648.448 275.417L646.413 277.572L650.095 281.049L650.515 280.604L649.983 280.101L651.597 278.391L652.226 278.984L650.702 280.598L651.251 281.117L649.118 283.377L648.472 282.768ZM652.249 267.965L653.262 266.892L652.721 266.381L653.232 265.84L652.7 265.338L653.211 264.797L652.67 264.286L653.263 263.658L653.891 264.251L653.388 264.783L653.929 265.294L653.419 265.835L653.96 266.346L653.449 266.887L653.99 267.397L652.886 268.567L652.249 267.965ZM656.887 262.161L656.384 262.694L655.843 262.183L655.333 262.724L654.704 262.131L655.298 261.503L655.839 262.013L656.349 261.472L656.882 261.975L657.392 261.434L657.933 261.945L658.947 260.871L659.584 261.473L658.48 262.642L657.939 262.131L657.428 262.672L656.887 262.161ZM654.426 271.06L655.456 269.97L654.915 269.459L655.928 268.386L655.396 267.883L655.907 267.342L655.366 266.832L655.876 266.291L655.335 265.78L655.838 265.248L655.297 264.737L655.898 264.1L656.439 264.611L656.95 264.07L657.491 264.58L657.994 264.048L658.535 264.559L659.045 264.018L659.578 264.52L660.599 263.439L661.14 263.949L662.153 262.876L662.79 263.477L661.687 264.647L661.146 264.136L660.124 265.218L659.583 264.707L659.08 265.239L658.54 264.729L658.029 265.27L657.497 264.767L656.986 265.308L656.445 264.797L656.025 265.242L656.566 265.753L656.055 266.294L656.587 266.796L656.085 267.329L656.625 267.839L656.115 268.38L656.656 268.891L655.634 269.973L656.175 270.484L655.063 271.662L654.426 271.06ZM656.499 269.948L661.17 265.001L664.512 268.156L663.911 268.793L663.37 268.282L659.901 271.956L660.442 272.467L659.841 273.104L656.499 269.948ZM662.724 267.673L661.206 266.239L657.738 269.913L659.256 271.346L662.724 267.673ZM671.413 259.554L668.272 256.589L666.739 258.211L663.406 255.064L664.428 253.982L663.896 253.48L664.406 252.939L663.865 252.428L664.459 251.8L665.087 252.393L664.576 252.934L665.021 253.354L667.056 251.199L670.389 254.346L668.865 255.96L669.851 256.891L670.782 255.905L670.241 255.394L671.345 254.225L671.982 254.827L670.968 255.9L671.954 256.831L672.457 256.299L672.989 256.801L673.5 256.26L674.145 256.87L673.544 257.507L672.994 256.988L672.492 257.52L671.951 257.009L671.44 257.55L670.899 257.039L670.479 257.484L672.111 259.025L671.6 259.566L672.141 260.077L671.037 261.246L670.391 260.636L671.413 259.554ZM665.245 260.877L663.713 262.5L663.076 261.899L663.595 261.349L663.054 260.838L663.565 260.297L663.033 259.795L663.535 259.263L663.09 258.843L662.588 259.375L662.047 258.864L661.536 259.405L660.995 258.894L660.476 259.444L659.839 258.842L660.449 258.197L660.99 258.708L661.41 258.263L660.869 257.752L661.371 257.22L660.298 256.206L660.9 255.569L662.069 256.673L661.558 257.214L662.099 257.725L661.588 258.266L662.033 258.686L662.544 258.145L663.085 258.656L663.505 258.211L662.423 257.189L663.025 256.552L664.202 257.665L663.692 258.206L664.137 258.626L664.647 258.085L665.721 259.098L666.223 258.566L666.764 259.077L668.296 257.454L670.007 259.068L669.496 259.609L670.037 260.12L669.526 260.661L670.076 261.18L668.972 262.349L666.712 260.216L667.223 259.675L666.778 259.254L666.267 259.795L665.726 259.285L665.306 259.73L669.093 263.305L668.491 263.942L665.245 260.877ZM667.545 252.849L667.1 252.429L664.645 255.029L665.09 255.449L667.545 252.849ZM669.159 254.373L668.182 253.45L665.727 256.05L666.704 256.973L669.159 254.373ZM665.119 259.735L664.133 258.804L663.713 259.249L664.254 259.76L663.743 260.301L664.188 260.721L665.119 259.735ZM665.24 263.942L665.759 263.392L664.677 262.371L665.27 261.742L666.439 262.846L665.937 263.379L667.028 264.408L666.418 265.054L665.24 263.942ZM669.339 260.666L668.807 260.164L669.318 259.623L668.332 258.692L667.401 259.678L668.919 261.111L669.339 260.666ZM678.71 239.939L681.248 237.252L680.803 236.832L677.235 240.61L676.607 240.017L680.174 236.239L679.633 235.728L680.235 235.091L680.776 235.602L684.335 231.832L684.963 232.426L681.404 236.195L681.849 236.615L684.395 233.919L687.728 237.066L682.043 243.086L678.71 239.939ZM682.33 238.274L681.885 237.853L679.94 239.913L680.385 240.333L682.33 238.274ZM684.875 235.577L684.43 235.157L682.486 237.216L682.931 237.637L684.875 235.577ZM683.944 239.798L682.958 238.867L681.014 240.926L681.999 241.857L683.944 239.798ZM686.489 237.102L685.503 236.171L683.559 238.23L684.545 239.161L686.489 237.102ZM684.523 241.351L685.627 240.182L686.168 240.693L686.679 240.152L687.307 240.745L686.706 241.382L686.165 240.871L685.151 241.945L684.523 241.351ZM684.043 242.944L684.644 242.307L686.258 243.831L689.216 240.699L688.142 239.686L688.744 239.049L689.922 240.161L689.411 240.702L689.952 241.213L686.813 244.537L686.272 244.026L685.761 244.567L684.043 242.944ZM683.592 245.572L684.102 245.031L683.029 244.017L683.622 243.389L684.792 244.493L684.281 245.034L685.371 246.064L684.778 246.692L683.592 245.572ZM688.623 238.093L689.216 237.465L689.757 237.975L690.268 237.434L691.446 238.547L690.844 239.184L689.754 238.154L689.251 238.686L688.623 238.093ZM688.794 226.025L689.396 225.388L693.165 228.947L693.585 228.502L693.053 228L694.066 226.927L693.525 226.416L694.036 225.875L693.495 225.364L694.088 224.736L694.725 225.337L694.223 225.87L694.755 226.372L694.244 226.913L694.785 227.424L693.764 228.506L694.305 229.017L693.802 229.549L696.943 232.515L699.39 229.923L697.235 227.888L697.836 227.251L700.096 229.385L699.585 229.926L700.126 230.437L697.498 233.22L696.957 232.709L696.446 233.25L688.794 226.025ZM691.723 236.96L692.753 235.869L685.746 229.254L686.339 228.626L689.035 231.171L691.07 229.016L691.699 229.609L689.664 231.764L693.346 235.241L693.766 234.796L693.234 234.293L694.848 232.583L695.477 233.176L693.953 234.791L694.502 235.31L692.368 237.569L691.723 236.96ZM700.373 227.798L700.892 227.249L700.36 226.746L700.871 226.205L700.33 225.694L700.832 225.162L700.387 224.742L698.855 226.365L698.218 225.763L700.261 223.599L699.72 223.089L700.231 222.548L699.786 222.128L697.232 224.832L696.604 224.239L699.668 220.993L699.223 220.573L697.188 222.728L696.552 222.127L699.089 219.44L698.644 219.02L695.596 222.248L694.959 221.646L698.007 218.418L696.934 217.405L697.535 216.768L698.608 217.781L701.657 214.553L702.293 215.154L699.245 218.383L699.69 218.803L702.236 216.107L702.873 216.708L699.816 219.945L700.261 220.365L704.331 216.055L704.959 216.648L700.379 221.499L700.92 222.01L700.417 222.542L700.862 222.963L703.317 220.362L702.776 219.852L703.37 219.223L703.91 219.734L705.945 217.579L706.582 218.18L704.547 220.336L706.711 222.379L706.201 222.92L706.742 223.43L705.127 225.141L704.481 224.531L706.013 222.908L703.954 220.964L700.989 224.105L701.521 224.607L701.01 225.148L701.551 225.659L701.04 226.2L701.581 226.711L701.079 227.243L701.628 227.762L701.019 228.408L700.373 227.798ZM701.854 224.08L702.447 223.452L702.988 223.963L703.499 223.422L704.127 224.015L703.534 224.643L702.993 224.132L702.482 224.673L701.854 224.08ZM709.023 218.637L709.542 218.087L708.469 217.074L709.062 216.445L710.135 217.459L710.555 217.014L709.482 216L710.084 215.363L711.157 216.377L711.577 215.932L710.504 214.918L711.097 214.29L712.266 215.394L711.764 215.926L712.209 216.347L713.131 215.369L711.072 213.425L708.024 216.653L703.077 211.982L706.216 208.658L706.844 209.251L705.83 210.324L706.816 211.255L707.83 210.182L708.467 210.784L707.453 211.857L707.898 212.277L708.912 211.204L709.54 211.797L708.527 212.87L709.513 213.801L711.037 212.187L713.192 214.222L713.612 213.777L707.146 207.672L709.774 204.889L713.099 208.027L712.085 209.101L713.071 210.032L713.582 209.491L715.205 211.023L715.708 210.491L716.781 211.504L717.292 210.963L717.937 211.573L717.336 212.21L716.795 211.699L716.292 212.231L715.202 211.201L714.691 211.742L713.077 210.218L712.566 210.759L711.484 209.738L711.064 210.183L714.301 213.239L713.798 213.771L714.889 214.801L714.288 215.438L713.747 214.927L713.327 215.372L713.868 215.883L712.253 217.593L711.162 216.563L710.742 217.008L711.833 218.038L711.24 218.666L710.149 217.637L709.729 218.082L710.819 219.111L710.21 219.757L709.023 218.637ZM711.877 208.063L709.81 206.11L708.368 207.637L710.436 209.589L711.877 208.063ZM706.215 211.892L705.229 210.961L704.298 211.947L705.284 212.878L706.215 211.892ZM707.297 212.914L706.852 212.494L705.921 213.48L706.366 213.9L707.297 212.914ZM708.911 214.438L707.925 213.507L706.994 214.493L707.98 215.424L708.911 214.438Z" fill="black"/>
<path d="M787.87 208.34L788.196 209.14L782.007 211.664L783.358 214.975L791.602 211.613L791.933 212.424L783.689 215.786L785.316 219.775L791.505 217.251L791.835 218.062L783.457 221.479L783.127 220.668L784.515 220.102L781.207 211.99L779.818 212.557L779.492 211.757L787.87 208.34ZM786.894 227.555L790.206 226.205L788.243 221.394L789.055 221.063L791.017 225.874L792.95 225.086L791.554 221.663L792.366 221.332L793.761 224.755L795.017 224.243L793.621 220.82L794.421 220.494L796.098 224.605L796.787 224.324L797.956 227.191L797.156 227.517L796.037 224.773L794.092 225.566L795.492 228.999L794.681 229.33L793.281 225.897L791.348 226.685L793.305 231.485L792.494 231.816L790.536 227.016L787.092 228.421L786.811 227.732L786.122 228.013L785.234 225.835L786.056 225.5L786.894 227.555ZM792.496 241.289L796.496 239.658L795.653 237.591L799.897 235.86L800.459 237.238L801.137 236.961L801.418 237.65L802.107 237.369L802.433 238.169L801.633 238.495L801.352 237.806L800.786 238.038L801.905 240.782L797.66 242.513L796.822 240.458L795.566 240.97L796.079 242.225L796.767 241.944L797.375 243.433L796.564 243.764L796.006 242.397L794.751 242.909L795.027 243.587L794.349 243.864L794.63 244.553L793.808 244.888L793.477 244.077L794.177 243.791L793.901 243.114L794.59 242.833L794.309 242.144L794.998 241.863L794.766 241.296L792.689 242.143L792.408 241.455L791.719 241.735L791.111 240.247L791.934 239.911L792.496 241.289ZM793.845 235.127L793.002 233.061L793.813 232.73L794.098 233.43L794.787 233.149L795.068 233.838L795.746 233.561L796.022 234.239L796.589 234.008L796.313 233.33L797.002 233.049L796.721 232.36L797.41 232.079L797.124 231.379L797.935 231.049L798.271 231.871L797.582 232.152L797.813 232.718L798.502 232.437L798.778 233.115L800.145 232.558L800.476 233.369L798.987 233.976L798.706 233.287L798.017 233.568L797.736 232.879L797.169 233.11L797.45 233.799L796.761 234.08L796.992 234.647L798.37 234.085L798.701 234.896L797.201 235.508L796.92 234.819L796.353 235.05L796.634 235.739L795.268 236.297L795.544 236.974L794.855 237.255L795.698 239.322L793.52 240.21L793.239 239.521L792.55 239.802L792.269 239.113L791.569 239.399L790.962 237.91L793.84 236.736L794.121 237.425L794.687 237.194L794.407 236.505L795.095 236.224L794.864 235.657L790.042 237.624L789.711 236.813L793.845 235.127ZM800.201 240.544L800.768 240.313L799.417 237.002L798.85 237.233L800.201 240.544ZM798.145 241.382L799.39 240.875L798.039 237.564L796.795 238.071L798.145 241.382ZM794.937 235.485L796.192 234.973L795.961 234.407L795.272 234.688L794.991 233.999L794.425 234.23L794.937 235.485ZM791.057 233.854L791.343 234.554L792.721 233.992L793.047 234.792L791.558 235.399L791.281 234.721L789.893 235.288L789.557 234.465L791.057 233.854ZM792.342 238.941L793.019 238.665L793.3 239.354L794.556 238.842L794.044 237.586L792.111 238.375L792.342 238.941ZM807.329 256.052L808.725 259.475L809.292 259.244L807.33 254.432L808.13 254.106L810.092 258.917L810.781 258.636L811.112 259.447L810.423 259.728L812.38 264.529L811.58 264.855L809.623 260.055L809.056 260.286L810.456 263.719L806.212 265.45L803.085 257.783L807.329 256.052ZM807.347 260.037L807.914 259.806L806.844 257.183L806.278 257.414L807.347 260.037ZM808.748 263.47L809.314 263.239L808.245 260.617L807.678 260.848L808.748 263.47ZM805.292 260.875L806.547 260.363L805.478 257.741L804.222 258.253L805.292 260.875ZM806.692 264.308L807.948 263.796L806.878 261.174L805.622 261.686L806.692 264.308ZM803.637 260.759L804.245 262.248L803.556 262.529L803.837 263.218L803.037 263.544L802.706 262.733L803.395 262.452L802.837 261.085L803.637 260.759ZM802.387 259.662L802.717 260.473L800.662 261.312L802.289 265.301L803.655 264.743L803.986 265.555L802.486 266.166L802.205 265.477L801.516 265.758L799.79 261.525L800.479 261.244L800.198 260.555L802.387 259.662ZM800.181 258.164L800.462 258.853L801.829 258.296L802.155 259.096L800.667 259.703L800.386 259.014L798.997 259.58L798.67 258.78L800.181 258.164ZM804.906 265.84L805.232 266.64L804.544 266.921L804.825 267.61L803.324 268.222L802.994 267.411L804.383 266.844L804.106 266.167L804.906 265.84ZM815.82 270.992L816.151 271.803L811.351 273.761L811.582 274.328L812.26 274.051L812.817 275.418L813.506 275.137L813.787 275.826L814.476 275.545L814.802 276.345L813.991 276.676L813.714 275.998L813.037 276.274L812.756 275.586L812.067 275.867L811.505 274.489L810.816 274.77L810.54 274.092L806.539 275.723L807.885 279.023L810.63 277.904L810.961 278.715L808.083 279.889L807.802 279.2L807.113 279.481L805.667 275.936L806.356 275.655L806.075 274.967L815.82 270.992ZM804.654 269.131L805.221 270.52L814.143 266.881L814.47 267.681L811.036 269.081L812.155 271.826L811.355 272.152L810.236 269.408L805.547 271.32L805.778 271.887L806.456 271.61L807.344 273.788L806.544 274.114L805.706 272.059L805.006 272.344L803.832 269.466L804.654 269.131ZM809.413 280.798L809.698 281.498L810.376 281.222L810.657 281.911L811.346 281.63L811.622 282.307L812.189 282.076L811.346 280.01L812.157 279.679L813.281 282.434L813.97 282.153L814.251 282.842L814.818 282.611L813.413 279.167L814.213 278.84L815.899 282.974L816.465 282.743L815.346 279.998L816.157 279.667L817.553 283.09L818.119 282.859L816.443 278.747L817.254 278.416L818.931 282.528L820.297 281.97L820.628 282.781L819.261 283.339L820.938 287.45L820.127 287.781L818.45 283.67L817.884 283.901L819.284 287.334L818.473 287.665L816.791 283.543L816.225 283.774L818.463 289.263L817.663 289.589L815.144 283.411L814.455 283.692L814.178 283.014L813.612 283.245L814.962 286.557L815.651 286.276L815.977 287.076L815.289 287.357L816.408 290.101L815.597 290.432L814.477 287.688L811.722 288.811L811.441 288.122L810.752 288.403L809.864 286.226L810.686 285.89L811.529 287.957L814.151 286.887L812.52 282.887L811.842 283.164L811.561 282.475L810.872 282.756L810.591 282.067L809.902 282.348L809.626 281.67L808.926 281.956L808.59 281.133L809.413 280.798ZM812.184 283.685L812.51 284.485L811.822 284.766L812.102 285.455L811.302 285.781L810.976 284.981L811.665 284.7L811.384 284.011L812.184 283.685ZM814.171 292.465L814.456 293.165L815.823 292.608L816.149 293.408L814.783 293.965L815.014 294.532L816.38 293.974L816.711 294.785L815.345 295.343L815.576 295.91L816.942 295.352L817.269 296.152L815.78 296.759L815.503 296.082L814.937 296.313L815.444 297.557L818.067 296.488L816.39 292.377L822.69 289.807L824.417 294.04L823.617 294.367L823.059 293L821.804 293.512L822.361 294.879L821.55 295.21L820.992 293.843L820.426 294.074L820.983 295.441L820.183 295.767L819.626 294.4L818.37 294.912L819.208 296.968L816.464 298.087L816.695 298.654L824.929 295.296L826.374 298.841L822.141 300.567L821.583 299.2L820.328 299.713L820.609 300.401L818.542 301.244L818.818 301.922L817.452 302.48L817.733 303.168L816.91 303.504L816.58 302.693L817.269 302.412L816.992 301.734L818.381 301.167L818.1 300.479L820.156 299.64L819.875 298.951L821.253 298.389L821.021 297.823L816.899 299.504L816.623 298.826L815.234 299.393L814.903 298.581L815.592 298.301L815.361 297.734L814.672 298.015L813.784 295.837L815.173 295.27L814.941 294.704L813.552 295.27L813.226 294.47L814.615 293.904L814.384 293.337L812.995 293.904L812.66 293.081L814.171 292.465ZM822.615 299.441L825.248 298.367L824.455 296.422L821.821 297.496L822.615 299.441ZM821.473 292.701L822.728 292.189L822.216 290.933L820.961 291.445L821.473 292.701ZM820.095 293.263L820.662 293.032L820.149 291.776L819.583 292.007L820.095 293.263ZM818.039 294.101L819.295 293.589L818.783 292.334L817.527 292.846L818.039 294.101Z" fill="black"/>
<circle cx="80.0225" cy="105.515" r="5.2959" fill="black"/>
<circle cx="777.497" cy="253.349" r="5.2959" fill="black"/>
<rect x="203.092" y="132.311" width="28.5315" height="22.7171" transform="rotate(-38.4919 203.092 132.311)" fill="#8B1315"/>
<path d="M248.87 160.894H256.31V156.174H248.87V154.714H255.07V149.774H256.51V153.474H263.71V152.454H262.47V151.014H263.71V149.774H265.17V151.014H266.39V152.234H267.63V153.694H266.39V154.934H264.95V153.694H263.93V154.934H257.75V159.654H266.39V161.114H258.99V168.554H257.53V162.354H248.87V160.894ZM264.95 152.234V151.214H263.93V152.234H264.95ZM266.17 153.474V152.454H265.17V153.474H266.17ZM272.35 158.414H276.05V153.474H277.51V158.414H279.75V157.194H286.15V161.114H284.91V163.574H283.67V164.814H282.45V166.054H280.99V164.614H282.23V163.374H283.47V160.894H284.69V158.634H279.97V159.874H278.73V168.554H277.29V159.874H272.35V158.414ZM293.97 151.014H306.53V152.454H293.97V151.014ZM300.13 167.074V165.834H302.61V164.614H303.85V163.374H305.07V160.894H306.31V157.394H292.73V155.954H307.77V161.114H306.53V163.574H305.29V164.814H304.05V166.054H302.83V167.314H300.35V168.554H293.97V167.074H300.13ZM321.13 167.074V165.834H323.61V164.614H324.85V162.134H326.07V151.014H327.53V162.354H326.29V164.814H325.05V166.054H323.83V167.314H321.35V168.554H316.19V167.074H321.13ZM314.97 151.014H316.41V162.354H314.97V151.014ZM334.73 158.414H349.77V159.874H334.73V158.414ZM362.53 167.054V166.034H360.07V164.594H362.53V163.354H363.77V162.334H360.07V160.874H365.01V159.854H361.31V154.694H365.01V153.674H360.07V152.214H365.01V149.754H366.45V152.214H372.63V153.674H366.45V154.694H371.39V159.854H366.45V160.874H372.63V162.334H367.69V163.354H368.93V164.594H369.95V163.354H372.63V164.794H370.17V167.054H372.63V168.534H369.95V167.294H368.71V166.034H367.47V163.554H366.25V162.334H365.23V163.554H363.99V165.814H366.45V167.294H363.99V168.534H360.07V167.054H362.53ZM356.37 157.374H355.35V159.854H353.87V157.174H355.13V154.694H356.37V149.754H357.81V153.454H359.05V154.694H360.29V157.374H358.83V154.914H357.81V168.534H356.37V157.374ZM369.95 158.394V156.154H367.69V158.394H369.95ZM363.77 158.394V156.154H362.75V158.394H363.77ZM366.25 158.394V156.154H365.23V158.394H366.25ZM379.83 167.054V165.814H382.31V164.594H383.53V163.554H376.13V162.114H383.53V161.094H374.87V159.634H383.53V157.374H377.37V155.934H383.53V153.674H376.13V152.214H381.07V151.194H379.83V149.754H381.29V150.994H382.51V152.214H387.25V150.994H388.47V149.754H389.93V151.194H388.69V152.214H392.39V153.674H384.99V155.934H391.17V157.374H384.99V159.634H393.63V161.094H384.99V162.114H392.39V163.554H386.23V164.594H387.45V165.814H389.93V167.054H393.63V168.534H389.71V167.294H387.25V166.034H386.01V164.794H383.75V166.034H382.51V167.294H380.05V168.534H374.87V167.054H379.83ZM397.13 167.054V156.154H395.87V154.694H397.13V153.454H398.37V150.994H399.59V149.754H401.05V150.994H402.29V152.214H408.25V149.754H409.69V152.214H414.63V157.374H413.17V153.674H404.75V157.374H403.51V162.334H398.57V165.814H402.07V164.794H400.83V163.354H402.29V164.594H403.51V168.534H402.07V167.294H398.57V168.534H395.87V167.054H397.13ZM403.31 155.934V153.674H402.07V152.434H400.83V151.194H399.81V153.454H401.05V155.934H403.31ZM399.59 155.934V153.674H398.57V154.914H397.35V155.934H399.59ZM405.77 154.694H412.17V159.854H407.23V160.874H413.39V168.534H411.95V167.294H407.23V168.534H405.77V154.694ZM410.71 158.394V156.154H407.23V158.394H410.71ZM402.07 158.394V157.374H398.57V158.394H402.07ZM402.07 160.874V159.854H398.57V160.874H402.07ZM411.95 165.814V162.334H407.23V165.814H411.95Z" fill="#8B1315"/>
<path d="M246.379 152.473L218.816 135.579" stroke="#8B1315" stroke-width="2"/>
<circle cx="157.583" cy="127.914" r="4.40723" fill="#6F2526"/>
<circle cx="524.575" cy="379.741" r="4.40723" fill="#6F2526"/>
<circle cx="697.276" cy="204" r="4.40723" fill="#6F2526"/>
<circle cx="745.452" cy="188.081" r="4.40723" fill="#6F2526"/>
<circle cx="545.098" cy="371.927" r="4.40723" fill="black"/>
<circle cx="663.474" cy="299.053" r="4.40723" fill="black"/>
<circle cx="235.156" cy="110.146" r="4.40723" fill="#6F2526"/>
<path d="M162.021 83.153H162.631V82.543H163.251V81.303H163.871V80.793H163.251V80.173H162.631V79.553H162.021V78.833H163.251V78.213H163.871V77.703H162.021V76.973H164.491V75.123H165.211V76.973H167.681V77.703H164.591V78.323H163.981V78.933H163.361V80.063H163.981V80.683H164.491V80.063H165.101V79.443H165.721V78.833H166.451V79.553H165.831V80.173H165.211V80.793H164.591V81.413H163.981V82.643H163.361V83.153H164.491V82.543H166.341V82.023H165.721V81.303H166.451V81.923H167.061V83.153H167.681V84.513H166.951V83.263H164.591V83.893H162.021V83.153ZM160.781 83.773V80.793H158.301V78.213H160.781V76.463H158.301V75.743H161.511V78.933H159.041V80.063H161.511V83.893H160.891V84.513H158.931V83.773H160.781ZM168.801 83.153H170.051V82.543H171.281V81.923H172.521V81.413H168.801V80.683H173.131V80.173H171.901V76.353H172.521V75.743H173.131V75.123H173.861V75.843H173.241V76.353H175.091V80.173H173.861V80.683H178.181V81.413H174.481V81.923H175.711V82.543H176.951V83.153H178.181V83.893H176.841V83.263H175.601V82.643H174.371V82.023H173.861V84.513H173.131V82.023H172.621V82.643H171.391V83.263H170.151V83.893H168.801V83.153ZM170.661 77.083H170.051V76.463H169.431V75.743H170.151V76.353H170.771V76.973H171.391V77.703H170.661V77.083ZM175.601 76.973H176.221V76.353H176.841V75.743H177.561V76.463H176.951V77.083H176.331V77.703H175.601V76.973ZM174.371 77.593V77.083H172.621V77.593H174.371ZM168.801 79.443H170.051V78.833H170.661V78.213H171.391V78.933H170.771V79.553H170.151V80.173H168.801V79.443ZM175.601 78.213H176.331V78.833H176.951V79.443H178.181V80.173H176.841V79.553H176.221V78.933H175.601V78.213ZM174.371 79.443V78.323H172.621V79.443H174.371ZM179.301 80.063H181.781V79.443H183.021V78.933H179.301V78.213H183.631V77.703H179.931V75.123H183.741V77.593H184.251V75.123H188.061V77.703H184.361V78.213H188.681V78.933H184.981V79.443H186.211V80.063H188.681V80.793H186.101V80.173H184.871V79.553H184.251V78.933H183.741V79.553H183.121V80.173H181.891V80.793H179.301V80.063ZM183.021 76.973V75.843H180.651V76.973H183.021ZM187.341 76.973V75.843H184.981V76.973H187.341ZM184.251 81.303H188.061V84.513H187.341V83.893H184.981V84.513H184.251V81.303ZM179.931 81.303H183.741V83.893H180.651V84.513H179.931V81.303ZM187.341 83.153V82.023H184.981V83.153H187.341ZM183.021 83.153V82.023H180.651V83.153H183.021ZM189.801 81.303H195.991V80.793H191.051V77.593H194.131V77.083H190.431V76.353H194.131V75.123H194.861V76.353H198.561V77.083H194.861V77.593H197.951V80.793H196.711V81.303H199.181V82.023H196.711V83.893H196.091V84.513H194.131V83.773H195.991V82.023H189.801V81.303ZM194.131 78.833V78.323H191.771V78.833H194.131ZM197.221 78.833V78.323H194.861V78.833H197.221ZM197.221 80.063V79.553H194.861V80.063H197.221ZM194.131 80.063V79.553H191.771V80.063H194.131ZM191.661 82.543H193.011V83.153H193.621V83.893H192.901V83.263H191.661V82.543ZM208.631 83.773V79.553H205.551V75.123H209.361V83.893H208.741V84.513H206.781V83.773H208.631ZM200.611 75.123H204.421V79.553H201.331V84.513H200.611V75.123ZM203.701 76.973V75.843H201.331V76.973H203.701ZM208.631 76.973V75.843H206.271V76.973H208.631ZM208.631 78.833V77.703H206.271V78.833H208.631ZM203.701 78.833V77.703H201.331V78.833H203.701ZM211.111 83.153H211.741V81.303H212.361V76.353H215.441V75.123H216.171V76.353H219.871V77.083H216.171V78.833H219.871V79.553H216.171V80.683H219.261V84.513H218.531V83.893H214.321V84.513H213.591V80.683H215.441V77.083H213.081V81.413H212.461V83.263H211.851V84.513H211.111V83.153ZM218.531 83.153V81.413H214.321V83.153H218.531ZM162.271 89.223H163.011V89.843H163.521V89.223H164.241V89.843H165.371V89.223H166.091V89.843H166.711V94.903H165.991V89.943H165.481V90.563H164.861V94.903H164.131V89.943H163.621V90.563H163.011V94.903H162.271V89.223ZM168.401 93.653H167.771V89.223H168.511V93.553H169.121V94.163H170.871V93.553H171.491V89.223H172.211V94.903H171.491V94.273H170.981V94.903H169.021V94.273H168.401V93.653ZM173.271 92.933H174.011V94.163H176.991V92.423H173.901V91.803H173.271V89.843H173.901V89.223H177.091V89.843H177.711V91.183H176.991V89.943H174.011V91.693H177.091V92.313H177.711V94.273H177.091V94.903H173.901V94.273H173.271V92.933ZM180.621 87.363H181.351V88.713H180.621V87.363ZM180.621 89.223H181.351V94.903H180.621V89.223ZM184.901 93.653H184.271V90.453H184.901V89.843H185.521V89.223H187.481V89.843H188.091V90.453H188.711V91.183H187.991V90.563H187.371V89.943H185.621V90.563H185.011V93.553H185.621V94.163H187.371V93.553H187.991V92.933H188.711V93.653H188.091V94.273H187.481V94.903H185.521V94.273H184.901V93.653ZM189.771 89.223H190.511V89.843H191.021V89.223H192.981V89.843H193.591V90.453H194.211V93.033H193.591V93.653H192.981V94.273H191.021V93.653H190.511V95.523H189.771V89.223ZM192.871 93.553V92.933H193.491V90.563H192.871V89.943H191.121V90.563H190.511V92.933H191.121V93.553H192.871ZM197.121 87.363H197.851V94.903H197.121V87.363ZM200.771 92.313H201.401V91.693H203.871V89.943H201.511V91.183H200.771V89.843H201.401V89.223H203.981V89.843H204.591V94.163H205.211V94.903H204.491V94.273H203.361V94.903H201.401V94.273H200.771V92.313ZM203.251 94.163V93.553H203.871V92.423H201.511V94.163H203.251ZM206.271 93.553H206.901V92.933H207.521V92.313H208.131V91.693H208.751V91.073H209.371V90.453H209.991V89.943H206.271V89.223H210.711V90.563H210.091V91.183H209.481V91.803H208.861V92.423H208.241V93.033H207.621V93.653H207.011V94.163H210.711V94.903H206.271V93.553ZM211.771 92.313H212.401V91.693H214.871V89.943H212.511V91.183H211.771V89.843H212.401V89.223H214.981V89.843H215.591V94.163H216.211V94.903H215.491V94.273H214.361V94.903H212.401V94.273H211.771V92.313ZM214.251 94.163V93.553H214.871V92.423H212.511V94.163H214.251Z" fill="#6F2526"/>
<path d="M245.878 108.873H245.368V109.493H244.018V108.773H245.268V108.153H245.878V105.683H246.608V108.153H247.738V107.533H249.588V106.913H252.168V108.873H251.548V110.113H250.928V110.733H250.308V111.353H249.698V111.963H248.348V111.243H249.588V110.623H250.208V110.003H250.818V108.773H251.438V107.643H249.698V108.263H247.838V108.873H246.608V113.093H252.168V113.833H246.498V113.203H245.878V108.873ZM254.538 113.093H256.388V112.483H257.628V111.863H258.858V111.243H259.478V110.003H260.098V108.773H260.708V107.023H253.908V106.293H260.708V105.783H260.098V105.063H260.818V105.683H261.328V105.063H262.058V105.683H262.668V106.293H263.288V107.023H262.558V106.403H262.058V107.023H261.438V108.873H260.818V110.113H260.198V111.353H259.588V111.963H258.968V112.583H257.728V113.203H256.498V113.833H254.538V113.093ZM261.948 106.293V105.783H261.438V106.293H261.948ZM267.188 107.643H265.958V107.023H265.338V106.293H266.058V106.913H267.298V107.533H268.528V108.153H269.148V108.873H268.428V108.263H267.188V107.643ZM265.338 113.093H267.188V112.483H268.428V111.863H269.658V111.243H270.278V110.623H270.898V110.003H271.508V108.773H272.128V106.913H272.858V108.873H272.238V110.113H271.618V110.733H270.998V111.353H270.388V111.963H269.768V112.583H268.528V113.203H267.298V113.833H265.338V113.093ZM275.518 110.623H276.768V110.003H277.998V109.383H279.238V108.773H279.848V108.153H280.468V107.533H281.088V106.913H281.708V106.293H282.318V105.683H282.938V105.063H283.668V105.783H283.048V106.403H282.428V107.023H281.808V107.643H281.198V114.453H280.468V108.873H279.958V109.493H279.338V110.113H278.108V110.733H276.868V111.353H275.518V110.623ZM286.338 105.683H287.058V113.093H288.188V112.483H289.418V111.863H290.658V111.243H291.278V110.623H291.888V110.003H292.508V109.383H293.128V108.773H293.848V109.493H293.238V110.113H292.618V110.733H291.998V111.353H291.378V111.963H290.768V112.583H289.528V113.203H288.298V113.833H286.338V105.683ZM296.538 113.093H298.388V112.483H299.628V111.863H300.858V111.243H301.478V110.003H302.098V108.773H302.708V107.023H295.908V106.293H302.708V105.783H302.098V105.063H302.818V105.683H303.328V105.063H304.058V105.683H304.668V106.293H305.288V107.023H304.558V106.403H304.058V107.023H303.438V108.873H302.818V110.113H302.198V111.353H301.588V111.963H300.968V112.583H299.728V113.203H298.498V113.833H296.538V113.093ZM303.948 106.293V105.783H303.438V106.293H303.948ZM309.188 107.643H307.958V107.023H307.338V106.293H308.058V106.913H309.298V107.533H310.528V108.153H311.148V108.873H310.428V108.263H309.188V107.643ZM307.338 113.093H309.188V112.483H310.428V111.863H311.658V111.243H312.278V110.623H312.898V110.003H313.508V108.773H314.128V106.913H314.858V108.873H314.238V110.113H313.618V110.733H312.998V111.353H312.388V111.963H311.768V112.583H310.528V113.203H309.298V113.833H307.338V113.093Z" fill="#6F2526"/>
<path d="M354.67 260.691V257.711H352.81V256.981H354.67V252.661H361.57V253.381H355.4V253.891H360.96V254.621H355.4V255.131H360.96V255.851H355.4V256.981H362.19V257.711H357.87V258.221H358.49V259.461H359V258.841H360.23V258.221H361.57V258.941H360.34V259.561H359.72V260.071H360.96V260.691H362.19V261.431H360.85V260.811H359.61V260.181H358.38V259.561H357.76V258.331H357.14V257.711H355.4V260.071H357.25V260.811H354.78V261.431H352.81V260.691H354.67ZM363.94 253.891H365.17V253.271H365.79V252.661H366.41V252.041H367.13V252.761H366.52V253.381H365.9V254.001H365.28V254.621H363.94V253.891ZM370.11 253.381H369.5V252.761H368.88V252.041H369.6V252.661H370.22V253.271H370.84V253.891H372.07V254.621H370.73V254.001H370.11V253.381ZM363.31 256.981H364.56V256.361H365.79V255.751H366.41V255.131H367.03V254.511H367.64V253.891H368.37V254.511H368.99V255.131H369.6V255.751H370.22V256.361H371.46V256.981H372.69V257.711H371.35V257.091H370.11V256.471H369.5V255.851H368.88V255.241H368.26V254.621H367.75V255.241H367.13V255.851H366.52V256.471H365.9V257.091H364.66V257.711H363.31V256.981ZM365.17 257.601H370.84V261.431H370.11V260.811H365.9V261.431H365.17V257.601ZM370.11 260.071V258.331H365.9V260.071H370.11ZM374.44 252.661H383.19V253.381H374.44V252.661ZM374.44 260.691V259.461H375.06V258.221H375.67V254.511H382.57V258.331H381.85V257.711H376.4V258.331H375.78V259.561H375.16V260.811H374.55V261.431H373.81V260.691H374.44ZM381.85 256.981V255.241H376.4V256.981H381.85ZM388.64 260.691V252.041H389.37V260.811H388.75V261.431H386.17V260.691H388.64ZM384.31 258.841H384.94V257.601H385.56V256.361H386.17V254.511H386.9V256.471H386.28V257.711H385.66V258.941H385.05V259.561H384.31V258.841ZM391.73 256.471H391.11V254.511H391.84V256.361H392.46V257.601H393.07V258.221H393.69V258.941H392.96V258.331H392.35V257.711H391.73V256.471ZM394.81 254.511H400.38V253.891H401V253.271H401.61V252.041H402.34V253.381H401.72V254.001H401.1V254.511H403.57V256.471H402.85V255.241H395.55V256.471H394.81V254.511ZM399.14 252.761H398.53V252.041H399.25V252.661H399.87V254.001H399.14V252.761ZM396.67 252.761H396.06V252.041H396.78V252.661H397.4V254.001H396.67V252.761ZM394.81 258.221H399.14V257.601H399.76V257.091H396.67V256.361H401.72V257.091H400.49V257.711H399.87V258.221H404.19V258.941H399.87V260.811H399.25V261.431H397.29V260.691H399.14V258.941H394.81V258.221ZM406.56 257.091H406.05V258.941H405.31V256.981H405.94V255.751H406.56V255.241H405.31V254.511H406.56V252.041H407.28V254.511H408.52V255.241H407.28V255.751H407.9V256.361H409.03V255.751H409.64V254.511H410.37V255.851H409.75V256.361H410.37V257.601H410.99V258.841H411.5V257.601H412.11V256.361H412.84V257.711H412.22V258.941H411.6V259.461H412.22V260.071H413.46V260.691H414.69V261.431H413.35V260.811H412.11V260.181H411.5V259.561H410.99V260.181H410.37V260.811H409.13V261.431H407.79V260.691H409.03V260.071H410.26V259.461H410.88V258.941H410.26V257.711H409.64V256.471H409.13V257.091H408.52V257.711H407.79V256.471H407.28V261.431H406.56V257.091ZM408.41 253.271H410.88V252.041H411.6V253.271H414.07V254.001H408.41V253.271ZM412.11 254.511H412.84V255.131H413.46V255.751H414.07V256.471H413.35V255.851H412.73V255.241H412.11V254.511Z" fill="#6F2526"/>
<path d="M456.59 369.924H459.06V368.174H455.97V367.454H464.72V368.174H461.63V369.924H464.1V376.224H463.38V375.604H457.31V376.224H456.59V369.924ZM460.91 369.924V368.174H459.78V369.924H460.91ZM463.38 374.864V373.124H461.53V372.504H460.91V370.644H459.78V372.504H459.16V373.124H458.55V373.734H457.93V374.354H457.31V374.864H463.38ZM457.82 373.634V373.014H458.44V372.394H459.06V370.644H457.31V373.634H457.82ZM463.38 372.394V370.644H461.63V372.394H463.38ZM467.41 375.484V371.774H468.13V375.484H469.26V370.644H466.16V369.924H471.11V368.794H467.41V368.064H471.11V366.834H471.84V369.924H475.54V370.644H472.45V372.394H473.07V374.254H473.69V374.864H474.31V375.484H474.81V373.634H475.54V375.604H474.92V376.224H474.2V375.604H473.58V374.974H472.96V374.354H472.35V372.504H471.73V370.644H469.98V372.394H471.22V373.124H469.98V374.864H471.84V375.604H469.37V376.224H466.16V375.484H467.41ZM472.96 367.454H473.69V368.064H474.31V368.684H474.92V369.414H474.2V368.794H473.58V368.174H472.96V367.454ZM477.91 371.264H477.4V372.504H476.66V371.154H477.29V369.924H477.91V368.684H478.52V366.834H479.25V368.794H478.63V376.224H477.91V371.264ZM480.38 367.454H485.42V368.174H480.38V367.454ZM479.76 368.684H486.04V369.414H479.76V368.684ZM480.38 369.924H485.42V370.644H480.38V369.924ZM480.38 371.154H485.42V371.884H480.38V371.154ZM480.38 372.394H485.42V376.224H484.7V375.604H481.1V376.224H480.38V372.394ZM484.7 374.864V373.124H481.1V374.864H484.7ZM487.78 374.864H488.4V367.454H495.91V375.604H495.3V376.224H493.34V375.484H495.19V372.504H492.21V375.604H491.48V372.504H489.12V374.974H488.5V376.224H487.78V374.864ZM495.19 369.924V368.174H492.21V369.924H495.19ZM491.48 369.924V368.174H489.12V369.924H491.48ZM495.19 371.774V370.644H492.21V371.774H495.19ZM491.48 371.774V370.644H489.12V371.774H491.48ZM500.14 375.484V374.974H499.52V373.634H500.25V374.864H500.87V375.484H501.99V373.124H498.91V372.394H501.99V370.644H500.14V370.034H499.63V370.644H499.01V371.264H497.66V370.544H498.91V369.924H499.52V369.304H500.14V368.684H500.76V368.064H501.38V367.454H501.99V366.834H502.72V367.454H503.34V368.064H503.95V368.684H504.57V369.304H505.19V369.924H505.81V370.544H507.04V371.264H505.7V370.644H505.08V370.034H504.57V370.644H502.72V372.394H505.81V373.124H502.72V375.484H503.85V374.864H504.46V373.634H505.19V374.974H504.57V375.484H506.42V376.224H498.29V375.484H500.14ZM504.46 369.924V369.414H503.85V368.794H503.23V368.174H502.61V367.554H502.1V368.174H501.48V368.794H500.87V369.414H500.25V369.924H504.46ZM508.16 374.254H508.79V368.064H512.49V366.834H513.22V368.064H517.54V368.794H513.84V369.304H516.92V370.034H513.84V370.544H516.31V373.734H513.84V374.254H517.54V374.974H513.84V376.224H513.11V374.974H509.41V374.354H508.9V376.224H508.16V374.254ZM513.11 374.254V373.734H510.64V370.544H513.11V370.034H510.02V369.304H513.11V368.794H509.51V374.254H513.11ZM513.11 371.774V371.264H511.37V371.774H513.11ZM515.58 371.774V371.264H513.84V371.774H515.58ZM513.11 373.014V372.504H511.37V373.014H513.11ZM515.58 373.014V372.504H513.84V373.014H515.58Z" fill="#6F2526"/>
<path d="M645.025 231.93L650.981 226.396L651.471 226.923L645.515 232.457L645.025 231.93ZM647.998 234.218L653.053 229.521L653.55 230.056L648.495 234.753L647.998 234.218ZM649.608 237.787L656.479 231.402L656.983 231.944L650.112 238.329L649.608 237.787ZM652.256 225.211L654.526 223.101L654.104 222.647L654.632 222.157L655.054 222.611L656.79 220.997L656.368 220.543L656.895 220.053L657.317 220.507L659.127 218.826L659.617 219.353L657.808 221.035L658.23 221.489L657.702 221.979L657.28 221.525L655.544 223.138L655.966 223.592L655.439 224.082L655.017 223.628L652.746 225.738L652.256 225.211ZM659.538 229.405L659.116 228.951L660.472 227.692L660.124 227.318L659.678 227.733L659.255 227.279L658.428 228.048L658.85 228.503L657.414 229.837L656.924 229.309L658.279 228.05L657.857 227.596L658.765 226.752L657.996 225.924L657.623 226.271L658.045 226.725L655.693 228.91L655.196 228.376L657.467 226.265L657.12 225.892L655.311 227.573L654.82 227.046L657.531 224.527L657.184 224.154L654.927 226.25L654.431 225.715L656.687 223.619L656.265 223.165L656.799 222.668L657.222 223.122L659.485 221.018L659.982 221.553L657.718 223.657L658.066 224.03L660.776 221.512L661.191 221.958L661.645 221.536L662.142 222.071L661.688 222.493L662.11 222.947L661.209 223.785L662.046 224.686L661.592 225.108L662.014 225.562L661.56 225.984L661.907 226.358L662.816 225.513L663.238 225.968L664.593 224.708L665.097 225.25L663.661 226.585L663.239 226.13L662.338 226.968L661.909 226.506L660.627 227.697L661.056 228.159L659.701 229.418L660.123 229.872L658.225 231.636L657.722 231.093L659.538 229.405ZM658.449 225.353L658.871 225.807L660.153 224.616L659.806 224.243L659.351 224.665L658.929 224.21L657.647 225.402L657.995 225.775L658.449 225.353ZM661.533 222.487L661.186 222.114L659.457 223.72L659.804 224.094L661.533 222.487ZM659.715 226.716L660.137 227.17L661.419 225.979L660.997 225.525L661.444 225.109L661.096 224.736L658.913 226.764L659.261 227.138L659.715 226.716ZM664.991 223.492L665.907 222.641L665.492 222.194L666.393 221.357L665.971 220.903L666.425 220.48L666.078 220.107L664.723 221.366L662.122 218.568L664.379 216.471L664.031 216.098L660.859 219.045L660.362 218.51L663.534 215.563L662.697 214.662L663.232 214.165L664.069 215.066L667.234 212.125L667.731 212.66L664.566 215.601L664.913 215.974L667.177 213.871L669.777 216.669L668.415 217.935L668.762 218.309L669.216 217.887L669.638 218.341L670.546 217.497L670.962 217.944L671.863 217.107L672.366 217.649L671.385 218.561L670.956 218.099L670.048 218.943L669.626 218.489L669.179 218.904L668.757 218.45L668.302 218.872L667.887 218.425L667.514 218.773L669.624 221.044L669.089 221.54L666.979 219.27L666.605 219.617L667.02 220.064L666.574 220.479L666.996 220.933L666.541 221.355L666.964 221.809L666.055 222.653L666.484 223.115L665.495 224.034L664.991 223.492ZM665.223 217.38L664.875 217.006L663.147 218.613L663.494 218.986L665.223 217.38ZM667.486 215.276L667.139 214.903L665.41 216.509L665.757 216.883L667.486 215.276ZM668.745 216.631L667.976 215.804L666.247 217.41L667.017 218.238L668.745 216.631ZM666.482 218.735L665.713 217.907L663.984 219.514L664.753 220.341L666.482 218.735ZM668.054 211.363L671.226 208.415L670.389 207.514L670.924 207.017L671.761 207.918L674.926 204.978L675.422 205.513L668.551 211.898L668.054 211.363ZM676.277 213.851L674.249 211.668L671.992 213.764L670.236 211.875L675.291 207.178L677.047 209.068L674.783 211.171L676.894 213.442L676.439 213.864L676.861 214.318L675.426 215.652L674.922 215.11L676.277 213.851ZM676.015 209.03L675.246 208.202L671.254 211.912L672.023 212.74L676.015 209.03ZM672.683 216.344L673.599 215.493L673.184 215.046L673.63 214.631L673.208 214.177L673.663 213.755L673.241 213.301L673.775 212.804L674.265 213.331L673.811 213.753L674.233 214.208L673.779 214.63L674.201 215.084L673.747 215.506L674.176 215.967L673.187 216.886L672.683 216.344ZM675.958 210.775L676.486 210.285L676.908 210.739L677.362 210.317L677.784 210.772L678.238 210.35L678.653 210.796L679.1 210.381L679.604 210.923L679.077 211.413L678.648 210.952L678.193 211.374L677.771 210.92L677.317 211.342L676.895 210.888L676.448 211.303L675.958 210.775ZM680.474 208.422L680.013 208.851L675.316 203.796L675.858 203.293L680.487 208.274L680.933 207.859L681.349 208.305L682.631 207.114L682.215 206.667L682.67 206.245L678.041 201.264L678.568 200.774L683.265 205.828L682.811 206.25L683.233 206.705L682.786 207.12L683.215 207.581L681.779 208.916L681.35 208.454L680.896 208.876L680.474 208.422ZM679.345 200.052L682.597 197.03L683.087 197.557L680.377 200.076L682.405 202.259L684.662 200.162L685.158 200.697L682.902 202.794L685.435 205.519L684.892 206.023L679.345 200.052ZM688.532 200.934L688.071 201.363L686.736 199.927L687.278 199.423L688.545 200.786L688.991 200.371L689.407 200.818L690.689 199.626L690.273 199.179L690.728 198.757L686.099 193.776L686.626 193.286L691.323 198.341L690.869 198.763L691.291 199.217L690.844 199.632L691.273 200.094L689.837 201.428L689.408 200.966L688.954 201.388L688.532 200.934Z" fill="#6F2526"/>
<path d="M157.886 126.402L165.89 98.1328" stroke="#6F2526"/>
<path d="M545.583 370.573L551.895 353.267" stroke="black"/>
<path d="M64.2686 108.368V150.981L198.003 131.035M198.003 131.035L207.976 121.061M198.003 131.035L223.302 173.758L286.997 337.167L271.639 373.484L406.983 398.917L534.152 387.563L586.383 364.4L702.442 239.268L711.015 255.962L756.133 225.282L761.547 235.208" stroke="#8B1315" stroke-width="3"/>
</g>
<defs>
<clipPath id="clip0_35_797">
<rect width="830" height="410" fill="white"/>
</clipPath>
<pattern id="pattern0_35_797" patternUnits="userSpaceOnUse" patternTransform="matrix(6.2 0 0 6.2 0 0)" preserveAspectRatio="none" viewBox="0 0 31 31" width="1" height="1">
<g id="pattern0_35_797_inner">
<rect width="31" height="31" fill="white"/>
<circle cx="15.5" cy="19.2471" r="7.75" fill="#8B1315" fill-opacity="0.12"/>
</g>
</pattern></defs>
</svg>
