<svg width="136" height="168" viewBox="0 0 136 168" fill="none" xmlns="http://www.w3.org/2000/svg">
<path d="M15.4456 66.148C22.193 63.9894 35.8051 58.8625 36.2744 55.6245C36.8609 51.577 41.7661 50.7967 45.5413 50.5797C49.3166 50.3627 50.0244 45.154 54.0356 42.9837C58.0468 40.8133 64.1816 36.4728 70.7883 36.0387C76.0736 35.6915 86.2039 37.7749 90.6083 38.8601C90.7656 37.9196 91.8353 36.0387 94.8555 36.0387C98.6307 36.0387 105.473 33.2173 107.125 36.0387C108.777 38.8601 106.417 33.4342 111.136 34.7364M15.4456 66.148C18.448 68.5008 25.5102 74.2586 29.7406 78.4673C35.0285 83.7282 31.3456 90.7118 32.8701 95.1434C34.1377 98.8281 31.3456 99.1347 31.3456 100.723C31.3456 102.311 30.7118 111.125 29.7406 112.117C28.7693 113.11 26.7189 118.499 26.7189 123.533C26.7189 126.777 20.8373 132.074 15.4456 133.477C11.6602 135.988 7.70202 138.348 4.91952 139.911C7.61743 149.44 21.9703 160.26 25.8553 162.444C29.238 164.345 35.975 165.579 41.5786 164.875M15.4456 66.148C9.98526 63.9005 -0.628736 57.9597 0.598081 52.1764C2.1316 44.9474 14.2654 35.5888 19.8573 33.8743C25.4492 32.1599 40.3609 30.4453 48.8334 30.4453C55.6115 30.4453 64.9878 30.4453 68.8287 30.4453M111.136 34.7364C114.911 35.7783 124.821 43.2731 129.305 46.8903C123.013 50.1458 110.098 57.3947 108.777 60.3463C107.125 64.0358 105.473 70.3297 104.058 71.849C102.642 73.3682 96.5071 79.011 97.6869 84.8709C98.8667 90.7307 99.2611 98.2227 101.659 99.4356C104.058 100.649 104.058 105.703 104.058 106.915C104.058 108.128 105.125 116.013 108.777 116.417C112.429 116.821 114.187 123.088 117.704 122.886C121.22 122.684 124.077 127.333 127.374 125.11C130.011 123.331 132.282 121.673 133.088 121.067C134.35 122.751 136.115 126.687 133.088 128.951M111.136 34.7364C108.133 31.976 96.177 29.0472 90.6083 28.5191C86.1534 28.0966 76.1995 29.6272 71.7794 30.4453M133.088 128.951C129.305 131.781 129.132 133.398 123.418 132.994C117.703 132.59 114.846 128.951 112.429 128.951C110.011 128.951 107.359 130.072 106.221 131.533C105.083 132.994 102.951 137.366 101.659 137.665C100.626 137.904 98.5804 138.861 97.6869 139.31C98.3094 141.703 98.3838 147.296 93.701 150.527C87.8475 154.565 71.9131 165.931 64.1085 165.931M133.088 128.951C130.854 132.895 125.98 141.398 124.353 143.863C122.319 146.944 116.649 154.553 108.777 158.498C100.905 162.444 91.0947 162.926 84.7541 164.429C78.4136 165.931 66.3127 165.332 64.1085 165.931M64.1085 165.931C61.2984 166.269 54.7607 166.844 51.0904 166.438C46.5025 165.931 44.11 165.874 41.5786 164.875M64.1085 165.931C60.0016 165.931 57.4713 164.339 55.1844 163.066C53.1253 161.92 51.1867 161.193 49.8 159.351C49.8402 160.543 49.6003 161.864 44.852 163.067C44.0845 163.261 42.4107 164.77 41.5786 164.875M71.7794 30.4453C73.7445 27.1095 76.5276 23.3353 77.8773 21.8639C79.8936 19.6659 86.983 10.7811 88.018 9.24288C89.053 7.70464 88.708 7.02152 88.018 5.91084C87.328 4.80016 89.3117 3.61028 90.1742 2.4996C91.0367 1.38892 92.6755 0.357543 90.6083 0.516212C88.5411 0.67488 83.7917 4.80013 83.7917 6.46615C83.7917 8.13217 83.5289 7.32219 80.7086 10.7811C78.4523 13.5483 70.6023 27.9043 66.9593 34.7364C67.7835 35.0334 69.1549 34.8602 69.7375 34.7364C70.038 33.633 70.8089 32.0926 71.7794 30.4453Z" stroke="#FF7A7A" stroke-opacity="0.5"/>
</svg>
