<svg width="268" height="332" viewBox="0 0 268 332" fill="none" xmlns="http://www.w3.org/2000/svg">
<path d="M30.2041 130.975C43.6145 126.685 70.6685 116.495 71.6011 110.06C72.7669 102.015 82.5159 100.464 90.0191 100.033C97.5224 99.6017 98.9293 89.2495 106.901 84.936C114.874 80.6225 127.067 71.9956 140.197 71.1329C150.702 70.4428 170.836 74.5837 179.589 76.7404C179.902 74.8712 182.028 71.1329 188.031 71.1329C195.534 71.1329 209.134 65.5255 212.416 71.1329C215.699 76.7404 211.009 65.9564 220.388 68.5447M30.2041 130.975C36.1712 135.651 50.2074 147.095 58.6152 155.459C69.1248 165.916 61.8053 179.795 64.8352 188.603C67.3544 195.927 61.8053 196.536 61.8053 199.692C61.8053 202.849 60.5455 220.366 58.6152 222.339C56.6848 224.312 52.6096 235.023 52.6096 245.026C52.6096 251.474 40.92 262.003 30.2041 264.791C22.6807 269.782 14.8137 274.473 9.28352 277.578C14.6456 296.518 43.1719 318.022 50.8933 322.362C57.6163 326.141 71.0061 328.594 82.1432 327.194M30.2041 130.975C19.3517 126.508 -1.7436 114.701 0.694695 103.207C3.74256 88.8388 27.8585 70.2388 38.9723 66.8313C50.0861 63.4238 79.723 60.0161 96.5621 60.0161C110.033 60.0161 128.669 60.0161 136.302 60.0161M220.388 68.5447C227.892 70.6153 247.588 85.5113 256.498 92.7005C243.993 99.1707 218.325 113.578 215.699 119.444C212.416 126.777 209.134 139.286 206.32 142.306C203.506 145.325 191.313 156.54 193.658 168.187C196.003 179.833 196.787 194.723 201.553 197.134C206.32 199.545 206.32 209.589 206.32 212C206.32 214.411 208.441 230.081 215.699 230.884C222.957 231.688 226.452 244.143 233.441 243.741C240.43 243.34 246.109 252.581 252.661 248.161C257.903 244.625 262.416 241.331 264.018 240.125C266.525 243.473 270.034 251.295 264.018 255.795M220.388 68.5447C214.419 63.0583 190.657 57.2374 179.589 56.1877C170.735 55.3481 150.952 58.3901 142.167 60.0161M264.018 255.795C256.498 261.42 256.155 264.634 244.798 263.831C233.441 263.027 227.762 255.795 222.957 255.795C218.152 255.795 212.881 258.024 210.619 260.927C208.357 263.831 204.121 272.52 201.553 273.114C199.499 273.59 195.434 275.492 193.658 276.384C194.895 281.14 195.043 292.257 185.736 298.678C174.102 306.703 142.433 329.294 126.921 329.294M264.018 255.795C259.578 263.633 249.889 280.534 246.656 285.433C242.614 291.557 231.345 306.68 215.699 314.521C200.053 322.362 180.556 323.321 167.954 326.307C155.353 329.294 131.302 328.102 126.921 329.294M126.921 329.294C121.336 329.965 108.343 331.107 101.048 330.301C91.9294 329.294 87.1744 329.18 82.1432 327.194M126.921 329.294C118.759 329.294 113.73 326.13 109.185 323.6C105.092 321.322 101.239 319.877 98.4832 316.215C98.5632 318.584 98.0863 321.211 88.649 323.6C87.1237 323.986 83.797 326.986 82.1432 327.194M142.167 60.0161C146.073 53.3862 151.604 45.8851 154.287 42.9606C158.294 38.592 172.384 20.9337 174.441 17.8764C176.498 14.8192 175.813 13.4615 174.441 11.254C173.07 9.04655 177.012 6.68166 178.727 4.47419C180.441 2.26672 183.698 0.216869 179.589 0.532221C175.481 0.847573 166.041 9.04649 166.041 12.3577C166.041 15.6689 165.519 14.0591 159.914 20.9337C155.429 26.4333 139.828 54.9659 132.587 68.5447C134.225 69.1349 136.951 68.7906 138.109 68.5447C138.706 66.3516 140.238 63.2901 142.167 60.0161Z" stroke="white" stroke-opacity="0.5"/>
</svg>
